<mxfile host="app.diagrams.net" modified="2023-05-07T10:22:04.650Z" agent="Mozilla/5.0 (Windows NT 10.0; Win64; x64) AppleWebKit/537.36 (KHTML, like Gecko) Chrome/110.0.0.0 Safari/537.36" etag="QLxVKmNS3E1N9ywscyRe" version="21.2.9" type="device">
  <diagram name="Seite-1" id="5LCDjVpuLP_zK_REfFY4">
    <mxGraphModel dx="607" dy="796" grid="1" gridSize="10" guides="1" tooltips="1" connect="1" arrows="1" fold="1" page="1" pageScale="1" pageWidth="827" pageHeight="1169" math="0" shadow="0">
      <root>
        <mxCell id="0" />
        <mxCell id="1" parent="0" />
        <mxCell id="vH8yIlECoYQ3EJ_WlOSH-47" value="" style="rounded=1;whiteSpace=wrap;html=1;" vertex="1" parent="1">
          <mxGeometry x="1214" y="550" width="126" height="60" as="geometry" />
        </mxCell>
        <mxCell id="vH8yIlECoYQ3EJ_WlOSH-40" value="" style="rounded=0;whiteSpace=wrap;html=1;fillColor=none;" vertex="1" parent="1">
          <mxGeometry x="1344.25" y="37" width="222" height="292" as="geometry" />
        </mxCell>
        <mxCell id="vH8yIlECoYQ3EJ_WlOSH-17" value="" style="group" vertex="1" connectable="0" parent="1">
          <mxGeometry x="970" y="241" width="150" height="60" as="geometry" />
        </mxCell>
        <mxCell id="vH8yIlECoYQ3EJ_WlOSH-18" value="" style="rounded=1;whiteSpace=wrap;html=1;" vertex="1" parent="vH8yIlECoYQ3EJ_WlOSH-17">
          <mxGeometry width="140" height="60" as="geometry" />
        </mxCell>
        <mxCell id="vH8yIlECoYQ3EJ_WlOSH-19" value="API" style="text;html=1;strokeColor=none;fillColor=none;align=center;verticalAlign=middle;whiteSpace=wrap;rounded=0;direction=east;" vertex="1" parent="vH8yIlECoYQ3EJ_WlOSH-17">
          <mxGeometry x="100" y="15" width="40" height="30" as="geometry" />
        </mxCell>
        <mxCell id="vH8yIlECoYQ3EJ_WlOSH-20" value="" style="group;movable=1;resizable=1;rotatable=1;deletable=1;editable=1;locked=0;connectable=1;" vertex="1" connectable="0" parent="1">
          <mxGeometry x="880" y="30" width="280" height="299" as="geometry" />
        </mxCell>
        <mxCell id="vH8yIlECoYQ3EJ_WlOSH-15" value="" style="rounded=0;whiteSpace=wrap;html=1;fillColor=none;movable=0;resizable=0;rotatable=0;deletable=0;editable=0;locked=1;connectable=0;" vertex="1" parent="vH8yIlECoYQ3EJ_WlOSH-20">
          <mxGeometry width="280" height="299" as="geometry" />
        </mxCell>
        <mxCell id="vH8yIlECoYQ3EJ_WlOSH-5" value="" style="rounded=1;whiteSpace=wrap;html=1;" vertex="1" parent="vH8yIlECoYQ3EJ_WlOSH-20">
          <mxGeometry x="70.00499999999988" y="211" width="120" height="60" as="geometry" />
        </mxCell>
        <mxCell id="vH8yIlECoYQ3EJ_WlOSH-9" value="Custom" style="text;html=1;strokeColor=none;fillColor=none;align=center;verticalAlign=middle;whiteSpace=wrap;rounded=0;" vertex="1" parent="vH8yIlECoYQ3EJ_WlOSH-20">
          <mxGeometry x="100.00499999999988" y="213" width="60" height="30" as="geometry" />
        </mxCell>
        <mxCell id="vH8yIlECoYQ3EJ_WlOSH-25" value="" style="shape=image;verticalLabelPosition=bottom;labelBackgroundColor=default;verticalAlign=top;aspect=fixed;imageAspect=0;image=data:image/png,iVBORw0KGgoAAAANSUhEUgAAAEAAAABACAYAAACqaXHeAAAABHNCSVQICAgIfAhkiAAAAAlwSFlzAAAB2AAAAdgB+lymcgAAABl0RVh0U29mdHdhcmUAd3d3Lmlua3NjYXBlLm9yZ5vuPBoAAASiSURBVHic7ZrPax5FGMc/TWoMpagVDyZBvNRalYKIXqReSg8NraQghd4liODBGLCiFUWwrR48px4MpYJ/Qalt+rs2SkDPnqUpkhZra21NqX09PM+wk8nM7uy+u/O+xf3CkN359TzPN/N9dnb2hRYtWrRo0SIlJoBzwC2gU3O5BZwFXk8VTFkcov6gQ+XzRDFFYwJxbBl4HxhtwMYosE9tdIBdDdiojHOIU/sS2PpAbZ1JYCsafyFOjSSwNaK2biawFQ2jzb6ytzaBIy5SklCIgYS2fkhoy+BiD2zWgtDyrV1GKVdAX6IloNcO9BqpCdgEnKd4G2sQW2/KIrLdHmoyiCpYA7xNMy9AvnIwTVhxGAGOkzl3BHi0IVtbyVZCX2APcA1x6irwRgKbrlwuWXXJJPIYcNQyfAx4sqa5Q/mg6D6ZRLYBv5EdULyF5IC6UJUAaFgiw8jy+leN/IRk/dQoS1A0hoAvgCv4l5Upd4GPgMGS88965pqt4GdjBMQcZ/0CvBQ53xhySjSISOS2Z77b2jaofcci5m2MgEUd+GqVwQ42WfOdBV7U6yWrz5LWvQB8r9e/630eGiOg8kAHz5IFb/LFDf27YPVbcNpM3yvA5hJ+9pwAn7Y7wCngGWDeqpuxxh226ueBjcAcGQkhOfScgBhtLwPrtM8e4CtgEnmSGAxr3TTZxmUjcE/nmIj0M5oAX5a3T1RiCNhsjT8BbGG1tv/Uuue0j/mPTiL54A7wN3Aa2On4Z1bLCcIvcqEEXRhHKMsXDlTYwedp+2enzfQNlc903LTe30SIDaEyAW6WL0PAGFnwc8hSDWn7a6t+HskDRtvLwCvIB44PkT1FB9iBrBA7oDv49wmVJdBN8titbfeQ4EGW7DRhbb9HsbY/Jlvyw0hiXCB7RPr86QkBA2R6nmfl29Yu5AvNNfwfL/O0/bTWX4/w160vLYFuHx9bEH12kP88wIEch8zHyzxtP8UDQMAsokfb2CSi2w7wDzAFPAJs0Guj7Z3ka3s/D4AETP2SOjcDPAyc1Popz5gpbTudE9h+ipPgNzXG0TUBLowcNnjantC2GznzmVL1MRh73/XAIgIe97SNatvVnPlOAuNWfdmNUOx9YcdQMnH7GQkcRpa1kcC7njHm+/0cIpcZVksg+Va4KgGhJDgO3Ed0PIUse/cXHOPAm85Yo+3kL0OVByp8j8FPEBJ8RH6qfULaTv463A0BA2Rn/z+yciO0A9HsH8hm6Diw3Wp/CLigY0+RHaWFDkSeD/gQ4/dren25zMAiCUC1rXBI23Zxj8RiflgVE8eBqgNDBJR5GcrTtlt8z/kiuH5etOouI8F7P4x0mwNiX4dD2l5EjsuKMEAmmbxSGt0SACsPO89Q7rCzSNsGRm555ULkXCtQBwFQ7bi7zI8mzZJ+p8SYKNRFgItZVhNQRdsAL+v468D6inME0RQBdeI79eFQE5OXJSA1QWPIrvIuck5QO/qdgC91/m+bMmCy91a97ycJrEd030HyQCM4SP7z1CUoFQaR47PKj7dYDCEkmEBdgyGCUpX7yI8vegYfQakC/xXY23yILVq0aNHi/4X/AD+70Xn+n8IVAAAAAElFTkSuQmCC;" vertex="1" parent="vH8yIlECoYQ3EJ_WlOSH-20">
          <mxGeometry x="191" y="55.68" width="34" height="34" as="geometry" />
        </mxCell>
        <mxCell id="vH8yIlECoYQ3EJ_WlOSH-26" style="edgeStyle=orthogonalEdgeStyle;rounded=0;orthogonalLoop=1;jettySize=auto;html=1;entryX=0;entryY=0.5;entryDx=0;entryDy=0;" edge="1" parent="vH8yIlECoYQ3EJ_WlOSH-20" source="vH8yIlECoYQ3EJ_WlOSH-1" target="vH8yIlECoYQ3EJ_WlOSH-25">
          <mxGeometry relative="1" as="geometry">
            <mxPoint x="180" y="80" as="targetPoint" />
          </mxGeometry>
        </mxCell>
        <mxCell id="vH8yIlECoYQ3EJ_WlOSH-1" value="" style="shape=image;verticalLabelPosition=bottom;labelBackgroundColor=default;verticalAlign=top;aspect=fixed;imageAspect=0;image=data:image/png,iVBORw0KGgoAAAANSUhEUgAAAyAAAAPzCAYAAABP2mjpAAAABGdBTUEAALGPC/xhBQAAACBjSFJNAAB6JgAAgIQAAPoAAACA6AAAdTAAAOpgAAA6mAAAF3CculE8AAAABmJLR0QA/wD/AP+gvaeTAACAAElEQVR42uzddZhc9dXA8e8d13W3uLsRwQIEd6dGnRr10tKWykupU295a9C3LbTFXUqCBAkx4m6bdd+d2XG97x938cjuZnzO53nmCSHJ3ju/q+cn54AQQgghhBBCCCGEEEIIIUSuUaQJhEg6M7AQmAFMBMoAB+ABgsAg0AhsBXYAPmkyIYRIOiMwHZgLjAXKh+7POmBg6P68B9gLbAH6pcmEEEJkshLgU8AqwA+ow/zEgO3AT4HTAIM0pRBCJMws4GbguaEAY7j35ijwKvBtYIo0oxAnRkZARC5xoo0wVA4FAI63/ZkP6AN6gSagJ0n7MBv4MvA+tJGPE9UP/Af4P2CDHGIhhBixeuAjwHVoIx4nSgX+C/wWeGbo94lmB8YBFWijMkVv+7PQ0LOhDzgIdMkhFkKI1AXPC4CvAI8BzQy/J0sF3MBG4C/AZ4B5aMPuozURuA+Ij3A/RvLZAdw4FGgJIYQ49jPiHOBhtNGLZN2XNwPLExAgvR+4HXge6BjhPvQDLwE/HPrOVjn8QgiRWNOBHwOHk/Ag6Qb+DXxs6IEwHJahm344iQ+4d39cwC+BCXI6CCHEOxShdUztS+E9WQUeQBuxGA4ncDHaCMruJOzLIPAP4FxOrGNNCCHy3lnA0yR3hOHdn13ADzj6kP1StMWJapo+MeDRobYRQoh8NgX4A1pyj3Tdkz3AR4+yf6Voo+0vkNoOq93AJ0nMlGAhEkbWgIhMNwf4NSc+xH2itgD3oK3HaAO+DtxG5iwS3wHcAdw99BAc7vU/BZiKNoVs0tBDshAoACJAAC0bTCNwAG0dyvah4EcIIY6lAVgGTOat9XkmtBEAN+Ad+vUgsH/osx1tcfhw6ICzgS8C52XQO819aElIIsAlaNOrzkXLupUuzUPPrftIzpoVIYTICY6hF+pkzt0d7ajDoQzbp3cPvf8BWHSENtUDpwDfQxtNGmD0U8DuA65Em4ImhBBvWIrWaXR4lPeXELB26GdcwZHXvE0AbiU5U3ET9ekgvaMxR/u8PNTpJIQQ4ggPsAMZ/GDJls8e4DvAB9BGRnqTsI1O4Fu8M0OLECK/6IFrgdeTcI8JASuBLwEfR1tsncqpuLn48QGfRWbBCCHEm76GNmwtD4ns+gyiZXApl1NYiLxhQJtqJB1G2fl5hHemqxciZST6FYlUiZazvAKtDodx6OYWQivGF0eb9jOAljawc+jPQJsX/L9oGahE9nKhLdz/PdpCSyFEbjoXLRvfdGmKrLYNbZ1K09DvdUDV0DO8eOhjPsLz3Dv0HG9Dq0MSkaYUEoCIVKgBzgBORauhMY3R1afoBlrR8pZPk2bNGfuAm9BqtAghcscU4BfAhdIUOaMXLaNjw1DwMdLF8hHeSiCwBnhxKLARQoiEcAKfA15F5uDKZ3ifVWiZzIQQ2a0E+A2pTSErn+z9HAJ+AoyXS0cIMVpFwI/Q0iXKjVU+I/1EgT8P9a4JIbKLDfgy0Cf3MvmM4hMD7kdmOIh3kSlY4nguBf6CLC4WJy6Klr73F8Cmt/3/BmAWWh2SWqAarRK9HW1tkH3o77nR5hz3odUl2QHsRBv2j0rzCsF4YDbauoxpQBnaHP4StExVYbQMSGG0NXitQDtaOtvtaFMn35jLX4k24v1ZtPpAQpzo/f8naOmTZb2IkABEHJUdbYHhDdIUIgleRusdm82Jp/B1Ac8Bz6D1tLmleUWe0KMV4LsYOAcYd4I/LwzsAlrQCvxJnR+RaOuBD6KtGRESgAjxDqVDL3MLpSlElvEPBSG/Q6tJIEQuqkIbnfgo2qihENnEhZbEYI00hRDi7Q+27ci8Vflk9yeOluN+tlzSIsc6h36KNo1KrnP5ZPPHC5wll7QQArSpMDvlxigfcmsB/K8ZXYpoITKFgjba0SvXtHxy6BMAlsnlnb83NSFAq2j7FNq8XyFyTQtwPVp+eiGySQ3wT+BMaQqRg7qBJWiJRYQEICKDFQMz0TKc1KNlEKpHy3ZSiDaKUXCUf+tHm3vpPsKvdUhhKZHbYmgZWG5Dm6IlRKY7D/gHkoVQ5La9wMq3vcMc6dcjCbztHaYfLatbK9CMtsh9J29VeBcSgIgR0KNVGT8dWD7037LgUIgT8yBaFpagNIXIYDeiFf7TSVMIMWputHWtLwGr0Qop+6RZJAAR72UBzgWuQRuRKJQmESLhXkGrcdMvTSEy8Ln8Y+Ab0hRCJFwELQ38/WidUT3SJBKA5Lu5wBeAKzn6FCohROLsAs5HG64XIhOYgDvRRuiEEMkVA54H7gAeQ6bmSgCSZ+1/PvAVJB2dEOnQjlbAbac0hUgzG1rqaEkEIkTqHUCb8vg3ZIqWBCA5bgFaetBTpCnyk9GsIxKSDpcM0I2WYUiCEJEuVuBxpCNK7s8i3TqA7wN/RUZEkkovTZByVWhVmn8PjJHmyF86PZz/mRpKqk30t4eJhlVplPSwA5cDTwB90hwixSzAo8jIR0aoHG/h5KvKiMdUBjrC0iD5xwlcjDY7ZTvQJk2SHDICklpnAfcAldIUKbiLlBpwlhrpbgwSjagZu48f+uFYTDYde9Z42LJygM6DkpwpTbrQss3tkaYQKWJCWwh7kTRF+pjtemacVsDcFUWU1pl56d89rHskc/siCsqNFJQZad3tl4OXXCrwM+DbaOtFhAQgWccA/A/wTWnz1J7d595QxczTC+luCtGxP0DHgSAdBwP0t4e1W0sGqJ5o4brvjcFg0k6NrsYgG5/oZ/eaQVQZAE61lqEg5JA0hZDgI7cVV5tYfEkJU08uwGjWsh3vfMnNU3/oyKjgqHqCheqJFqonWqmaaAHg3v9ppq9NRmhS5DngA2idVEICkKzhRFtYKFVs03GCK3Dep6uZufyd2YxD/jgdBwK07vZzeJufzkOBtL7sTzu5gIs+X/OOK3KgM8y6R/rY+dIg8ZhMz0qhw8BpQ8GIEMlgAO4FrpCmSL2yejNLLi9l6tIClLdVWWnbG+DeHzQTS+OIub3YwNhZdhpm2qiZZKWk2vSO54LfHePeW5vpbQ3JgUytDrRpWVulKSQAyQaFwNPAUmmK9AYhZ36kkvnnFR/174R8MZp2+mna7qNpm5+BztT3LJ36vnKWXFb6nv8/2BNh3WN9bH/BndYHY545gFYAtF2aQiSYDq26+QekKVKrcpyFJVeUMmmRE+Vdbz+evij/+GYjfndqZ9oYzTrqp9sYM8vG2Nl2yurNR/27gz0R7vthi6xNSR8XWp229dIUEoBksqKh4GOJNEVmWHpFKadcWz6sv+vuidC42cfedYO07PKnZHREp1e49rv11E21HfHPvf1RXv5PDztfcqOmIA6pmWQFBdr3BfL1lNmLNh2rU64ekcBn7h+BG/K5EUwWHVOXFbDtBVdKpsIWV5k4/QPlTFrkPOJbTzymcu+tLbTuSc2aCmepkcmLnUxa5KBmshW94fivYr0tIe7/UQve/qhcRenlBs4D1kpTSACSiazAC8BiaYrMMmdFEWd/vOodw+7H4x+MsX+9h71rPbTs8id1OpSz1MBHfjYOi+PoCeo6DwV54e/dSX9Y6vQKH/vFOFp2+3npXz0EPHm5Bm8r8D4ghDZtxvm2PyvgrUyClqHr/o37agx4GEnjmKtOAiYPnRcAUcDztj8f5K1Fq0HgjSj+K8Dn8rnhpixxcsb1lbzwjy72rvUkdVtmu56lV5Qy/7ziY77kv3JvD689lNxF5wXlRqYsdjJ5iZOaidYRvX217Qvw0E9bCXplHXQGBSGnADukKSQAybQ2/RdwnTRF5j4AL7yxBr1x5Kd/wBNj3zoP219w0XEgOdmq5p9XzFkfPX6itL1rPay+uxt3TyRpbTXrjELO+3Q1AU+M1f/qYXuKeixzxFrg08ic4VxSAvwE+DjaVCoxTMXVJs76aCXj5tjpaw1x19cak3YvUXQw56wiTr6mHFvBsasNDHSE+dvXGolFE78zFrue6acVMOPUQqrGW0b1xtW4xcejv2yTmiSZpxGtk7lHmmJ0pA5I4n0O+Lo0Q+bqaw3TcSDIlCUF6PQjeyIYzTqqxluYfVYRkxY5UBTo7wgn9OHV1RhiymIntgLDMf9eWZ2ZOWcXo8ag40AwKdOy+tvCzDmrGFuBnokLHTRMt9Gy20/IJw/DYagDPoE2HfMVICJNktU+hFYs8FSk8274wYACiy4q4ZIv11JaawLglXt76TqUnA6cirEWrrq5jtlnFr2Z2epYnvljB32tiV1TUTvZyinXlnP+Z6qZuMCBo8QwqjNmz5pBHvtVu6z9y9CYGpiJ1uEsRnNvkCZ4D/vQSTURqAdqh14gCnlrigWAF+gf+vQNfaLAH9719/IzsjUozDitkIAnxkBHmIGucMbdRMfNtXP51+pGNRLyduFgnD1rBtn09AA9zYnJTDL91AIuvLFm2H+/81CQZ/63I2Hbf7szP1zJggveWsAfDsR58e5utj7nktGQ4dsPfBR4VZoi61QBf0YrTiZGoKjSyPmfraFu6luPxGhY5Q837CccSGwnht6gsPTKMhZfWjLsjqXuphB//3pjQrZvNOuYubyQuWcXHXMh+bBvGBs8PPar9ozLgGgvNlBSbaK4ykTnoSDdh/O+btXtwE600dESoPRt//3maY82bcuFtqawBWhCK3SYt6l9JQCBMrQFRcvR5vRNQobWE6Kk1sSV36inqNKIqsJgb4SBjjA9zSF6W0L0NIfoaw2ltQL4pEVOLvlyzYhHQo5IhYObvax7pI+2vSe2cNto1vH5OyeNKDiKRVXWPtzH2of7EvrQqptq5X3/M+Y9/79xq4///qkDT58sihymOPBL4Dto6wJE5rsWrVOpVJpiZG8W884p5vQPlL9nFOLARi8P/7w1sRHiBAvnf6Z6xC/+q+/pZv1j/Se0bYtdz7zzipl/XvFxp3sN1+FtPh76WWtaO+0Kyo2U1Zspb9A+pbUmiqpMmCw6UOHl+3pY+1CfnOsnrhNtuu6LwH/Jo0K4+RqA2IBrgA8OBR4yFS1ZDV2g57Kb6qidfORBITUOrq4w3YdDdB4K0HkwSOehYMJ7x45l0UUlLP9QRUJ/ZuseP2sf7qNxi2/UP+ODPxxD9cSRD6Z1NQZ5/DftCUvVqDcofP6uSUeczhD0xnjqjg4Ovu6Vk334NgFXI8UOM5kF+C3wSWmKkbE69Vzw2WrGz3cc8c9f+Ec3G5/sT8i2FB0svaKMZVeWjSixyBv+9d2mUXcWOYoNLLywhDkrijBZE9dn2d8W5p/fPpyyZ6CiQEmtmarxFqomWKgcZ6Gs3ozZduTvFI2oPH1HB3vWDMrJnhy70GoE3Qm0SQCSO8qAr6ItDC2S8zw1jGYdl36llnFz7cP6+6qqLQzsPBikfV+A1j1+eltCyUs9q8A1t9QzZqY94T+6bV+A1Xd3j+ohd/lNdUxc6BjVdsOBOCv/2smuVxLzkPjwT8dSMdZylAMGG57s56V/9SRtuoDRrMu1RZgu4MPAY3KHyDgTgPuBebl6P07WtVQ72crFX6rBWWo86t+59wfNNO848Qx+jmIDF32hhvrptlH/jL984SCurpEtzTLb9Sy+pIQFF5RgMCX2FUqNwz+/fThp62PeCBBrp1ipnWKjZpKFirGWYQdQ4UCch29vTcjxE8cVRcukeBuwLRe/YL70/JuBm4EH0CqSW+TcTp14TGXvWg/F1aZhDZErinaTLB9jZvx8B3PPKWb++cXUT7VRUG5EjYHPHUtoQNJ9OMTcs4sTHpIXlBqZdUYRleMs9DQFR5TKds6KIgorjKO7sI0Kkxc7KSgz0rT9xFMHT1rkpLjKdNQArnaylbGz7TRt8xPyJ/7l5tKv1NLXGkp5kbAksqBlyrOjpeyWVf2Z4TK0+k1jc+2LKTpY8dFKomF1xC/dw+nEOemSUi68sRqL/divFesf6ycweGLX8fh5Dq76Vj1ldSe21mLHi4P4XMObQqo3Kiy4oIRLv1zL2Dn2xEzbfZedq91sWelK6M90FBuYuMjBvHO1KXHLP1DBtJMLqJ1ipaDcOOxpvgFPjAd+1ELbnoDcJVJDB8xA6zCfgjZNy5NLX9CQBwdxEXA3Ws52kSaxqMoTv2tHURSmLHWO/G3Nrmf8fMebw/ohf5yWXVrl8sPbffS3ndh0o57mEO0HAlrxvSSYuNDBhPkOtq5y8fJ/egj6Ysd9WagYc+ILGWedUUjNJAsP396W9Oq5NZOsXP+TsTz6yzZadiW2h8xaoOf9t47hsV+10bjVlyuXhQLchFas9Dqk6nq6n4U/QavTkXMzA0xWHZd8SRuF3v1KYqfOGM06LrixmsknOYd90o/6glHglOvKWXJpaUKOUtV4y7AWUU9c6ODMj1RSWG5M6nHa9pwrIce6frqNsbPsjJllo7TuxJ8jIV+M+37QTHdTSO4U6XlOvA+4aOj+9Ndc+WK5PgLyReA/QIWcwxlA1RYgVk20Hr03fbhvC0aFkhoT4+c5mH9uMbPOKKSk2oyqqnj7osRH0Z9cMcYyqjUXI3l4Vk2wMHN5IX537JgZqybMczDrzKKEbNdWYGDGqQV0N4VwdY6u53PxZaXYCo/fX2E065h2SgE+V4yuxsRNI5i82ElZvZmpywrwu2NJnaKQBmPQ1qOtBZrlRpFyFcBTQ0FgzgUfzlIj136ngdop2r1twxP9CSsq6iw1cM0t9TTMGP701QMbvaMagTHb9Vz6lVpmnVGUsKNksujY+ZL7qH9eWG7kwhtrWHZV2XFHdhJh5Z1dqKN4dhVXm5i1vJDT3lfOio9VMv3UQqonWY+byn04IqE4D/6klY6DkjcjzczAJcD0oftV1qd1z9UARAfcAdyCLDDPrBgkDvvXe5mwwIG9MHEDcGabnqoJFqafWsjCC0uoHG/BaNYx2BMlOsxMIhPmO5IagLz9oTfpJCcN0210HAi852VAp1e48PM1OIoT1z4Gk45ppxQSi6ojXo9itutZ/sEKlGE+9HU6hYkLHZhtOpq2+xKSqnfMDBuV4ywoOoUJCxyYrEM/O3c4gPcDe9EWIYrUmAg8D8zNxS9XOd7Cdd9toOhtHT4v39ubkOxK1RMtXPudBoqrR9aZ5O6OjHiEtLTWxLXfaUj4CHVhhZHWPX7c3e98l9MbFBZfUsrFX6pJSErd4Xrtob5hBSCKArVTrCw4v4QVH6vk5KvLGDvHTmG5EUWXwBhahcd/3c7hbT65U2SOGcD5wCNAVh+YXHw516ENUUn2kgwVj6m07g4w64yipMyj1RsUSmvNTFrkZOGFJdRMtqI3KMcNRk57f0VCg6LjPvzKjcxZUYTRpKN9f/DNdRpLryxj+ikFCd+eosCYWXZKa0wc2uQd9ijR3LOLGD9v5IvhayZbqRxnYf8GD/ET7HCtmmB5x2LT2slWiipNHHzdm7zkBKlnAK5Cyxe/Tu4USbcYeA6t3lPOqZ9u4+pv1WN1vvWYj4TivHpf7wn/7EmLnFzxjXosjpG/QhSUG9n8X9ewr9vx8xxc/a36hHbIvF3DDBs7Vw+++Wyon27jim/UM3VZAXpDagfEWvcEjj46NLTWbtFFJZx7QzULLyyhdor1Hcc30TavHGDjE/1yp8g81cAFaOuaszYIycUA5CfAjXJ+Zjb/YIxwID6qF9sRRaM6heJq01vByCQrqgquzvA7XsAnn+Rk/vnFKW8HRadQN9XGtFMKcHVFqJ5o4ayPVCZ1IkhZvZmGmXYOvu4lEjr2W4BOr3DxF2sw20Z3qyipMVE/zcb+9Z4T6nUtrTO/51wpH2OmYowW4Ki5s4RbQatLVAI8i5R6TJZzgCfQqhnnnAnzHVz+9br3pM729kd5/emBE/rZs5YXcuHna0b9cm6x6xloDw+raOq8c4q58MaahGebejuzTU/dNBvNO/2c9ZFKzry+MmH1PEaqsMLEjtXvnBJWVmdm0cWlnP/pqjefYUdLkZtI/e1hHv1F2wl3HomkqUBLqnQPWTodK9fmu14H/Dufz0idXsFepMdi12Mw6Y6YXi8ajhMOxAkH4/hc0bQVAtTpFT7+q/EUVRpTvu2QL8ae1zzsXO0mFIjzvu83jKo3L9FUlWFPdTpRrq4ID/6khf72oy9OP/nqMpZdVXbC2+o+HOT+H7WMOovVlCVOLvly7RH/rGm7j4d/3pZraXpBW7/2EUBWfibWp9CKC+bk9Nypywq48MbqI44udxwIcPe3m0b9sxdeVMIZH6w44TcHb3+Uv32t8ajJOBQFTv9gBYsuKsnJe++xbHyyn7UP9zHt5AJmnl5I5fj0JO187Fdt7F2bpqRLCtiLDJgs2jvMkdbfxKIqkVCcsD+Ozx1Nae2wDHM38CEJQNKrAdhKntT3KCw3UjnOQkmdifJ6M8VVJhwlBm0K0QiPqt8dw9MXYbAvgqc3irs3gqc3Qk9ziIGOcFKnuCy9soxTrilLa1uqcUZVxCoXBL0xHr69jdbd752TXT3RyvtvbUjYNLmBjjD3/qAFT9/IO2vGzbVz1TePPlOmbV+AB3/SSsiXc911L6ItPPQgEuF/gO/m6pebfWYR53yy6qj3s6btPu67rWVUP/uUa8tZekXiCsLvWTPI4795b+I3g0lbAzfcrFq5KN3PpIAnxh2fOpC0uk6gjYRVjDNTVGmioNRAQbmRgjIjzlIjzlLDiEfYIqE4nr4og70R+lpD9LaG6W0O0X04OOx1oFnsg2gjIRKApMkjwKW5fIbVTbUy79xi6qbZkjYf9kgXdU9ziJ6mEF2NQboPh+hpStwF3TDTxrXfaZDXojSKRVSe+WPHO4oW2gsNfOjHY3GWJvY8G+gI8+//acY3EB3Rvxs7287V3z72VP2uQ0Huva0lF4OQNWjTsiQIOTG3At/J1S8395wizv5Y1TGf6oe3+bj/hyMPQBI1Evpuz/+9i9efemtKmK1QzxVfr0tJMhBxdIc2eXnwp60J+3lvdJiWjzFTMdZCxVgzBWWpmfkQi6h0HgrStN3Hmgd7c2m67tv1o5Wa6Mumnc6VOiArcj34AOhqDOEoNqQs+AAtrWrNJOs7so/EIiodBwO07ArQuttP297AqKe/5PGwacbQGxUuvLGGwkoTrz3Yi06vcMmXaxIefICWLvLaW+r5z/804x9BMbLhjMJUjrdw9bfquO+2llw7r5YBj6MtOpQSxKPzvVwOPmafdfzgY7jX0bstvrQ0KcEHwPIPVtDTFKJ5p5+SWhNX3Vw/6uKrInHCwRO7f5bWmqibZqN+mo366TYcJel71dQbFarGW3jtoZwNPkBbM3gL8OVs2ulcGQF5CTg1H24MJouOq75V/2ZO90wQj6l0HgzSvNNP4xYf7fsDwx66nbm8kPM/Uy13/Ayx40U30bDK3HOKkrqd7qYQ997aTNA7vCBk/nnFnPXRymH93bZ9AR74UUsuBrcvo6VflJyYI3MT8LNc/XIzlxdy3qerh7V+YbA3wp8+d3DYP3vBBcWc+eHKpO6/fzDGC//o4qyPVqak1oY4vp7mEP93U+Ow/76z1MC4OQ7GzrFTN82a0mySxxOLqjz2qzYObPTm+mELAuOBDglAUmcWsC2fbg4mq45rbqnP2GHqkC/G4e1+Grd4ObTFd/TpNgp84NYx1EyW4fZ81LYvwH0/aB5WEoQVH69k3jnDT1jUutvPAz9uzcWF6avQ1oQE5Awalq8Ct+fql5t+agEXfK5m2IunVRV+8+F9w7oupp9SwIU31uRgaUYxHP/6ThNt+458m9HpFeqmWhk31864uQ7KG8wZ+R3iMZXHf93OvvV5M3v1ZuCn2bKzudDd8AXgtHy6McSiKnvXeRk7y57S6VjDZTDpKKszM3Ghk0UXljBxgQNbkYFwQMu69YbFl5Uyc3mh3OnzVEGpkZIaM/vWHf/hcOaHK0eU776g3Ej1JAt7XvPk2rD7eGAB8CAQlbPomL6Wy8HHlCVOLvp87YgWKysKtO8PMNARPubfq59u49Iv1yalTpPIDnXTbOx6+a36KGa7nsmLnSy7ooxzP1XFnBVF1E6xZdRoxzuC7Tg88bv2YT1fckgZ8Kds2dlcuLvsAybl4w3C4tBz7XfqqRhryZp9dvdEOLjRSzQS56SLS6V3TbD+sX5W39N91D9vmGHj2u+OLlHBvvUeHvtVWy7O/b0fLe24LKI6so8Bd+bqlxsz086VN9ehN478Bnpwk5eHjrHAuKTWxAduHZMRaclFevU0h9j+gpsJC+zUT7NlTUCqxuGpP7S/I7FKHpkB7MqGHc32O8xs4Nv5enOIhlX2rfMwbq4jY3sh3hM02fVUT7JSO8UmwYcAoHaKFZ8rSteh4Hv+TNHBxV+swVkyuoWppbVmHCUGDm7Kufm/MwA7sFLOoPc4B/gXOVrno2qChau+Wf+eIoPDVVJlonW3H3fPe9NhW516rvvumLQuGhaZw15oYNxcO0UVJhRdlgQfKjzzpw52vjSYr4etHW29oAQgSXYheZD96rhByHoPE+Y701a9VYgTNXaOncPb/Hj73zmr6NRrypl2csEJ/ezKcRYMBoWmHTmXQGoZWtrF9XIGvWkm8NRQcJZzSmpNXPudhhNbrK1oo4p71niIvC3bkaLAZV+ro2qCRc4ikZ1UePbPnWx/wZ3PreAC7pMAJPk+DCzJ92suEtKCkIkLHCOaJy9EptDpFMbNtbPr5UEiIW3O8cKLSjj1uvKE/Py6qTbCwTjt+3Ju7fa5aAVY98pZRA3wAlCZi1/OUWLguu81JGTdn9mmZ8wsGwc2eN9ckH7KNWXMOqNIziKRtcHHyrs62brKle8tYQR+JwFI8n0dGCdXHkSCcfat9zBpkVPm7oqsZLbpqRxnYd86L2d9tJKll5cm9OePnW2nry1EX2s4p2I3tKxYzwFteXz6OIfaYHIufjmTVce1322gpNqUsJ9pLzIwebGT9v0BKsZYOPuTVcPOpiVEpnnu711s/q9LGgKKgV8CGf+gy/bbzUG0rDBiSEGZkeu+30BhuRRzEtkp6I0lLYiORlTuv62Z1j2JGQkxGJU3s8SkWSewGGjOw1PGgDbt6uyM2qkEnRs6vcKVN9cxdnZyZpXFYyrRsIrJqkOIbPTiP7vZ8ES/NMRbpgO7M30ns/2OY5Pz7J0GeyP85/vNR1xgKEQ2SOYInsGocPlNdZTUnHhPsqLA+/5nDPaijFiwWwU8CuRjUZ0fZ1rwsfDCEmaekYAU4wqcc0NV0oKPNwIcCT5Etnr53h4JPt4rK54DOmnk3AxCHv91O6jSFkIcKcC58uZ6bIUnFuiU1Zu1jETfqs+UaY9zgV/l2eG8FK3YYMaYf34xZ1xfQc2kE388LbuyjFlSK0mII9q71sPah/qkIbL03Tjbp2CFAFMm7dCxspMYTAoG09Gb3HyEf6s3KG+mWzQY3/r3Jpseo0n7M7NNh9Gsw+LUU1BmxFlqwFlikCJSQhxDx4Eg997aPOpq6XNWFHHOJ6sA6DwY5L7bmgn5M6Isx8eAv+XBIZwEbAAy5g199llFnPvJKlDA1RXhL184OOqfNXN5Ied/ulrSlQtxDEFvjMG+KJ7eCD5XlIA3RjSsEgnFCQfihINx4lGtNzbo0+7PalwlFHjvvToWVolG4sfY1tH/LBqOZ8p0XNBSkWd8ivZsT/YdSHYAojcoXPvdBkrrTENBgO6YQYQQIjtUT7Rw0RdqeOQXraMqVFg75a1OpqoJFq68uZ4HftRCOJj2IOQOtMxYm3L48NmBhzMp+JhxWqEWkA49HooqjdgLDfjcIy9YP3a2nXNvqJLgQ4jjsDj0WBx6KsaYM3cnVQj6Y2/+9onfttO4xZfsd+OMl+1TsDqSvYFYVGXVXV3aCINdL8GHEDlk4kIHZ3+8alT/tnaK7T0ByZUnUCAukc9k4CGgNIcP3R1oxRgzwuTFTs779HuzSNVMHvlMiLI6M5d8qUZGsIXIFYo2O8Zi13NgozfZwQdoxQglAMmFRu4+HGTN/b1yEQmRg+asKGLRxSUj+jeOEgNFle/NNFc31cqlX6lFb0z7y+MY4M4cPWSfBa7PpCD24i8eOWComzayAMRZauCqb9UfcTquECK7uXsiPPe3rlRsqlMCkOTrSNWG1j3WR+sev1xBQuSg0z9QwZSlzmH//QnzHUf9s3Fz7Vzw2YyYu38pcEOOHappwO2ZsjN102xc8qXao45WTFjgGPbPMtt0XHlzPc5Sg1yQQuQYNQ5P/b6DcCDpU3RdQFa8rGZ7ALI7B08eIUSKKQpceGMNY2YOL93ppEXHDlamLivg1GvKM+Gr/ZLcKc5nAP5OhmR4Kao0Hne0q7jKRGnd8eem6/QKl3y5lvIGs1yMQuSgFHZi78qWNsn2AGRNKjeWwuEzIUSK6Q0Kl33t+C+BJouO+hnHL0G05IpS5qwoSvfXsgP/AnKhMumtwKJM2BGLQ89V36zHVnD8qVITFx5nFESB8z6d3FofQoj0SfE0/jXZ0i7ZHoCsB6Kp3OCO1W72rvXIFSVEDjJZdVzxjTocJUefBjN2jh3DMNd4nPXRSuqnp71e6gLgW1l+aE4Gvp4xgepXaymuHl4CxuMFIKddV86M06TWhxC5KBpWeeK37cSiKUvR+5oEIKnhA7aleqMr/9qJzxWVK0uIHFRQZuTKm+uPWh16JIXh3nhZTUTl9RN0C7A4Sw+JA/g/IP0rsxU491NVIwoqayZaKa098vGfd04xiy8rlYtOiBz10r+76WsLp3KTEoCk0DOp3mDAE2PVXTIVS4hcVTHGzGVfq0VveOdIR3GViXHzHCP6WRaHniu+UYfVmdb3ZwPwD7KkQu67/AqYmAk7svTy0pGPVigw79zi9/zviQsdnPXRSrnYhMhRbfsCbHp6IJWb3EYKkzNJAAJ3p2Oj+9Z52LdepmIJkavGzLRz3rsqUS+9svQ9tR6Go7jKxGVfq0t3et7JwLez7DCcDnw8E3Zk6rICThllYoFZZxbhLH1rGU7NJCsXfaEGRSfXmRC5KBpReeaPHaipLY7+r2xqo1xINt4LXAmkvCupdXeAWWcWYjDJU0SIXFQ+xozBoNC0w0/DTBvLP1Q5qgAEtKldBWVG9m/wpvMrLQMeJzvyxJuH9jXt6cSqJ1q4/Ka6URcH1OkViqtN7H51kOJqE9d+pwGzTWp9CJGrXr2/l/3rU3qvV9HSrrskAEmtIuCsVG80EowT9MSPn+VECJG16qbaMFl0nHpd+QlXOa8YY8HvjtJ5KJiur6MD5gN3DT2wMtn30DqX0srq1HPNLQ0nPIWupNqEo9jAsivLcJZIrQ8hclVvS4in/pDy0Y9X0aarZo1cCUAagRvT8X26DwcZN9chDxQhcljtFOsJBx9vGDvLzqEtPnwDaUtkUQt0AxsyuMmnA/9M+zNKgYu/UEv1pMQsnakab8HikJEPIXLZk7/vYKAznOrNfg/Ykk3tlCtzh9rQFlimnKrCqjs7Ux3pCiGylN6ocNlXatP9IvpjoC6Dn0t/AtKeOmzJZaUywi2EGLa9az0c3uZL9WZbyLL1H7kUgAD8BIilY8Odh4LsfMktV54QYlgKyo1c8Nl3LnBP9S4Av87Q5vk4cEq6d6J+uo2Try6Tk1UIMSzRsMrqu7vTsemfA+Fsa69cGgseAKYAs9Kx8Y79QeaeU/SetJ1CCHEkJTUmIoE47fsC6dqF6WhVcw9lUmwGPIxW+yNt7EUGrvl2vSwUF0IM29qH+9KRZKQbuJ4UF+VOhFxL3/Rqujbsc0VTne9ZCJHlTnt/OXVT01qa4+dkVkfU90hDRsO3UxS44HPV2ItlXZ8QYnhCvhgbn0rLO+AmIJCNbZZLAUjJ0MMrbdY91k/IF5MrUQgxvBuwXuGiL9RiK0hbDDCHDKmzgVZs8HPp3olTri1n7Gy7nJxCiOG//z2atve/84CLJQBJr18CFemOgF+XURAhxAg4Sw1ccGNNOteD/AAozICm+DVa7Y+0GTfXzuLLSuWkFEIMm88dZdMzaX33+z1pnraazwHIcrQ5cGm38cl+gl4ZBRFCjODFd46dBecXp2vzFcAtaW6Cs4AL07kDtgI953+metSFJoUQ+WndI31EQvF07kIDWkeSBCApZgL+TDr7D98m5I+zZZVLrkghxIic/v4KyhvSNgDwBWBCmratB36b7vZf8fEq7EWy7kMIMXxBX4xtz2VEFtTPA3MlAEmtG4FJmbRDm58ZIB6TwiBCiBG8hRsVLvhcdboy6ZmA76fpq1+PlpErbWadWcSUJU45CYUQI7LtOVe6Rz/efIQgldBTqhi4H7Bl0k6Fg3FKa83p7M0UQmQhe5EBRa/QvMOfjs3PBB4FulIc+Nw3dC9Pi8IKI5d/rQ69UeZeCSGGT43DU3/oIOSLZ8oujQVeB/ZlQ/tl+wjId4CMXDH4+lOyGF0IMXKLLymlemJaUvPqSP0oyA3A+LQ1tgLnf6Yak1UnJ54QYkT2rffg7o5k2m79HDBKAJJcDWRAysaj6TgQoONAQK5QIcTI3ol1cN6nq9LVI38pcFKKtmUDvpXOtp67ooj66TY56YQQI5ahtd+mAh+WACS5voQ2fJ+xdq4elCtUCDFiZfVmll6elsFdBbgtRdv6AlCdrjZ2lBg47X3lcrIJIUbM3ROhda8/U3fvpmx4v8/WAMQJfCLTd3L3mkFiUVmMLoQYucWXlVI5zpKOTZ+Nlto8mQqGHpJpc/bHqzDb9XKiCSFGbNdLbsjc17vJwPkSgCTHFUNBSEYLemMc3uqTK1UIMfKbs17h3E9VoaTnLv3tJP/8zwEl6WrbGacVMnGhQ04yIcToApBXMn6GS8ZPw8rWAOQDcpIKIXJd5TgL885NS4KoFSRvLYgV+GK62tRi17P8gxVycgkhRqXzYJD+9nCm7+bFaCPNEoAkkA04LVt29sBGD+FAXK5YIcSonHptOY7itBTIuzlJP/cTQGW62vO095djK5SpV0KI0cmSjmULcIYEIIl1CpA1BTaiYZVGmYYlhBglk1XHGdenpcf+MmBGgn+mEfhautqyaoKF2WcVyUklhBi1Axs92bKrZ0kAklgLs22HZR2IEOJETF1WwLi59lRvVgG+keCf+SG0FOopp+jg3BuqUKTeoBBilPrbwplY++NoFkgAkliTs22HG7d68+8qVcHvjsndSogEOfPDlej0KX97fh9add1EPW++nq72m3dOMRVjLXIiCZEAkVCccDD/ppdn2YyWqRKAJNbYbNthT1+U3pZQfl2lChgtCgc3eXn9qQEGOsMIIUavpMaUjgXpBuDzCfpZ5wNT0tF2FrueZVeVyUkkxAmIRVQObvKydZWLgY4wJosu79ogyzqUS8jgheiGLDz+WZk7sXGLj7J6c15dqEazjgnzHQS9MTY9M0DzTj+TT3IyZakTe5EBIcTILLuqlF0vuwl4Ujq6+Angf4ATXXn5pfS1WxlWpyw8F2KkVBXa9wXYu3YQV2eEBRcWM2dFUV62RTSi0ro7kG27bUvAvTspsvGO/EUg6eVr9QYFs01PNJyYSjOKDqafWpiXF63BpKN+uo1xc+zsX+/l6f/toG1PgHgcCitMGIwyKVuI4V5LBpOOxi0pnQZgBtqB9SfwM6YDt6OtK0mpkhoT53+2GkUn9xkhhqvjQIANj/fzzB87adnpZ/aZRZx8dRlFFaa8bZPW3QG2Pe9KzDumUcFs1RONJL2a4f8CA5nYntl4R15H8vLTv0mnV/j4r8bjLDHgH4zi6Y/id8fwDkTxu6MEfTGC3jhBb2zov2MEfXFiQyeTwaRgtuspKDNQPdHK3BVF2Iul1x/A3R3h1ft72fWKG71eYfw8B9NOKWD8fIcEI0IcRzym8n9fP0xfa0qnde5Hm0882knffwJuSEd7XfGNOibMl6KDQhxPb0uI3WsG2fPqIK6uCMXVJk6+uoypywokeQOACnteG6Rxi4/e1pD23ud965Zotuuw2PVYHHosDu2/rQ491gI9tkIDjmID9kI99iIDFoeex3/Tzp41SR+cqAB6JABJjCeBC1KxoRmnFXLB56rlokuSvtYQr9zXy771HlC1dKOTT3Iy/bQCGmbY5YYnxFEc2Ojl4Z+3pnqzFw3df0eqGGgBUp7Gq366jeu+1yAnjBBH4e2PsusVN7teHqSnWevUcJYaWXZVKTNPL0xH4ou80NMc4u9fb0RN7gBIHDABGZkRKBu75DtStaFdr7hZclkpJbUmuVqSoLTOzKVfqaWnOcRrD/ayd62HHavd7FjtxlFiYMoSJzOXF1ExxiyNJcTbTFzooGaylfZ9KZ2P/PlRBiCfSEfwAXDa+8rlZBHiXaIRlYOve9n5kpvGLT7iMe0t2OrUs+jiEhacX4LBJIFHMr16X2+ygw+A7kwNPiA714A0kKIREFTwuaJMXVogV0sS2QsNTFlaQMMMGwOdYTx9UcKBOB37g2xd6aJxi5dYVKWo0oTRrJMGEwIoqjSxc7U7lZscD/wDcI3g3yjAXUBpOoK0ky4plRNFCLTF5K27/ax5oJdn/reDXS8PMtARRlXBbNez9IoyLv5iDWNm2mXUI8na9wV48Z7uVGzqZeAeCUASxwB8PFUb62sLUzPJSnGVjIIkW2G5kVlnFFE31UpvaxjfQBTQhogPbfbx+lMDdBwMotMrFFeZ0MmiUpHP10uFkfZ9AVxdKSuKpQBe4IUR/JuzgC+num0UBS7+Uq1k2xN5b7AnwpZVLp6+o4ONTw7QfThELKp1vRvNOuadW8QlX6pl/Dw7eoM8U1MRCD76yza8/dFUbO4+4PlMbYtsPNssaAtqUraqsKTGxEd+Pk4uzpRepbB3rYeX7+1hoOO9NUSsTj3TTi5gxmmFVE2Q4mIiP3UeCvLPbx0GNWWbbAfGAMN9ev4HuDbV7TL91AIuvLFGThCRl4K+GHte9bDzZfcRp2nqDQpzVhSx5PJSCdJTbPN/B1h1V1eqNnc+8EymtkU2joBEgfloaR1TIuCJoTco1E+3ydWTwtC4rN7M3LOLcBQb6WoMEnlb1dVoWKXjQJBtz7nY+9ogkVCcokpTXhZGEvnLUWyg62DwiEF6kjiBzcCeYfzdMuDPpHitoaKDS75UK3U/RF5R49C4xcvL/+nhv3/u5MBGL56+6Hueq9NOLuDSr9Yx/ZQCeV6mmHcgyqO/bH8zW2qSuYHPImtAEs4IXJnKDbbuCTBujgNnifQWpPZlQqFqgoW5ZxdhsuroPBh8z8Ub8MRo2u5n41P9tO4JYDDpKKk2Sd5/kReKqoxsez6la0EKGd684s+h9cCl1NSlBcw9u0hODJEXPH1Rtqwc4Kk/dLD5WRd9rWHUIyTLHjPLzqVfrmX+ecVYHBKcpz5ChMd/005vc8rSpz8K3JvR73dZeihtaGkdS1K50ZJaE9f/eKwshE6jgCfGhsf7ef2p/mMW8LEXG5h5WiGzziyU9Tsi5933gxaadqSsOGEcLRlI23H+3nZgZqqfaNf/eCyV42RapshdsYjKgaEsVoc2e48YcLyhrN7Mae8vl1o4afb6UwM8//euVG7yAuDpTG6TbA2DI0AVsDTVL78BT4wJC+RCThejWceYWXamn1JIwBOjt+XIvQmRYJy2vQE2/XeA1t1+9HqF4mqTZPcQOamg3MiO1GXEUtDWgrx2jL8zH/hOqtthwgIHiy4qkRNC5KSe5hBrH+7jqTs62PmSW5t6eZR+uKJKI2d/ooqzP1ZFSY10wqVT9+EgT/y2nXjqJkPtR0v+oWZyu2Tz29hY4EA6gqhzP1XF7DOL5KrKkAv7pX/10Lj1+L2/Frue6acWMOtMqS0ics+/vttE296U1QXZCsw9xp//CvhSqtvggz8cQ/VEq5wMImeEA3F2vzrI9hdcdBwIHvfv2wq1lLpzVhRJ4pwMEPTG+Mc3D+PujqRys18AfpfpbZPtZ+e/getSvVG9UeF932+QB10Gad7hZ/U93XQeCg7r71eNtzDrzCJtIZ5VptSJ7Ld/vYdHftGWyk3OAbYd4f8bgFagMpU7UzfVxvv+R6qei9zQti8wlGTFQyQUP+7fN1l0LLyohEUXlcgzLUOocXjgxy0c3uZL5WY7gUloKdMlAEmiCcButEXpKWUr0PP+W8dQXC1Dm5lztcPedR5e/k/PsLMCmaw6pp2sLVqtGCvzxkV2P+z++qWDqawLcjtw0xH+/wWMrmL6Cbn0q7VMPskpJ4LIWm+MdmxZ6aL78PA603R6hVlnFHLy1WWSUjfDPPe3LjY9M5DqzX4OuCMb2ifbUyEMoPWynZTqDUdCKoc2e5m6TFLZZVI4XVanpe51lhjpfFfq3iOJRVW6DgXZusrFwU1ah0FZnVnWiojsO/0VUGOksretAfj1Ef7/LWijIylTUG7knI9XochlK7JQf3uYDY/38+TvO9i71oPPNYwyOwpMWeLksq/WMvP0QnkPyTBrHuhl/WP9qd5sI/AxMjj17rtO4axXgTYKkpaVh1XjLVxzSz1mu6S1yzThYJyNT/Sz4fF+wsH4sP+drUDPzOVFzFlRRFGlURpSZI2QP84fP3uAcCCeqk0uAja+7fcGtCkApan83ss/VCGLz0VWiUVU9q33sOVZF617/COL/GfYOP2DFVSNl1H7TLT52aFig6lfAn4F8HC2tFMuvDX7gF7g0nRs3DsQpXlngClLCzAYpfsto07uoeKRs84oJBSI090UHNYNIRJSadsbYPMzA7TvD2Cy6imuMknvqsh4BqOCbyA6rMWqCdIDPP+2358BfDqV39lk0XHhjdUYTNIDLDKfuyfC+sf6eeoP7ex8aZDB3uFPmSytNXH+Z6o59X3lOIplulUm2rrKxco70xJ8PAF8N5vaKldeqRTgv8DZ6dqB6olWrvpmnRT4yWC9LSFevLubxi0jn6JSUGZkzllFzDqzUObZiow/z//2tcZUbW43MP1tv/892hzklJl9VhHn3lAlB15kLFWFxs1eNq900bjZizrCl1NboZ6Trypn9lmFMj04g21Z6WLlnZ3pCD7cwAyOX5tJApAkGY+WkcWerh0orTNz1TfrKCiTaTuZ7PA2Hy/+s5ueUVQk1RsUJi92suCCEqonyvC3yEz3fKeJ9n0pS8k7Ddgz9DxpBupS+V0l9a7IVCFfjG0vuNn834FRpWE1mBQWXlDC4stKJbNVhnv1/l7WPNCbrs1/EvhrtrVZLnXXDwAdpGkqFkBgMMae1zyMmWWXXvIMVlRpYs7ZxZTVm+k4ECTkH/58eTWu9TBve15btG4wKZTVmVF00islMsvB11OWhbEdeAUtGchXU/kdy+rNnHpduRxskVkvI51hXnuwl6d+38HBTV5CvhGuyRpaYH751+qYvMSJXqZ3Zyw1Dqvu7GTDE/3p2oUngK9nY9vl2nyhLWgjIXPStQORYJw9azzUTrZSUC4jIZlKGcqYNWdFESarjo4DQWLRkY2b+gai7N/gZdtzbiKhOKV1Zoxm6aUS6VdcbWLzfwdGfE6PUgHwF+BG4JRUfs8ll5dRM0lGP0QmvIlC0w4fz/+9m+f+1kXH/uCorr+ayVYu/lItiy4qwSLJbTJaLKLyxO+0tTxp0gKcBwSysf1yMay2AxvQpgWkjcGocN5nqpl2coFcpVnAOxDllft62fGiCzU++mM+7dRCFpxfTHmDVFoX6fXfP3Wy7XlXil69GAM8C0xN1ffTGxU+878TsTrlJU2kTzgYZ+dLbjY9PUB/e3jUP6ek1sTp769g4kKHNGoW8LmjPHp7G2370vbuHwVOB9Zkaxvm4p07gpYG8pp07kQ8DvvWeQj5Y4yd45AMShnOZNUxcaGDKUsLGOyJDLuQ4buPeXdjkC0rXTTv8GGy6impNsn0LJEWFruOHS+6U7EpBTAD56fy+01c6GTW8kI50CIt3N0R1j+q1e7Yt85DwDO60gtWp55lV5VxwedqKKuTjqts0NMc4r4ftNDTEkrnbtwD/Dab2zFX34z+A1ybKTszcaGDC2+skUVkWaRxi48X7+6m9wRvMEWVRuadW8zsM4vk+IuUUlX442cO4B2IpmJzcSClJ/jFX6xh6jIZYRap1bLLz+tPD3Bgo2fUo+WgjZgvuLCExZeWYrbJsyFb7F3r4ek7OoiE4unelV60kWd/trZlLo6A1AN/SvXD8Fj628Mc2uRl3DyHzOnMEsVVJuauKMZRYqDjQIBIaHRz6YO+OIe3+tjy7ABBX4yyOrMEIiIlFAU8fRE69qekJkhKO7OMZh3n3FCF3iCjiyIFwXwc9g29eK59pI/+tvDoU60qMHVZAZd/vY7Ji51SPyxrTgJY82Avq+7qIh5VM2GPbEATsEkCkMzxGeCcTNspvzvGrpcHqZlslTS9WfQCVzXewtxzijEYFdr3B0bd4xWLaMUNNz0zgKszQnG1CVuhZEoTyWW26dn+gjvnvtekkxxMP0WmX4nkikVUdr86yOO/aWfLStcJjyZWjrNwyZdqWHRRCWabdEZm03nw9P92sOnpgUzbtULg/7L2HSsHz5XXgfkZG/EZFc77VDXTT5WpA9lmoCPMy//pYe9aT0J+Xt1UKyddWsqE+bLoUCSJCn/+/EHcPZGc+lqXfrWWySc55fiKpPAPxtjy7ACbnhkY9dqOt7M69Sy7sox55xajyAB4Vgl4YjzyizZad2fkTKc40ECWFSB88304x86VEuCXmRxYqXHYv8GDXq9QN80mV3cWsTr1TFlaQM1kK12Hgif8YBrsjbL71UEObfZisesprTFLsgKRWAq4uiN0HAjmzFcyGBXOlelXIgkGOsO8cm8PT9/RQdN2P9HwiU210RsVFl1UymVfraVumk3u71mmvz3Mf/6nmZ6mUKbuogJsRivCLQFImp0NvD8bdrR5h3ZzGzvbLld5limuMjFnRRE2p4GO/UGikRN7SHkHouxd62HXK250eq2wobxciYQ9oRSFXS8P5sz3GTPLzqwziuTAioTpOBDkhb93serOLjoPBomf+KAHExc6uPymOqYuK5BCglmou0nLdOXpj2b6rvaiFSOUACTNrgbOzJadbdsbQFWhYYaMhGTdS51OoXqSldlnFhEJqnQfDqGe4Lq0oC/Ooc0+tq5yEQmplDdIYUNx4pylRl5/coB4TM2J7zP/vBIpPihOnAqHNnt55k+dvHJvD32t4YT82LJ6Mxd9oYYll5dhdcg6j2w00BHm3v9pxj8Yy4bdDQF3SQCSfh8F5mbTDrfu9lNQaqBynEWu+ixkNOsYP9/B5JOcDHREcHef+Fz7aFilZZefLc+6CPpilDeYMVkkEBGjo9MrtO8LjKq2TSY666OVUnxQjD7uULUaXU/+voONT/Yz2JuY9VFWp57lH6rg3BuqKK4ySUNnqaA3xr+/34w380c+3mAGbpcAJP0+BUzKtp0+vN3HpEVOyYqUxWyFBmacVkjlOAtdh4IEvSfecxKLqrTvC7D52QH87hhl9WbJnCJGJeSPc2izN+u/R1GlkZOvKZcDKkYsHlPZ/aqHJ37TxpZnXfhciXnB1OkV5p1XzGVfqaV+mk0Kz2a5J37bQfv+QDbtsh24jdEnhk6bXHvjzcq5TNGwyqq7urjuew1y9We5iQsdjJtj5/Wn+3ntoT7CgXhCzo9NzwywdZWL6acVsuSyUooqJZWzGL4xs3NjmueYWbJmToxMLKqyc7WbdY/24epKbDa4sbPtnPmRSkprZcQjFxza5GX/Bk827roF8EkAkl4p6R62OvUYLToGE5jaMhqOEw7EpUhdLpyERoWTLillxqmFvHh3N7teHUxI30QsqrL9eRc7V7uZutTJkstLKa0zS4OL4yquMmEvNOBzR7P6e9RNlfVyYrjPVJVtz7tY/1g/nr7EBh6F5UbOuL6CSZIKOqcM9kbRGxRiCSo0qDcqFFeZ6G1JehatrHyXz7X5HFeRgilYahyu//FYZpxWiLVQTzSsag/2UZyzjhIDp72vnHM+WS0VUXOMyapj8mInY2bY6DoUxO9OzII2VYWe5hBbVrroaQ5RUm3CXiTT98Sxte8L0NeW3etAzri+AotdpiGKowsH47z+1ACP/7qdvWs9CRmFfvMtz6iw+PIyLv5iLeUN0vmTa6omWJi8pABXVxj3KEfL7IUGJi5ysPTyUs69oZrOg8FkByBx4BaycApWrr3x3g18IBUbmrm8kPM/U/3m70O+GC27A3QcDNDbHKKnKYR3IPqeSFpvUCitM1M5zsyUJQWMnW2XwkR5IB5T2fKsi1fu7yXkiyX8Kh4/T7vh1UyW7EDiyDY+0c8L/+zO2v13lBj4zP9OlAMpjijki/H604krHvhuExY4OPPDlTL9NU8M9kbY9dIgLbv9dDcduQPR4tBTUmOivMFMxRgLddOslNW/FZj2NIf4+9cbTzhD5nEMoNXAyzq51m16IFUb2vmSmwXnF1MxVsteZbbrmbjQwcSF76xqHfTGCPq0HhiLXYfJqkOnl5GOfKPTK8w/v5gpy5y89K8edqx2J66/QtXmrh7a5GXcXDunXFNO1QTJqibeqWZKdgenMv1KHEk4EOf1p/rZ8ORA4jt30BIfnPWRSsbPd0hj55GCMiNLrihlCaVagOuPEwnGiUZUDEYFa4H+uPW6Xvxnd7KDj5S+90oAcmx7UrUhNQ6r7uzi/beOOeY4ksWhxyK5wMUQe6GB8z9TzZyzilh1VxddjYmtUN24xUfjVh8TFzg4+eqyNwNkISrHWRI6vznlAdQkOZfFWyKhOJueGWDD4/1JGfEwmnUsvqyURReXyPRogdmmw2wb/nSVvWs9HN6WknXhe7K1TXPtzdgHfDFVG/P0RXFKDQ8xCs5SI7PPLMJeZKB9f4BoOLEvhf3tYbY+56KvJURpnVlSPAt0OoW9az0JW4uUaosuKaGoQrIN5bs3sgI+9qs2Dmz0JvzeCTD5JCdXfL2OiQsdMmNBjFjIH+fhn7cldP3RMfwVWC8BSPq5gI8BhanaYPMOP5MXO6UwlhgxRdEWvc05q4hYVKXzYDDhy8j6WsNsXemityVE+RiLnKd5rnVPIBUZWZLi9A9WSEHOPKZlAXTz6C/b2LfWQySU+MCjuNrERZ+vYckVpZgl2YEYpWf+2EHb3pTVErkZyMrFfbl4hU0HFqRqY/GYSvv+ADOXF6KTAkRiFAwmHePmOpiwwEFPcwhPX+JTpfa1htny7AC9LSEqxkogkq/628I07/Rn3X5bnXpOkQKEeSkeU9n1yiCP/aqNnS8NJqVX2WjWsfSKUi76fA0lUtNDnIAdq9289mBfqjbXDnyTLMyAlasBSBD4UCo36BvKdjV2thTJEqPnKDYw+4wiiiqNtO4JJGVqQV9rmC0rXbg6I5SPscj6pDwT9MXZs2Yw6/a7ZpKVmacXygHMI6oK+9Z5ePSXbWx/3v1mMpdEm7DAwZU31zFxoVOmW4kT4uqK8PDPW1O5zu4u4Olsba9cnBj+AtpwVEUqN7rh8X7GzLJLECJOjAIzTitk7Bw7L/6jm12vJP5lMR5T2fmSmz1rBpmzooilV5ZhK5BAJB+U1mVn725prdRcyJ/IA/au8/DKvT30tyevbk1BuZEVH61kwgLJbiUS81x9/DcpW/fxhnuzuc1y8a0jDhQBp6V6w4e3+ZiyuEAKZYkTZrJoRQzrplpp3x8k6E38wmE1Dh0Hgmxd5SIeVakcbzluWkGR3YxmHWsf7su6/Z58klPS8OaBll1+Hv9NO68/lZzMVqClRF90cQmXfLn2HTUbhDgRq+7q4sBGbyo3uQWtAKEEIBlmD/CFVH+/SEilcZuP6acUYDDJYklx4ooqTcw9uwijWUfbngDxJHSuxKIqLbv8bHvOhapC9QSrTEXIUTq9wuZnBpIyvS+ZZp5RJJWnc1hfa4hVd3ax+p4evP3RpG2ncryFK26qY8bphdLZIhJm/WN9rHukP9WbvQXYLAFI5vEAE4E5qd5wwBOjfV+Q6ScXyEucSAhFp1A31ca0kwvpbwvj6ookZTvRsErTdj87Xx7E6tBT0WA5Zo0bkZ12vzKIL8tS8S44v5jCcqlAnXMP6r4Iq+/p4b9/7qS3JXnTrcx2Pcs/UMG5n6rGUSIpyUXi7F3rYeVfOlO92Q7gk0A0m9sul+cK7QA+C6R8KGKwN8JAZ4Qpi53yAicSxuLQM+O0QsrqzbTuDhAJJWeuacgfZ/8GrbJ6cZWJwgp58cslB1/3MdAZzqp9XnJFKVZJmJAzgt4Yax7o48nftdNxIJjUHD5Tlji56pv1NMy0ocjzWCRQ58Egj9zelo7irt8E1mR7++XyHb0fGAPMT8fGe1tCxGMqY2bKonSRWGV1ZmadWUjIF6c7wZXU3847EGXnS246DgQoa7BgL5Kew1zQstNPVxLPm2Q47f3lMmUmB0RCcTY80c9jv2qjaYc/KVNK31BSY+KSL9Vy0qWlGKV+jEj0C2ZbmPtuaybkj6d604fR6t3Fsr0Nc71LaS1wA5CWUuWtewIoCtRPl8WTIrEMJh0TFjgYO9tO58FgUqtbuzojbFvlwtUVoXKcRQp0ZXsAsstP+/5A1uyvosCp15bLaHIWU+Ow/XkXj/6ijQMbvMQiyesxNhgVll5ZxkWfr6G4Wmp6iMQb6Ahz763N6ZrK+nG0GT5ZL9ffJHxABDgnnQ97vVGRDC4iKZylRmafVYTRpKNtX4B4Eu+HPU0htq50EQ2rVE+0So90lmrd46d1d/YEIEazjiVXlMqBy1JN2308fHsb219wEw4mt7e4frqNq75Zz+TFUtNDJIerK8K9tzYnNVnCMbyAVvk8J+RDV+YG4AKgJl070LxDghCRPG9fpN7XEsbdHUnatuJxbWRv23MuDEYdVROsMq86y3TsC2ZVNXSzTcdJl0gAkm0GOsKs/GsnL/2rB/9gLOnnyPIPVLDi41VYnTJCK5JjsDfCvT9oZrA3LcFHCLgU6JEAJHvEgXVow1Zp+77NO/yYrTpqJlvlKhZJ8cYidUexgdY9/qROc4iGVRq3+Di42UtpnYmCMlmoni06DwU5vNWXNftrdRpYeGGJHLgsEfLFePneXp6+o4Oe5lDStzdxoYOrbq5nzGy7dIaIpHH3aCMfyezgO45vAo/mUpvmS1dBF1o2rDPSuROHt/lQVWiYISMhIkkUqBpvYcZphbi6wkmtJAzgG4iy40U3fa0hqiZYpQhnFuhuCnFokzdr9tdeZGD+ecVy4DJcPKaydZWbR37RRvMOP2qS1+baCw2c/9lqTrm2HJNVFpmL5OlrDfGfW5vx9KYt6+1raOuZ1Vxq13x6W3gZOBUYl86daN3txz8YZfw8h/TWiKQxWXVMO7mAqgkWWnb7CQeS+zbQ1xpmy0oXAW+M2ik29EY5uTNV294AjVk0AmK26lhwgYyAZLKmHT4e/UUb2190p6TI5ZQlTq78Zj1VEyzS+CKpOg8Fuf+2FnyutCWdcqOtY+7PtbbNpwBEBZ4HrgfSOgTReTDIQEeYiQsdKDp5URPJU1JtYvYZhQR98aSnXlXj0LE/KOtDMlzzTj/NO7JnDYjeqHDSxbIGJBO9Y51HCjICFVYYueRLtSy+rBSjWUY9RHK17PLzwI9aCPri6dyNj6F1oOecfJsvMQhsA64jDQUK3663JUTXoRCTFjkkm5BIqjdS9tZOttK2N0AoyTfTN9eHbJL1IZno8DY/rbuzJwBRdApLLpMAJJOEfDFe/k8vT93RQW9LKAXnACy8oIRLv1JLaa1ZDoBIun3rPTxyexvRUFpnPf0GuD1X2zgfJ2wfRBvSOj/dOzLQGaZpu59JJzmlN0ckXVGliTkrilHjaHUgknxf9bm09SFdjUHqptow2+QczwSHNnlp35c9aXjjcZVlV5XJgcsQe9d6ePAnrTRt19Y0JltZvZkrvl7HrDOKpLNOpMTOl9w89fsO4tG0Bh//BT6ClkhJApAcsg6oABale0e8/VEOb/Mz6SQHJqnWKpJMp1cYM8vO2Nl22vYGCHiSP21ioCPM9hdcGM0yLSsT7FvvoetQFlVCV2HxZaVS1yHNeppDPPbLdjY80U8klPx3Ip1eYckVWkFBGUUVqbLh8X5W3tWV9CQKx7EHrZPcn8ttnc8pa54FlgHj070jPleUfes8TFjgxOKQLEIi+d4oYKjGUjMaEoto07IObPRQ3mCRF4o02rrKxUBHOKv2edbyIrk3pkkkFGfdI3089fuOlKUgLaszc8XNdUw/pQCdrJMUKbLu0T5W35P2Mht9wFlAe663dz7f0eNoOZUvQRsNSauQL86+dR7GzbFjKzTInUAk3RujIQ0z7bTtCRD0Jn80xOeOsf1FN56eCDVTbDL1ME0P2VQsGE6kSQudFFZI0Jpqu18Z5MGftXLwdW9KeoQVHSy+tJSLvyCjHiJ11Dis/Gsn6x9Ne6KpyNA76aZ8aPd871IKAa8Cn86EnQkH4ux51UPdNBsFpXLzFalRUDY0GhInZWsDug+H2Pa8G6NJpmWl2kv/7klqkcpkqJ9ho3KspFxNlYGOME/8tp31j/cTCaZmLkpRpZHLb9LWesh0O5EqsajKE79rZ+dLg5mwO7cCf8+XtpcxbZiAViU9I0QjKnvWeKgcb6G4yiRHR6TEG6MhY2bZaU3RaMib07Je91IxxoxTgu6kCwfivHp/b9btd+U4C/XTpYBrsr0x3eqJ37WnbpqeAnNWFHH5TXXyzBMpP98f+UUbBzZmTGHWdcBzEoDkj4uBCzNph+Ixlb2veSipNVNWJykHReoUlBmZubyQkC9GZ2NqFiq/kS3L0x+ldrJVpmUlUV9biK2rXFl5Xk46ySkHMIn2vubhoZ+1cmCjN2ULcIurTVxxUx3zzimWDFcipYLeGPf/sJWWXRm1ztsD3CMBSP74CBmQDevd1LiWrcZRYqBynEw9ECm8KRgUJsx3UDfFSsuuACF/at5GuhqD7HjRjaPESHmDBN7JcHCTl4Ove7Nuv+NRlXnnFssBTILB3ghP/LaDtY/0EQ6k5lpXFJh/fjGXfrmWokoZ9RCp5RuIcu+tLXQfzrhsgGbg1xKA5I/PApMzcs9U7YXBVqCneoJVjpRIqaJKE7PPLMI/GKM7RaMhkZDK/vUeOg4EqJ1qw2KXW1QibVnpoqsxmHX7HfTGWHBBCQaj9JIn7PGiwuZnBnj0l230toZStt3CCiOXfa2OuWfLqIdIPW9/lP/c2kx/e0ZmAnQAPyTpeSklAMkUNwFVmbyDh7b4sNh01EySIESk+AZhVJi40EHNJCtNO/0pW5Dq6oyw7Tk3ig5qJ9tkkXqCvPKfnqzLgPWGMbNtFFVIb3ki9LaEeOTnbWx73kUshcXWpixxcuU36iiRauYiDTx9Ee69tYWBzoxNQ64D/ow2FUsCkDxwC1CQ6TvZuNWHXq9QN00WYorUK64yMePUQvrbwylbnBqPqTRt93PgdS/VEyw4iiU99YmIhOK8+M+elFSvToaSWjN1U+X+d6LX1PrH+3niN+0M9kZStl2zXc/5n67mlGvLMZhkjZdIvcHeCPfe2oyrK5Lpu/pPoFMCkPzwLSArnmrNO/1UT7RQXC29gCL1jBYd05YVYCvU07IrQDyWmjdZnyvK9hfdxMIqtVNtkqJzlFp2+dm52p29DyuDwvRTC+VAjlLrbj8P/LiVPWs8Ka3yPHa2nWtuqad2iozgi/QF3vf+oIW+tqwowPo3oE0CkPxwC9rCn8ylQMMMG2d/sorxcx1yxERaz8XqCVYmn+SkfX8A30A0JZtVVWjdE2Dvax7KG8wUlkvK3pHa+OQAnQeDWbv/nr4oC84vQS/rQEYk5Ivx/N+7WfW3LgKe1E2/MxgVln+okhUfq8RklVEPkcbHlk5h8lAWvb62cKbXQfon0JwnrxN5rxcoTeYGdHqF+ecVE4+rePuj+FxRgr444UCccDBOyBfDaNahNyjoDQoWpx57kZ6yOjMV4yyMm2OX6Sci48RjKq/e18u6x/pS2qOKArPOKGL5B8tlkfqwIzj44+cO4OmLZvXXuPiLNUxdViDHc5j2rfew6q6ulHUUvKFijJkLP19DWb2s9RCZ99xq3R2gdY+f3pYQ7u4I/sHYmxngQv4YeoOCyarDZNVhtuuxFxqwFepxlhg4uMmX7OxZS9DqgUgAkgcOAuOTfkMea+Ha79bLC5PIOa17/Dz1+w7cPamdW2svMnDOJ6uYuFBGBY+n81CQf37zcNZ/j6nLCrj4izVyQI/D746x8q+d7Fuf2rWsigKLLi7hlGvKZaRK5JzN/x1g1d+6kp2jahqwJx/aU96G4UNA0p9oPleUlp0Bpi4rkBuzyCla8cIivANReppSl84zEoyzZ80g7u4I9TNssrj1WA/OZwdo3R3I+u8x2Bth0YUlsg7oGPau9fDQT1voPJTa6XbOUi297pyziuT4iJyz/QU3z/61MxUJcm8DfBKA5IcVwIxUbMjbH6Vtb4CpS52S/1zkFINRYdJJTkprTRze5ktpas+ephC7Xh6krM5McZUkaHi3eEzlv3/sTFlByWSKRVVKa81SqPIIAp4Yz/yxk1fv7yUSSu0c9ylLnFz1zTpKJb2uyEG7Xxnk6T92pCL48KGtS84LEoDAXOC0VG1ssDdCx4EgkxdLECJyT1m9malLC2jfG8Cbwnnn4UCcXa8M4umP0jDDJqOMb7N/g5dtz7ly5vt4XVFmn1kkB/ZtDmz08uBPWunYn9pRLoNR4ayPVnH6BytkBFLkpL1rPTz5+45UrXPcCfxJApD8UQxck8oNursjtO4OMGWJU16URM6xOPTMOqMQnU6hdbc/pdvubgyy+5VByhvMFFXKaAjAs3/tSmnNh2Tz9EWZMN+Bo0QSc4T8cZ7/vy5evLs7ZUVC31BSY+Kqb9UzYYGswRK5ac+aQZ78XUfKUs4DTwOPSQCSP3qBr5HiBfmDvRGatvmYssQpPUci5yg6hfrpNmomW2na5icSSt3LUcgfZ+fLg/gGotTPsOX1SGNvS4iX/tWTc98rFlGZNJRWM181bvXxwI9baN7pT/m2Z5xWyOU31VFQJumwRW7a/ryLp+/oSG2GR/gdsEUCkPzhB64GKlK9Ye9AlOYdfglCRM4qqjQxdVkBnQeDKe+F7zoUZO9rg1SOtVCQp3VDXry7J6WJAVKlvz3MzNOLMNvy774ZDsRZeVcXL/6j+83Uoalisug491NVnHx1mUwhFjlr87MDPPvXrlSs+Xi3LwMuCUDySyVwejo27B2I0rjFx6RFTinWJHKS2aZjxmkFgELbntT21gZ9cXaudhP0xamfnl9V1LubQqy6szMnv5sah6A3xqRF+TUK0rTdxwM/aqUlDaMeFWMtXP3tesbMtMtNTeSsdY/28cI/u9MRfGwEfpZPbS0BiKYX+Gy6Nu53x9i3zsO4uQ6sTjkkIvcoOoWGGTbqp9s4vM1HOMXz1Tv2B9i33kPdFCv2ovxYO/DUHzpwdUVy9vv1NIe0tSB5UKQ1FlF55d5eVv41PdnMZpxWyGVfrZWCuCJ3qbD6X92seaAvXXvwG+BVCUDyTzdaOt6GdO1AyB9n72uDNMywy+JKkbMKy43MOLWQnqZQyl+OA54YO1a7MZp01Eyy5nQZ1sYtPtY82Jvz55OrK8KM0wtz+jv2tYZ44Mct7FvnSfm2zTYdF32hhiWXl8qUK5G7AX5U5cnfd7B1lSttr4DAR8iT+h8SgLyXhxRnw3q3SEhlz6uDVI6zSD0DkbOMFh3TTy1EVUn5lCw1Doe3+WjfF2DsLHtOTnuMx1Qe/WUb/sFYzp9L7u4I1RMsFFfn4P1ShS0rXTz6yzY8/dGUb768wcw132mgbopNbloiZ4UDcR7+WRsHX/emczfuBu7Jt7aXAOQte4DLgKp0R+J7XvPgKDJQOd4iR0XkJEWBhhk2qsZbaNziIxpJ7YRbV1eEnS+5KakxU1KTWy+vax7sY+9aT96cS617AsxcXphTiTz8gzEe/207G5/sJ56GOHLGaYVc9rXavJmuKPKTpy/C/be10J7i+jnvfu0DPoi2FEACkDylAm3A+9K+IyocfN1LyB9j7GwHiox8ixxVXG1i2skFtO8L4E1xL28kpLJnzSDu7ghj59hzYopJ56GgljpSzZ9zKByI4+qMMHVpQU58n6YdPh74YQtdh4KpfyEwKpx5fSWnvb9cplyJnNZ9OMh9t7Uw0JH2dXJ/Bv4vH4+BBCDvtA9YBkzIhJ3p2B+k42CACQucGKRgochRZpueGacV4nPH6GpM/UtXT1MoJxaoR0Jx7v9hC4E8mHr1bn1tYYqrTZQ3mLP2O8RjKq891Md//9iZ8vS6AM5SA1feXM/kxfldX0Xkvr1rPTz8szYCnrTfK/vRykD48vE4SADyXi8DnwAyYl6GqzPCoc1exs9zYLbL4RK5SadXmLjAgbPUQNM2H/EUv3+9uUDdnL0L1Ffd2UXTdl/enkPNO/1MW1aQlffJvrYwD/yolT1rBtOy/TGz7Fz97Yacm44oxDuo8NpDvay8q4t4NCOGiT9DnmW+kgDk2NxAH3BxpuyQ3x1j9yuDVI63UFQhDwiRuyrHWRg310HTNl/K042qcTi8dWiB+mw7Jkv2rCnYusqVF1mvjiUWUWndHWDaKQVZNX1oy0oXj/2yDU9fGqaCKLDkilLO/3R1Vp3vQoxUOBDnid+2s/lZV6bs0qPAt/L5mEgAcmSvo03DmpMpOxQJqex6ZRC9UdGyksiMLJGjHMUGpp9aSE9zCFdn6l/KXF0Rdr08SMU4c1YE/I1bfDz5+/xa93E0PleUnqYQU5c6UXSZfZMMB+I8+ft21j/WTzyW+oNntuu59Eu1zD27WNYZipzW1xbmvtuaad0TyJRdagYuBPz5fFwkADm6lcB5QHXG7JEKTdv9dDUGGT/PIetCRM4ymnVMP6UQRYGWXam/R0dCcXa+PEgsrNIww56xL2i9LSEe/EkL0bBEH28Y6AzjG4gxcaEjc1+IWkPc/6PWtJzbAMVVJq75TgO1U6xywoicdmCjl4d+2pLyJCfH4AXOARrz/dhIAHJ0YeBx4CqgKKMesB1h9m/00DDdhq1Q0iSKHKVA/XQbRZVGGrekfl0IQNveAO37A4yb48CYYVNUPH0R/vP95kxYSJlxuhqDGM0KtRlYw2Lbcy4eub0Nnys9L0Tj5tq5+lv1OEuNcqKInBWPqay+p4fn/t5FLJIxHTQx4FpgtRwhCUCGE6k+MxSEZFR3WsATY8cLbsxWPdWTpBdL5K6KMRYmzHdwaLMvLdmB3qgZUjkuc9ZgDfZEuO+2FgZ7InKCHEXTDj8msy5jevmjYZVn/9rFmgd60xJMA8xZUcSFN9ZgNMt6D5G7BnsiPPTTVva8llH1kOLAx4D75AhJADJcvcDTmRiExOPa/O+e5hBj59hzqhCXEG9nLzIwdVkBbXv8aRlKj4RUdr/qARXqptnSOiWrvy3Mf25txt0twcfxHN7mIxZRGTPLntb96G8Lc98PWzi8NT1ZyvRGhXM/Vc2yK8syfm2MECdi33oPD/6klYHOcKYFHx8H/i5HSAKQkeoBHkJbNFSSaTvX3xZmz6seqidaKSiTYXWRm0xWHTNOK2SwV1tonGqqqq1H6TwUZNwce1p6kbsOBbnvtmZ8Lpl2NVxtewMEBmOMm5eeoq47X3Lz8M/b0jYH3erUc8XX65i0SOp7iNwVjai8eHc3L/yjm2gko9bEhYEPAXfLUZIAZLQGgAeAM8ikhelDQv44O18aBBVqp1ill0vkJJ1eYdIirTBn8870LOAd6AizZ42H2ilWnCWpC/ibd/p54MctBH1xORFGqPNgkMGeCBPmO1J2b3xjytWr9/WmJcsVaGmtr/veGMrHmOUkEDl9fT/woxYObsq4Okgu4BK09cRCApAT4gX+ARQAizNt597ooW3c7KNumg1bgRxekYMUqJtqo3K8hYObvMTSUFDqjYDfZNVRMzHJhQtV2PBkP0/f0SHZrk5Ad1OIpu1+xs1xYLYld/RqoCPM/T9soXFL+l6Ipi4r4PKbarE65TkgclM8prLmwT6evqMDvzvjRoW3ACuATXKkJABJlCjawvRG4Fwg4+Y8eQeibH/BhdGso3qSVXK8i5xUUm1iwnwHBzd507I4XY1D41Yffa0hxs1zJKX43RvFs15/ekDqfCSApy/KrpeHEgpUJiehwP4NHh74cSuevvSl/VxyeSlnf7wqqwoyCjESfa0hHvxpK3teHczEe+M/gSuAbjlSEoAkw1bgKeBsMnBdSDymVXVu2eWnbpoNi0MOtcg99kIDU5cW0LzDhy9NPWB9rWEObfIydo4joddZT3OI+25roW1vQA50Ar1R1FWnU6ibmriirqoKax7oZeWd6Uv7qdMrnHNDFSddXCrFakVOUuOw8cl+Hv91e1qD/KMIAV8DbgYkS4gEIEnVCbSg5XXOSIM9EbY/70anV6ieaJG1ISLnmKxa0cLuxiCurvTc8/3uGLteHkxIz7qqwub/DvDEb9rTVisi999itDU17fsCWgeN/cQeheFAnMd+1ca251xpvQ4u+1odU5cWyPEVOam7KcTDP2tlx2p32lJZH8c9wDflSEkAkioL0IbaMlY8ptK03cfBjV6qxltxlEjxQpFjNzKjwrSTC/EPRuk8FEzLPkTDKrtfHURvVKibMrqe9Z7mEI/crr3Ipmvhcj5xdUXY9pwbRQe1k0eXXnmgI5z2kSpHsYGrv12vjegIkWOiEZW1D/fx1B86MnHU4+32oiUrEhKApMQS4OJs2FGfO8aOF91EglpefFkbInKJosCE+Q70eoXmXenJkIUKTdv99LeHGT/PPuw5+NGwyqv39/LUHzoY7JWR+1TSOmj8HNrspXqiBXvR8DtoDr7u5f4ftaQtxS5AeYOZ6743hpIakxxMkXM6DgS4/4ct7FvnQc38BICNwL/lqEkAkiqnAedly86abHrmnFVIeYOkZRS5qW6ajeIqE4c2edP2wOptCXFok5dxcxzHnd7TuMXHwz9v5cAGryw0TyMteYebcCBO9QTLsQu7qvDaQ708+5fOtK33ABg7287V36qXjIcid19S9TqadvizpfBqC9oCdDEM0gd+4j4D3JHJO2i26aidamPCfAfTTy3AZJGK6SL3tezy8/DtbYR86UvPaHXqufiLNUesxN22N8BL/+6hdbdfDlaGsTj0nHRxCfPPL35PwclwIM5Tf+hg/wZPWvdx1hmFnPPJKnR6eYyL3NdxIMCOF9207PLT1x6GzOyseRK4SI6WBCCpcjlalfSk0ukVCsq0qQF6ow6DSTt0RrMOo1nBbNNjtumw2PWYhn4trDBSXGWisMIo061EXupuCvHAj1rSuphb0cHpH6hg0UVasrzuw0Fe/k8vhzZ75QBlOHuRgSWXlzJnRRF6g8JAR5iHb2+jrzWU1v066ZJSTn9/uTzBRV4K+mIMdERwdYbxuqKE/HFC/hhhf5ygL0YkpBLyx1BVLWtWOKB1QoX8cQKepHZI3Ql8Qo6QBCCpsgR4LRVH6rT3lbP40lJpcSFGYKAzzP23teDuSe8Q/tRlBaiqyt61nkztvRNHUVBuZNbyQjY+NZDWETUUOP395Zx0iTwHhBgJV1eE+25rTvZUrh8Ct0hrD49MHE1MG34pFRtq2u4nFlGPOJ1DCHFkVoeeqUsLOLzNl9Zqub0tIfpaw3JAslDIH6dllz+t6z0UHZzziSoWnF8iB0SIEehvC3PvD5oZ7E36SPh9wAZpcQlAUmUQ+CyQkqigbW8A/2CU8XMdMq1KiGEyWXVMWVpAyy5/WjMWCTGqB7VB4aIv1DLjtEJpDCFG8s60T8ui5XOlpPPpNqBVWl0CkFQ6FZiSqo11HgzSvj/ApEVO9EaJQoQYDqNZx7RTCug8mL6ChUKM5ry97Gt1TFzokMYQYgT2rfPwyO2thAMpSYcYAr4IxKTlJQBJpQZgRSo36OqK0LjFx7i59hOu4itE3tzwDApTlxbQ2xqmv02mQ4nMZrHrufpb9TTMkAKDQgybCmsf6WPlXzuJpy4ceA34qzS+BCCpFgRuSPVGfa4oO18apLzeTHG1FKESYjh0eoUpSwpw90ToaQpJg4iMZCvUc+13G6gab5HGEGK4L2PeGI/9up0tK12p3vTfgNVyBCQASbUO4GqgItUbjoZVdq8ZJOSLadXNdTIlS4jjURSYtMiJ3x2l81BQGkRkXvDxnQYpGCvECHQ1Brn/hy10HEjLPf1TQJ8cBQlA0qEIOCttEdD+IC27AoyfY8dklUKDQhw/CoEJ8xz4B6N0HpQgRGRW8FFWL8GHEMO18yU3j/yiDf9gWpZgvAb8TI6CBCDpchj4PJC2t//B3gi7Xh2kvMFMUaVMyRJiOEHI+HkOPP1RuhslCBHpZS8ycN33xlBWJ8GHEMMR9MV45o+dvPZgXyrXe7zbbcDrcjQkAEnb+z8wHpibzp2IBOPsenmQvtYQY2bZMZhkNESIY8YgCkxc4CAwGJOREJG+4KPQwDXfqZfgQ4hhOrTZy4M/aaVtbyCdu9EBfByQ/O4SgKTVDrSaIGl/6+9rDbPz5UGKq0yU1MhoiBDHjkK0kRAJQkRagw+ZdiXEcYV8MZ7/ezcv/KM7VSl2j+VbwBo5KhKApNsAGTAK8oZIMM6eNdpoSMNMO0azjIYIcdwgxCNBiEht8HHtdyX4EGI4Dm7y8sCPW2nZ5c+E3WkBPoqMfkgAkiHWog3HWTNlh94YDbEXGrSsKpIoS4ijByFzHbi7JUWvSD6rU89132ugVKZdCXFM7p4Iz/yxk1fv6yUcjGfKbn0UbeaLkAAkI/iAfuDiTNqpSDDO/vUeDm32UjHGjLPEKEdKiKMEIRMXOulrC9HXKsUKRXKYrDquuaWBijFS50OIo4mGVTY80c8Tv2nPtE6hp4DvyBGSACTTbAZOB8Zm2o55B6Jsf8GNqytC7RQbRotMyxLiPTGIAhMXOek8GMTVFZEGEYl98BoULr+pjrqpUuFciKM5uMnLQz9tZd9aD7Gomkm75gIuREs+JEb7nJUmSJqqoUCkKlN30OLQc/LVZcxZUYTeIKeCEO8WDsS577bmdBW2EjlIp1e49Cu1TFzokMYQ4gi6m0K8+I9umnb4MnH3VLTC0w/KkZIAJJOdAawkw0eaCsqMLLm8lNlnFaHIGSHEO4R8Mf5zawvdhyUIESf+xD3vU9XMOqNQ2kKId/H0RXjtoT62Pe9CjWfsbv4S+KocrRMnU7CS6zAQBlZk9AuWP87BTV72rfNQUGakpFrS9grxBoNJx8SFDvav9xDyxaVBxKid8aEK5p1bLA0hxNsEvTHWPNDHk79r10ab1Yzd1ReBDwPyIJAAJCu8ApQCizN9R/2DMXa/Okj7vgBldWYcxQY5ekKgLRiuHG9lx4tuaQwxKhMWODjro5XSEEIMCQfjbHisn0d/1UbzDj/xzH6t3wWci5ZoSCSAvGGmxpeBBuDSbNjZw9t8HN7mY8wsO8s/WE7FWMnSIkRPs0zBEqPX2yJpnYUAiEVVdrzo5tX7e/G5sqKERitwHlqtN5EgMgKSGirwEDAbmJotO+3ujrD1ORd9LSHKx1iwOuV0EflrzQN9DHRIWl4xOiFfnKnLCrAVyH1U5G/gsf15N4/8oo3drw4SCWbFTKZWtPW8h+UISgCStdfeUBAyK5uCENAKGW5ZOYC7O0J5gwWLQ04bkV+iYZVVd3YRj6nSGGLUCiuM1E62SkOIvBKPqWx/0c1jv2xn1yuDhANZs4SiBTgTOCBHUQKQXAhCHgbGo42GZA9VS4235VkXrs4IFWMtWOxy+oj8cHibjx2rZf2HOMHbaBxmnC4ZsESenO8q7Fvn4dFftrHjRTchf1at3d4NnAU0ypGUACTXghCA5dl4Q+lpCrFlpQtPf5Sq8RZMVilmKHLb608P0HlQ1oCIE+Ppi7Lg/BIMRsl3LnI58oCDm708/us2Nj0zQNAby7ZvsBY4B+iQgykBSC56EWgbOsmzLhmAGoeuQ0G2rHQRDsapHGfBYJJAROTgszQOz/6lM5umDYhMPZdUKG8wU95glsYQOenQJi+P/7adjU/043PHsvEr/B24BqlyLgFIjtsEPDUUhGRlcvh4TKVtT4Atz7oIB+JUjZdAROSWw1t9bFnpkoYQCREOxplxmkzDErmlbW+Ap/7QwdpH+rIls9W7hYCvAd8EonJEJQDJB53A3WhrQiZm65eIRVXa9gbY+pybWESlcpwFvUwzEDnglXt7JYWqSBh3d4SZywsx2+TxK7Jf+/4AT/9vJ6/c28NgTyRbv0YrcCHwoBxRCUDyTQD4N6ADTgWy9s09GlZp2eVnx4tuTFYdVeOlhojIXiFfjP/+qTPTC2SJLGN1GqifZpOGEFlroDPMU3/o4KV7enB3R7L5q6xCm4WyT45qaslcmcwRB74LnALsz/YvU1Jjom6qpJsU2W33qx6iEUm9KxJr52q3Vh1KiCxVWG5k3Gx7NiehCQI3o1U375EjmnoyApJ5WoE7ASdwElk2GlJSa2LFxypZ/qEKbAUGOZoiqz371058AzIdWCT4zccbo366jcIKozSGyEqKTqF6kpUZpxbgH4zR1xZGzZ6gehtwAVptNukKkABEvE0EeAbYgFaB05nJO6vTK4yZZefMD1dy5kcqJcOLyAlNO3ysf7RfGkIkhd8dZfqpshhdZDezTc/kk5zMWl6IolNwd0cyucJ5BPgB8EEkxW76g1hpgoxXCPwM+GQqjpfBqGC06FDjEPLH3tOjoTcoWOx6imtMlNWbqJtqY9xcuxQlFDnnvttaaNruk4YQSXv6fvin46gYIx02IneoKnQeDNC4xUdPU4ielhA+V/SIacyNZh16gwIKqagVsg34GPC6HCUJQMTInIeWoSGpKxcVBZZdVcbSK8tQhs6OkC+GOhR8GM2ybEjkvs5DQf75zcPSECKppp1cwEVfqJGGEHkRmIT8sXcGHkB3U4jHftnGQGc4mZv/GXAL2giIyBDSbZ09DgBnAuOTvaGWXX46DgQYM9uOyaLDYNI+b9wwhMh1z/2ti762sDSESKq+thDTTy3E4pBHschtisKb7xI6nfYusf15F4/9qh2fO6nr7GLAxYBfjoIEIGL0xgPLU7EhV2eEnavdFFaYKKuTKQIif/S2hHj+/7qkIUTyqVrq8okLHNIWIm/4XFGe+G07Gx7vJx5L+hrwLcBvpdUlABEnfryuT9XGIiGVvWs99DSHqJpglV46kReeuqODgU4ZqRep0d0UZNJJTuyFkjVQ5LZ4TGXzs9qoR09Tyoq73oeW1EdIACJO5FkF3JTq49bfFmbLsy6C3hg1k6wYTLIOROSmQ5u9rHmgTxpCpI4K/e1hZp4uGbFE7mra7uPRX7SxY7WbaDilmW9vB3bLEZAARJyYCNpi9PqUPyNV6NgfZOtzbowmHZXjLSg6WRMickc8pvLoL9rxD8akMURKuXsiVI6zUFJjksYQOaW/PczTd3Twyr29+N0pv7fGgC8g6z8kABEJUQ6sSNfGo2GVxi0+9qzxYDAqlNWb0eklEBHZb/OzLna+5JaGEGnR1RhkzoqiNxfoCpHNug8HeeEf3ay6q4v+9rQl9HgF+IMcDQlARGL0AJ9P904EvTEOvu5l2wtu4jGV8gYLBqM8OEV28g5EeexX7UQjUhRXpO+eqjfqqJ9mk8YQWat5h5+Vf+3kxbt76G0Jpbs6+m+AtXJUMpO8MWantcDiTNohk1XH3LOLmXdOEQXlRjlCInuo8MBPWmjcIkUHRXrpDQof/OEYKsZapDFE1ohFVfav97Dh8X46DwUzZbeiaNPVO+UISQAiEucG4E8ZeUIp0DDTzpwVRUxa5JDpWSLjbV3l4tm/yDNKZIbSOjPX/2SsjCiLjDfQEWb7C262v+hKx/qO43kCrf6HkABEJJANaALKMnkn7YUGpp7sZPaZRZTVSy0RkXncPRH+76ZGwoG4NIbIGEuuKOXUa8ulIUTGiUVUDrzuZesqF007fJC5s1bPBlbJEZMARCTercB3suUsq5tiZeqyAqYsLcBWIEuPRPrFYyr33dZCyy5JkCIyi06vcN33G6idbJXGEGmnxqFll59drw6yf52HoC/jMwVuBeaRyeGRkAAki5UC+4HirDrhdFA72cr0UwuZdnIBJqvUFBHp8eI/u9nwRL80hMhI9iID1/94LI4SKVAo0qOvNcTOlwbZ+ZIb70A0m3b9EuBxOYISgIjk+Qrwi2zdeYNJYfxcB5MWO5kw34HZJsGISI09awZ5/Dft0hAio9VOsXLtdxvQG+RRLVJAhY6DQfav97B37SCurkg2fosXgDPlYEoAIpLLBGwCZmT9iTg0MjJlSQFTljqxF0mvn0iOnuYQ99zSRCQk6z5E5pt3TjErPl4pDSGSE3Oo0L4vwMHXvexb52GgM5zNXycELAR2yJGVAESk4PkErANyJvetooP6aTYmLXIycaFD0vqKhAl4Ytz97cPZ2rMn8tS5n6pi9plF0hAiIWIRlaYdPvZv8HJgoycTM1iN1jeBn8gRlgBEpPai+1GufrmyOjMTFjiYsMChLcqUs1aMQiQU577bWmjfF5DGENn1oNbBJV+qZfJipzSGGPX9r3mnn72vedi/wZOLmf9WA2cBMTnaEoCI1B7HfwHX5foXLSg3Mm6OnQkLHIybY5c6I2JYYlGVh3/WSuNWKTYospPeoHDFN+oYO9sujSGGxe+O0bjVy961Hg5v9RGL5mxSqCbgJKBbjroEICL1bGg5r5fmyxe2OPSMmWljwgIHkxY5JaOWOCI1Do//po29az3SGCKrmaw6rvtuA5XjpVK6ODJXV4RDm7zsXTtI695APiSiHQDOQEu9KyQAEWlSAKwc6gnIKwaTwoILSjjtfVK8S7wz+Hjmjx3sWO2WxhA5wVao59rvNEhxV/EOvS0hHv55a76tb3MD5wDr5QzIPtJlnFsGgXOBl/PuRVOFqcsK5AwQb4pFVR7/bZsEHyKn+N0x/v29ZlnLJN6hrN5MaV1eBaVdaNXOJfjIUlKSOvcEgXuAMcCcfPnSZ3+8ignzHXL0BaAtuHzkF20c2OiVxhA5JxpR2bvWQ80kK4UVkiVQaMbMsrN/vYegL+dTjO9Eq/WxS466BCAis8SARwEPsDzXj/OSy0s56ZJSOeoCgHAgzoM/aaV5h18aQ+TuTT6qsnfNIBVjLJTUmKRBBEazjnFzHOxdO0gklLOLP+4DLkcbARESgIgM9RrwCHAqkHOVrBQFzvhQBUuvKJMjLQBtAeZ9P2ih81BQGkPkvHgc9q71YLbqqZlklQYRWJ16Jp9UQOMWH0FvTmWk9QBfQCs7EJIjLQGIyHzdwP8BcWAxkBMlxktqTVx+Ux1Tl8q6D6Fp2uHjgR+1MNgrRQZF/lBVaNzqw9MXYdxcBzqd5JbJdxaHnpnLCwkH4nTlRmfMw8ClwPNydHOH3KnyywTgl8Al2foFKsZaWHhhMdNOLpAaIOJNm54Z4IV/dBOPqdIYIm/VTrFy6VdrsRcapDEEAP1tYdY/1see1zxEQlm3NmQP8GXgGTmSEoCI3DAH+DZwVaafAwaTQs1kKw3TbUw6ySmpJ8U7hANxVt3Vxc6XJNOVEADOUgMX3lhD/XSbNIZ4x73ywOtemrb5aNnlx92T0SPFjcBPgLuAqBw9CUBE7lkMfAVtQVdGpVKpm2rj1PeVUz3Rgt4gp6l4r44DQZ74bVu+5b0X4vgPdh0suayUZVeVyUixOKLBngi71wzy6n29mVQhfT3wG+BetGQ6IofJGpD81gY8ANwJeIHJgDMjbo69Ebobg9gKDZTVmiVUFm9RtSlXT/y2nYBHnlFCHOkaad0d4PBWH/UzbFgd8qgXb/G7Y2x6ZoD1j/URi6Q9+AgCdwOfBG4FtpMP9duFvNaJd9ABy4CrgfcBGVFWvGq8hXnnFjNlqROjWWpn5rP+9jD//XMnrbslxa4Qw2Gy6jj9/RXMObsIRZ74ea2rMcjWVS52rnYTTW/gEQPWAv8A/oNWRFlIACIEAGbgHOAi4HygPu07ZNMx/ZRCZp5RSNU4i5y9eSQWVVn3SB9rH8mIHjshsk7tFCvn3lCVb9Wy817AE2PvWg/bnnPR1ZjWjFheYCXwNFpWq145OhKACDEcs4YCkVvIgGlazlIjExc6mLjQQf10m6wTyWFtewP898+d9LVK6nchToTeoLD4slKWXFaK3ij3zFzl6opwYKOHAxu9tO7xo6Y3+dVf0NZ0vAyE5egICUDEaD2Etmg9YxjNOqonWaifZqNumo2qCRZMFpmqle0GeyK89O8edq8ZlBnBQiRQYYWR099fwZQlTnkLyHYq9HeEadvjp2V3gNbdGZXhygeUIoUDhQQgIgE+A9yR0Se1AkVVJirGmKkYa6G01kRRlYniKhMGk5zymS4ciLPukT42Ptmf7nnKQuS0mslWzri+QqqoZ0mg4emPMNAZYaAjTE9TiO6mID3NIcKBjK3v8STaNG4hJAARJ2wCcCBbz3ZniZGCUgP2IgOOEgP2QgOO0qFfh35vdepRZAAl5aIRlW3PuVj7UB8+t6R+FyJV98UpS5ycfFWZrA9Jk3Awjt8dwzsQxeeK4huI4nVF8fZrv/f2R3F1h4mGs65D5ktoaXWFkABEJMQmYF4uf0GzTYfVqcfi0GN1DP3q1GMr0GMvMmArNGAr1OMY+m8ZWTmBwCOssnXVAOse68c3IIGHEGl5GVBg8hIny64sk4KvJ0IF32CUwGBMCyZcMfyDWiARGIwR8MYIemMEvHGCQ/+dQXU4EikOjAOa5aQQEoCIRLkR+J00w1vsRQaKq02U1JiomWihepJVHuLHEQ7E2fqciw2P9cuIhxCZFIgsdrL4slIqx1mkQY4h6IvRvi9A+/4gPU1BBjrCuLojkqlP8wxa4hohJAARCVOCVsRQnk7HUFhhZOqyAuafV4yj2CANMsTVFWHTMwNsf8GVyXOXhch7ddNsLLigmEkLnTItdYiqwt7XBtmx2k3Tdj/xmAQbR3EtcJ80g5AARCTaHWgL0sVxGM06rry5jvrptjx+akPzLj+bnhngwAYPqjyzhcgahRVG5p9XzMzlhVjs+V1V/d5bm2neKYVQj+MwMAVJuyskABFJUA0cBCR9yjACkE/9YQJWZ/49uH0DUXa85Gb7824GOuVZJEQ20xsVJi5wMOP0QsbPdeTlqMjzf+/m9af65WQ4tuuBf0ozCAlARLL8AviKNMOxnXRJKad/oDxvvm80rHJwk5edq90c2uJNdxEsIUQSFFYYmXl6IdNOLqC42pQ333uwJ8JdX20kEpIb21HsBOYAMWkKIQGISBY7sBUtNa840kO63MhHbh+X84URYxGVw9t97H3Nw/4NHlnbIUQeKaszM2Wpk2mnFFBclfvByIYn+nnxn91y4N8rDpwOvCJNISQAEcl2BvCcnEvvZTTruO77DVSNz821+iFfjMatPg6+7uXgZh8hn3R4CZHvbxTVE6xMXOhgwgIH5Q25mQlQjcPDt7dy8HWvHPN3+gXwNWkGIQGISJUfALdIM7xFb1C45Mu1TFzoyKGnLvS2hmjc6uPQJi+tewKSAUYIcVQF5UYmzHMwfr6dumm2nBoJjoTi3HtrCx0HAnKgNRvRRj9khb6QAESk9Dz6N1ravbxnNOu49Ku1jJtjz/rv4u6J0LzDT9MOH807/PhcUq9DCDFyOr1CzSQLDTPtjJllo3qiFb0hu19BwsE4j9zeRtN2X74f3iZgMdAlZ7qQAESkmg14FFiRz41QXG3iki/VUDE2+6ZdxWMq3YdDtO8L0LYvQNteP54+CTiEEIlnMClUjbdSO8VKzWTtYyvIvkyBsajK6nu6ef3pAcjPAeEO4Cxgt5zVQgIQkS4m4F7gsny8kmafUcQZ11dgsmb+NIN4TKW3NUxXY5CuQ0G6GoP0NIUks4sQIm2KKo1UjrNQOd6i/TrOkjXpyw9s9LLyr514B/Kq06ZlKPjYL2evkABEpJsBuA34Rr584bI6Mys+XpmRhQZD/jj97WH620NDv2qfgc4wsYis3xBCZDZHsYGSWhMl1SZKaszaf9eYKCgzomTYG0zIF+Pl//Sy9TlXPqyP2whcCTTLWSokABGZ5ANo1dILcvULFleZWHZVGdNOKUjbgzAaUfH2R/EORPD0RvEORHF1aUFGX3sY34BMoRJC5B6DSaGk2kRxjRaYFJQacBQbcJYZsRcZ0jqda6AzzJoHetn9yiBq7sUhKvB7tGxXUl1WSAAiMlL1UBByWS59KYtDz+JLS1hwfgl6Y+IuIVXVetCCvjghX4yQP07QHyPkixPya7/Xgo0onr4I3oEoAY+kvhVCiPcEKEYFR8lQUFL6VlBituux2HWYbXrMNh1m+9CvNh1Gc2Knz3YcCLD6nh5aduVMYqhG4AZglZxhQgIQkQ2uAH4ETMm1L6bTK5gsOowWBb1BQadXMB4n1WQ4EEeNq0MBh7bmIhZVZf2FEEKk84VIB2arNnKiNykYTdorksmqRznGbT3+tvt3yB8nFlEJB3Pqfj4I/Az4FZJmV0gAIrKMAfgI8HVgkjSHEEIIkdHcwB+B24FeaQ4hAYjIZjq0KVmfAc4c+r0QIuMeDgoFigGbYsCq6DErOqyKARt69EOLnlTAq753nZGqqvjUKD41ileN4lNjRJERPiGyxG7gTuAvaKMfQkgAInJKDXA12sjIXGkOIVKnQDFSq7dSrbNSo7NSo7dSrJgo1ZkpUkwU6YzoEviICKoxeuIhBtQwPfEg/fEw7fEAbfEA7TE/XfEQKpKZTYg0GQDuB/4JvApyMQoJQER+WIRWSf0icnCtiBDpYlZ0jNU7mKB3ME7vYLzezni9A6dizKj9jBCnNeanMebjYMzLoZiXgzEP/XFJtCNEkvQCTwMPAU8hWa2EBCAiz40DzgYuHvrVLE0ixPCU6yzMMBQy3VDAdH0hEw1ODFl8q++Jh9gVdbM7NsjuqJt9UQ8Rmc4lxGjtAh5Hy2T1IiC52oUEIEIcgQM4HVgxFIzMkCYR4i2FipG5xmJmGoqYYShkst6Z0983hsrBmJdNkX42RQfYFnHJ+hIhjq5rKNhYOfRplyYREoAIMXLVwI3At6QpRL6aqHeyzFjGElMZk/QOlDy+lfvVKK9HBlgX6WVdtI8BmbIlBMDzwJeB7ch6DiEBiBAnxIaWxvdmZFqWyKsbtcJsQxGnmspZZiyjQmeRRjkCFZW9UQ+vRXp5KdJNS0xKFoi89hzwebSsVkJIACLEKFwM/A4YI00h8sU0QwHLTZUsN1ZQqpOYe6QaY15Wh7tZLcGIyF8R4H+BbwNeaQ4hAYgQwzMJ+C1wnjSFyAflOjPnmKo511xNjc4qDZIg+2Ieng118EK4C7cakQYR+aZ1KAj5hzSFkABEiKOT6VYibxhQWGIs43xzDYuMJQmtvyHeKUqc9ZF+ngm1szbSR1ymx4v8ItOyhAQgQhzFNcAvgDppCpHLihQT55mrucRcK+s60qA/HubZcAePhdrojgelQUS+CAE/B34MyNxEIQGIyHs1wB+Ay6QpRC6bqHdyhaWOM0yVGNFJg6RZDJXXIr08GGxhe9QlDSLyRSNwA1qaXiEkABF5eR5+ErgdcEpziFw101DEdZYGFhvL5OaboQ7EPDwYbOGFcBdRmZ4lcp8K3I2WsrdPmkNIACLyxUTgz8AZ0hQiV2+yS4xlvN8ylmmGAmmQLNEdD3J/sJmnwu2EVCl0KHJeJ9rakAekKYQEICKXGYCvAt8HZPK7yEnzjSV83DKeKRJ4ZC23GuHRUCsPBlvwqVFpEJHrngA+DbRJUwgJQESumQPcCSyQphC5aJ6hmI9axzPdUCiNkSMG1Qj3B5t5ONRKUI1Jg4hc5gK+AfwFqaIuJAAROcAC3Ap8BdBLc4hcU6+38RHLeE43VUhj5Cj3UCDyUKiFsEzNErltFfAJoEmaQkgAIrLVdOAeYK40hVBAqIsAAIAASURBVMg1JToTH7aM53xztdTwyBOd8QB3BQ7xQrhLuohFLhsEbkJbqymEBCAiq86xTwK/QisuKEQOndwKF5ir+ZR1IjbFIA2Sh/bFPNzh388OSd8rctv9aGtD+qUphAQgItNVAncBF0hTiFwzUe/ky7YpssBcoAIvhLv4S+AAPfGQNIjIVc3Ah4EXpSmEBCAiU12BNmRbKk1x4kyKjiLFhE3RY0KHXTFgUnRYFD02xYAR5T098FFUAu/K2uNTYwTUKAE1hl+N4VOj+IZ+H0Hmsw+HWdHzIctYrrY0oJdbqHibkBrj3lAz/wo0EZXrSeRuvP07tGlZYWkOIQGIyBROtIKCN0hTDLPBFAM1ehu1OisVOgslOhNFiokynZkixUiJzowjBdN7QmqcPjVEfzxEXzxMn6r92h8P0aeG6YkH6YgF8/rFaqmxjBttk6nUSeZocXSHYl5+49/LzqhbGkPkqh3AB4Bt0hRCAhCRbicB/wImSFO8+0JTqNNbmaB3UqezUqe3UauzUau3UqAYs+Z7xFHpigdpiwVojftpjflpjftpiwXoigeJ5+hy3FKdmS/aprDMWCYnsxgWFZVHQ23cGThIQNL2itwUQMtq+UdpCiEBiEiXG9CGZU353hA6FOr1NibrnUw0OJmkdzJR78Sm5Hbm4ZAaZ0fUxUOhFtZF+nLmey00lvB123RKdCa5ysWIdcaD/MK3m83Rgbz5zk7FSKnOhF0xYFX02BXDm/9tRZs2aj/CqK5eUbAOZWhXUfGpMULECKtxvGqUiBoniDZ9NKDGGFC1EdqBeESmvKXXv4beAXzSFEICEJEqlqHA4xP52gAGFKYYCphrKGaOoYjphkIsSn6XOflz4AD3BZuz+juYFR2fsk7iYnOt3CjFCVGBx0Nt/ClwgFCWj4YUKkbq9DZqdFbKdGZKdGbKFDPFOhNlOhMlihmTokv5frnVCAPx8JtBSVc8SHssQGs8QFvcz0Bclisk2VbgSuCgNIWQAEQkWz3wILAon760DoWphgLmGIqYYyhmpgQc7xFW47zP/SpuNZKV+z9Gb+fb9hmM1zvkYIqEaYn5+ZFvJ/tjnozeTz0KE/QOaofWptW/OWXUhjNL00371RhtcT/tsQDNcR8Hol72xzx0x4NyYibOIPAR4GFpCiEBiEiW84G7gZJ8+LJmRcd8QwlLjGUsNZbJdJxhuNm7hY2R7EoZrwAXmGv4rHUSZgkqRRJEUflX8DD/DBxGzbA1U3bFwEet4znHVJ3zU0bf4FYj7I962B/zsC82yP6oh04JSk6ECvwM+DYgi5+EBCAioefM14EfAbpc/qJFiomlpjKWGcuYbyjBrOjk6I/A97zbeTXSkzX761SM3GyfzmKjZI4Wybc+0sePfbvwZMgooYLCr5zzmGkoyvtj0xMPsiXqYmtkgC1RF53xgJywI/cCcB3QLU0hJAARJ6oA+D/g8lz9gmZFz6nGclaYqphvLEYnl8io3ejZyJ7oYFbsa63Oxm2O2dTrbXLgREpfdG/17WB3BlwnC40l/MQxVw7KEXTFg2yNDrAl4mJ9pA+XKutJhqkFuApYL00hJAARozUJeAKYnItfbrLeyYXmWs4wVbynoJ8YuZAa51LXS1mRmWahsYRb7DNTUmtFiHcLq3F+F9jH06H2tO7HdZYxfMIqGdSPR0VlZ3SQ1yK9vBrpoTXml0Y5tgBwPfCANIV4O5nkLIZjGbASaMilL1WiM3G1pYGb7NO41jKGyQYnRplmlRDro308F+7M+P280FzDN+0zJImASN9DWFFYZiyjVGdmQ6QvbatCZhqKmG8skQNyHAoKFToLC4wlXGauY7mpgnKdhQAx+uIhaaD3MgJXo3V4vyjNId4gXX7ieK4D/oaWbjcnTNY7udxSzxmmCgxIwJEMmR586FH4jG0Sl5nr5GCJjAmGK3UWfuDbgU+Npnz7XbLwelQa9HYa9Haus4yhLe5nZaiTVeFOWcj+7rgNvofWiflpQOawCZmCJY55btwK3JIbX0ZhibGUy8110suXZO3xAB91ryWWoVXRnYqR7zlmMtdQLAdLZJzGmJdvebfRk+IX2HKdmX8XniwHIAFUVLZFXTwb6uTlSDd+VZJBvc0LaOtI3dIU8pIpxLvpgTvQKptmNSM6LjTXcJWlgSqdRY5sCvzct5v/hjsyct8KFSM/c85jgtT3EBmsLx7iZu9WGmPelG73D86FTDEUyAFIoKAaY3Wkm0eCrRlf/yWFdgDnAW3SFPn9oinE25mBfwEfyuYvYUDhLFMV33PM5ExTlSwwTpH2eIBf+fdk5NhHsc7Ez53zpLigyHg2xcAZpgq2R930pHBdgVHRSRrqRD+LFB0T9U4uMtcy11iMT43SGg9k6PhwylQAVwDPAH1yluQnGQER73hHAx4DTsnewEPHueYqPmAZS4WMeKTcT327WJmB6z/KdWZ+7phHnaTZFVnEr8a4xbuVbVFXSrZnUnT8s2AppTqzNH4SdcYDPBFq58lQe8bUgUmTbuBCYKOcFflHRkDEG0qAZ4El2RlJK5xrquZ7jlmcbarCLiMeKbcr6uaOwIGM268KnYVfOOdTK8GHyDJGRcdyUwW7ooMpWdQcQwVFYaGsk0sqh2JkvrGES8x12BUDB2NeQlmQsjwJ7MAHgNeAw3Jm5BcZAREAlWhpdmdl485PMRTwOeskphsK5UimSQyVzw5u4GCK56wfT5XOwu3OeVTprHKQRNYKqTG+5d3G1uhA0rcloyD/z959h1lSlfse/1bVzqG7pyf15JzzkIMiSRFzxJzT0SuKIoIZRRCVY87pmHPOgCiIkmaYwOSc83RPd+/euaruHz0iIsP0dO9Q4fd5Hh/uucdDr1qrqvZ6a631vo1XdG3+WN7PD4o76HJCmSAqDzz7+DxEQkIrIDIG+Asw328NH27GeVNyBm9LzdR2qyb7YXEnd5QPeqpNI80En8kuZbSCD/G5iGHyhNgollc6OVrnKtw2Li5whs6CNHR850RaeHp8LHHDYqvdSzlcKyJR4IXAamCj7ggFIBJ8k4C78Fl18wgmz46P50OZBcyLtGJoIa+p9jp5Ptq31lNpd1uMKLdklzBW264kKDM0w+T82CjuqRyhp87nBjbZvZwbG0m7GVPHN3iMF0baeEZ8HCYGG+0ez6Yzr8tPe//B9FXAJt0NCkAkuEbTv/Ix3U+NXhBp4+bsYi6OjVbVcg9wcflQbg37nIJn2hQ3LG7OLGZ6JKsBkkBJGBZnRYdzZ+UQhTrWlnCBzXYvT42P0QeeJogZJkuiw3hyrIMet8I2j21trXMQ8jxgBbBZd4ICEAmekfQXA5rjlwbHDZNXJ6fyzvRsWoyoRtAjflDc6amaHwZwXXqeDtFKYGWNKAsjbfylcqCuX8ePOiWyZpQ5OlvXNGkjwvmxkSyMtrHFztHlhuJ8iEV/ocJ/ooPpCkAkUNroP+i10C8Nnh9p42PZRZwbHamvcR6yodrDx/vWeWqn8ssTU3hWYrwGRwJthBmnw0xwd+VwXf/Ommo3lyirYNN1mEkuj4+lzYyxvtoThvMhUeAFwN3ATt0BCkDE/zLA7cDpfmhsyrB4c2omV6ZmadXDY3rdKtfkVtDrVj3TpnOjI3h7erZCVAmFqVaGAjbrqt11+xtVXHY6fVwc69Bz1WQmBrMjLTwlNob9ToFdTj4MQchzgT8DB3QHKAARfz/MvwQu8ENjJ1lpbs4s5szocP3wedAn8utZW8eJz6nqMBPcmF1MXOeCJESWRoexsnqMQ3WsEbLPKZA0LOZpK5YnJA2LJ8VGM8lKs6raFfT6IYnjQcivgE6NvgIQ8R8D+AbwfD809unxcVyfXqA89B71m9Jeflz0zqp4BIMbMotU5VxC+GI3OC3azq3lA3XdlrOq2sXSaDsjle7cMyZbaS6PjyPnVths9wb5UtPA5cCPgT6NvAIQ8ZdPAG/2eiOThsU16bm8ODEJy9C6hxetq3bz0b61OB5KDfmq5FQuinVocCSU0kaEcWaKOyuH6vY3HGBl9RhPiY8hplVGz4gbJudERzDFyrAy2Ksh7cCTgB8CZY28AhDxh7cCH/F6Iyce33K1JDpMI+ZRnU6Zd+VWkvPQuY+ZVpZ3pediaqOehNgkK81uJ88Ou34fiHNulf1OgQtio9ThHhz/p8THsMXOsd9DKdFrbCz9yXN+AuEpjqIARPzqycB3AE9/srogNoqbMosZoS1XnlV2Ha7tW8lu2zsHHyMY3JhdRLvuGxEWRNr4U3lfXbdi7bT7GG7GmakaO56TMCwuio3GxvXU+bwam0n/lqxbNeIKQMS7ZtGfPcLTG+OfG5/AO9OziWhZ39M+VdjAvZWj3rp3EhO5VFuvRID+LawtRpR7Kkfq+neWVY6yMDqM0ToP4jkmBkuj7SyItrGs2kmxjsUqm+hcYD+wXCOuAES8px24Axjn1QZGMLk6PZsXJSaptofH/by0mx8VvZWKvc2I8cHMfO1HF3mE6ZEs91ePctQp1e1vOMAD1aNcGBtNSvVBPGmMmeTC2Gg22r11zZDWRJfRXyNkh0ZbAYh4a0x/g4drfbQYUT56vLCgeNuySief6FvvuQ23r09NY0GkTQMk8ggGMNZKclu5vmUTCq7NquoxLo2NIaKEIZ6UNiJcGu+gx62wMXhZsiz6M2P9BOjWaCsAEW+4EXiFVxs3zkxyS8sSZljaQ+x12+wc1+VWea7qbrsZ45rUXE18RB7DGDPJOrubfXU+jNzpljnsFDk/pg9JXmVicFZ0BFkzyrJK4MpopIHz6D/namu0FYBIcz0d+AJ4c0/TBCvFJ7NL6TCTGimPO+qUeFduJcdc72U8fFVyqlY/RB7vXWum+EN5X93/zjY7R8aMMEdFCj1tTqSFqZEM91SOYgcrgdQ4+rec/0GjrABEmmcS8Ec8euh8mpXhluxS2s2YRsrj8q7NNbkV7HHynmtb3LC4Nj1XZz9EHscIM86KaldD9v8/WOliVqSFcSoE6mkTrTRnRIdzb+UohWAdTj+D/rMgqzTK/qJf8WCIA78AhnuxcTOtLJ/ILqHViGqkPK6Ky4f7HmKrnfNk+y6KjSajg68iJ/W8xISG/B0blxv61nj2nSH/+Vv8+expTLLSQbu0LwDzNMIKQKTxPgYs9WLD5kfa+GR2CS0KPvzxFs9v8vRe4Scr7a7IgJwXHdGwVLl51+Y9uVVBzbgUKCPNBJ/OLmVWpCVIl5UGfgwoN7SPaAuW/12CR899LI4M46bMIpL6Yu0L3y1u5yfFXZ5tX9aI8pbUTFU9FxkAA4Mut8yaBhWlK7g2y6udXBTr0BZJj4sbFhfERrG6eozDdUzZ3GCj6N+CriKFCkCkAYYBfwI8dwJwmpXhpuxi5Yn3id+W9vKVwhZPt/H82EguiI3SYIkMUKsZ43elvQ37e8fcChuqPVwUH60PBR4XM0wujI1mfbWHA8FZuTobeADYrBH2Pn2m8LcvAxO81qhxZpKPZRZrr75P3F05zOfymzzfztnB2jIgUnfTrAzjG3w4fGW1i0/nN6rzfSBhWNyQWcjp0fagXJIBfJP+1RDxOK2A+NfLgfd5rVEjzDi3ZJcy0oxrhHxgRbWLD+Ue8kVqxpckJjdsT7tIUOy0+9jU4EJ0W44fSF8UHaYB8LiIYfLE6CjW2z3sr3PtmAbJ0J8V9GcaXQUgUod5Pv3Vzj2VyqLFiPLJ7JKGf3GTwdlQ7eE9uVWUPFZo8ERelZxKWqtqIqek5DrcVTnU8L+7qnqMtBFhrmqEeH8iaBg8MTqSVcE5EzIPWA1s0Oh6l7Zg+dOXAE+Vn40bFh/NLApier9A2mH3cV1ula/ywSv4EDl1i6JtTfvbXy5s5s/l/RoEH4gbFh/JLGRicH7Dv0D/OVlRACI18gzg+V5qkAFcnZrNHO3R94UDTpFrcyvpdSu+andCmXVETlmbEWtaDSYX+FTfBu6rHNVA+ECLEeXjmcVB2eo6Bvi4RlUBiNTGMOArXmvUixKTuDA2WqPjA0ecEtf0ruCID5fZS66jARQZhGZui/1XcdOHqsc0ED4wwozz8exihpmxIFzOa4GLNKoKQGToPnw8qveM06PtvDo5VSPjA8fcMtfkVrLPpwcNS9gaRJFBmNDkc3kl1+EDudVsV7V0XxhnpvhIeiFx/686G/RnC1VWHAUgMgTzgTd5qUHjrRTvS89Xvncf6HYrXN27gl12n2+vocspayBFBqGlSVuwHqnXrfJuH38ACZvZkRbekZodhEuZAbxNI6oARAYfxX8e8Mwp3JRhcX16gWp9+ECfW+W63pXs8HHwAbA/OMWyRBoqaXgj4WWnU+advSs4oCDEFy6OdXBFYlIQLuX9wDiNqAIQOXUvBS7wUoPelZqrjFc+kD/+1bHRdQDqYZ+d14CKDELKO9+uOOwUuaZ3pS/PoYXR65JTOSs63O+XkUEH0hWAyKAenJu91KDL42N5QmykRsbjSq7N+3Kr2VDtCcT1BCGIEmkGrxUa3ecUeGfvCjq1rdLzDAzem54XhA+OLwaeoBFVACIDdzUw1iuNmWCleHNyhkbFB8HHe3OrWR2gzDPrqt0aWJFB8GK9n71OnnfnVtLts3TgYZQyInwwPZ+Uv7dcG8Anj/9TFIDISYwErvJKYyIYvDs1l4RH9hPLiYOP9+VWs7LaFajrOuAUOaRzICKnLO9WPdmu7XaOa3pX+K4mURhNtNJc7f9D6WcCz9VoKgCRk/sA4Jnqfq9JTmO2ig36IvhYEbDg41/+WTmiQRY5RQc9HLhvtXO8J7eKvKs02173xNgoLo11+P0ybsRDCX0UgIgXTQHe4JXGLIkM4wWJCRoVDyu4NtflVgU2+FAAIjI4Xk99u77aoyDEJ96amsUYM+nnS5gJvEYjqQBETuwGwBOlSOOGxTvSszG0ddKziq7N+wN25uOxrKp0KXuOyCmwcdnrg7S3a6rHuC630rPbxaRfyrB4X3oeEX/PBz4IJDWazaXN/N40nf7qnZ4IEF+bnMbZ0REaFQ8HH+/NrWZVgFc+/sUFMmaUhZE2DbzIAGy1c/y6tMcXbT3slFhVPcYFsVFEDX0f9aoRZhwMw8/nDLPAQeB+jWbz6An3pvd5JTicYmV4rrZeKfjwkD+U9nkuraiIV633WRruddVurs2t0kqIx70kMYn5/v4QdA0Q10gqAJF/mwi8xAsNMTB4R2q235daA6vveJHBMAUfAIecIn8pH9ANIDIAyypHfdfmddVurlZ2LI9PHg2uTs0m5t+VqvHAKzWSCkDk394DRL3QkGfFxzFHWa88qfd48LE2pLUxvl/YoVUQkZMouTbLffqBYpPdyzW9KxWEeHkGb6W4Ij7Jz5fwbpQRSwGIADAOeJUXGjLcjPOa5FSNiAd1OmWu6l0emArng7HXKXBbSasgIo/ngWonJR9nltqsIMTzXpKcxET/VkmfCrxUo6gAROCteGRP4muTU/1e9TSQDjtFrup9kB12X+j74uuFrfRpn7jICf2htM/317DZ7uXdvSvpURDiSVFMrkzN9PNG7atRdfSmUBYs70gB3z3+z6aaYmV4e2qW0u56zAGnyLt6V3g+p3+jFLFxcDkt2q7OEHmM98Xn85sDcS1H3TL3VI5yfnSkPox5UIeZ5IBTZKud82PzRwF3Ads1ko2lFRDveAUw3AsNeUNymoIPj9lt57mqd7mCj0f5eXE3G0O8FU3kRH5Z2o0boHNSu+w+3plbwWHVAfKkN6am02JE/dr8t2kEFYCElQFc6YWGLIoM44zocI2Ih+y0+3hn7kH98D4GG5eP5ddRch11hshxnU6Z3wVg+9Wj7bHzvL13uS8KK4ZNqxHlZcnJfm3+0+mvkC4KQELnKcAcL0RBb0xN12h4yLpqN2/vXU6nU1ZnnMBuO883ClvVESLH/bi409eHzx/PQafIVb3LdQ7Og54ZH8dY05cFxk3gzRpBBSBh9BYvNOLC2GhmWlmNhkesqHZxbW4lvTpofVK/KO3mrvIhdYSE3l4nz29KewN9jZ1Omat7V/j1zEFgRTB5lX+zZ74aSGsUFYCESQdwWfNvBINXKu2uZ9xZPsR1vavIB/QrZj18Mr+BPXZeHSGh9um+jVQI/pbEY26Zd/Y+6LtK70Hn4w+ZLcDzNYIKQMLkNXigEM4FsVGM8+fSaeDcWt7PjX1rqaJzDaci71Z5X99qpeuU0LqtfIAVPi08OBi54wVZV1ePafA9wgBe79+t3K/VCCoACdOz+movNOSFiYkaDQ/4ZWkPn+hbryrfg7THzvOB3EOUdShdQuawU+SL+U2hu+68W+XdvSu5u3JYN4FHLPFvMpsn4IHzuGGhOiDN9STgHc1uxBnR4QpAmsylv7Detwrb1BlDdMgpssvp4wmxUZhKJy0hYOPy/txD7HbCuQXRweXv5cN0WEmmWRndEB4w0Urze39mYusDbtcIKgAJug8Di5rdiHemZ9Oh7VdN/fH8dH4jvyrtUWfUyC47z24nzxNiI1XTRgLvS/nN3FkJdxIGF/hn5TBJw2JepFU3RZMNN+OssbvZ77+UydOAz4L2QCsACa4U8E0g1sxGzI608JrkNI1Gk5Rdhxv61vKX8kF1Ro3ttPs47JQ4JzZCQYgE1p/L+/mGVk4ftrzaSRmHpdF2dUazgxAjxm3lA35rdga4B9iiEVQAElTPA17c7Ea8JTmTSZYyzzVDr1vlvblVLKt2qjPqZIudY7vdx3mxkVgKQiRgVlS7+GhuLY7OjP2HNdVuutwyZ0WH6+NDE42xkjxQPcoR/xXRrQK/0gjWlw6hN88VzW7ASDPBebERGokm6M9j/yAPKXtL3d1dOcx7eldRUEpjCZAN1R4+kFsdipS7g/Hb0l5u6ltHVcFZU70g7svzpc8BEhq9+tIKSHO0AF8Gok19MSQmsDgyTKPRYLvsPt6RW8EeRzUrGuWAU2RltYuzoyNIGnrtib9tsnu5NreKPhUpfVzb7T422b2cFx1JxND31maYaKX4a+WQ39Kjx4HlwAaNoAKQoLkCeEEzG2BicE16DmkjotFooPXVHt6dW0mnW1ZnNNgRp8RfKwdZGB3GcDOuDhFf2ljt4drcKnpV72ZA9joFHqx2cV5sJAl9fGg4A4MYJvdUjvix+T/XCNZzHirN8MJmN+Ds6HBGmVphbKR/Vo5wde5BujVxaGoQ8s7eB7mrfEidIb6zvNLJ1bkVCj5O0YZqD/+vZxl7tercFBfHOsj672Pn0+lPFiR1os8BjZehf/tVU5/GN6amM97Ss9Uofyrv52N966hoP3LTVXG5s3KIo26JM6LtqhUi/niHlPZzY99ayjrzMSg5t8qdlUMs0Qpow0UMgyNOiQ12j5+aHQMeADZqBBWABMXTgJc2swEjzThXpmYpO0gDuMC3C9v4cmGLQg+P2Wz3srzaydLoMDJGVB0inuTg8rXCVr5W2KrQY4iKrs0d5YPMsLKM0we4hs87flva67dm9wK/1egpAAmKq4GlzWzA8+MTWRzV4fN6q+Lwyb71KjDoYUecEn8q76fFiDEzklWHiKd0uxWu73vIj7UUPPxedrmzfJixVpIpqpreMMPMmB9T8o4F/lejpwAkCAzgS0BTZzrvSM+hRV986yrv2nyobw1/rxxWZ3hcBZd7K0fYYveyODJMWbLEE1ZXj3FNbiVb7Zw6o8YcXO6uHCZmmMyPtKlDGjgB8tlh9CzwO2CfRk8BiN+dDryzmQ2YZmV4SWKyRqKOjjglrsmtYE21W53hI7udPH8s7yNuWMyOZLVFUZqiisv3ijv4ZN8G8kqzW1cPVrvoo8rp0XY97w0wwUrxq9Jev9Wu2Q/8TaOnAMTv3gA8qZkNeE5iPAv0xadutts5rs6tYI9TUGf4UBmHBypHWV3tZl6klRZTK4XSOFvtHNflVnFn+ZDOjDXI+moPO5w+zomOJGIoCKmniGFyyCmyye71U7MzwNc0egpA/O5GYEIzG3BlahatmlTVxfJKJ9fmVinNbgAcdIr8rrSXHrfK3EgrMRUxkzoquTY/KO3k5r71dLoldUiD7bLzrKh2cm5shGqF1FnKiPDn8n4/NXkM8AVAOZwVgPhWBvhMM/t8qpXhZcnJGok6+FeKzJLy1ASGA6y3e/hTaT8ZI8K0SEbbNKTm7q4c5r251dxTOYKjdY+mOeKU+Hv5MGdEh+sjXR2NMuP8obyfgmv7pckGcD+wXqOnAMSvLgFe3swGPCsxnoXaflVTLi7fKGzjq4UtCj0CqojNPZUj3Fk5TJsRY5KVVhgiQ7bZ7uWjfWv5cXGXznp4RM6tckf5IHMjrYxWod46zeYN9jsFNvprG9Zh4A8aPQUgfvUG4NxmNuDK1ExazZhGokbKrsPH8+v9mNtcBqHbrXBX5RD3VY4w2kwy1kqqU+SU7XcKfDG/mc/lN3PQKapDvPZex+GO8kGl6a2jhGFxq79SS2fp34YlNQ1GpVGW08T6H+PMFN9uPVujUCNHnRLvz63222E6qaFpVobnJyZycWy0qqnLSR10ivy8uJvf+i8LUGgnRy9PTuEViSnqjBpzcbmi+x90OmU/NXscSsdbU1oBaYw2+ovZNO0k64WxUZwVHaGRqIFtdo535Vayy9GZtDDrcsv8o3KYuyqHSRoWk6y0AhH5LzvsPr5a2Mqn8htYa3frnIePrKoeo8stc0Z0uJ7tmgZ3Bvucgt8+4C0D1mj0FID4zZOBlzSzAS9OTmaildZIDNF9laO8N7eKY8p0Jcd1uxX+UTnCH8r7KGAzwUyrmKGwotrFZ/Ob+EphM1vtnNY8fGqT3ct6u4dzoiOUDa+G4obFbf7ahnWU/qKEUrNAVBrhJuDaZv1xE4Oftz2BrBHRSAzBL0t7+GJ+M66+YMrjiGJyQWwUT4uPZX6kTS/ZEMm5VW4rH+B3pb3stPvUIQEyzkxxQ2YhE6yUOqMGbFyec+zvfkrAsApYrJFTAOI3dwAXNuuPz4m08Lns6RqFIbwoP5/fpMPmcsomWCmeGhvLpbEOhikBRCC5wJrqMf5c3s9fy4co+Se9qJyirBHlQ5n5LIoMU2fUwPuPp5/2zVSgfzt9TiNXG9onUH8m/fU/4s1qwFNiY1gS1QtzMLrdCu/NreLvlcPqDDllPW6F5dVOflnazXq7BxfoMJNEtZXD9/Y6BX5V3MMt+Q38rLSbLXYOW6ujgdafIesQo6w406ysOqQGv68PVI76aS73Z2CnRq42tCen/uYCLc1swGnRdo3CIGy3c7w/9xAHnII6Q4akist9laPcVzlK3DA5JzqSC6KjOCParsrLPrLHzvP3ymH+Xj6kDHihfZYdPt63ni3VHP+Tmq7ipEOw1H8rSWcDd2nkFID4xVnN/ONxw2JupEWjcIrurhzm5r51fqrWKj5Rch3+Vj7I38oHiRkmp0XaOTc6gnNjI2k1VIHZSxxc1lV7uL9ylHsqR9hua/eF9PtFaTeH3SLXpuYS10eEQZlkpRlpxjnslDSfCyGF7vX3VeD1zfrjCyJtfCq7VKMwQC7w4+JOvlHYpsPm0uCXscHMSJbTI+2cEW1nTqQVS6/ohtvvFHioeoxllU4eqHTSq4x38jhmWlmuzyxkpBlXZwzCx/vWc2t5v1+au4/+eiCiAMQXHgCadgL8+YmJvCk5XaMwAEXX5ub8Ov5e1nkPab60EWFRpI1FkWEsiLYx3cqoFkHNPzi47LTzrK4eY031GKurxzjin6+x4hGtRpQPZhawMNKmzjhFt5cP8LG+dX5qcgdwUCOnAMTrLKAXSDarAe9Nz+PC2GiNxEkcdkp8UJXNxcNShsW8SBvzIq3MsrLMjrSQ1ZatU5J3bbbbOdZWu3moeow11W6tcEhNRDF5e3oWT4mNUWecgqNOiSu6/+GnJl8K3K6RGzqdAamvGc0MPgBm6fzHSa2pdnN930N0OWV1hnh68vxA5eh/ZI0ZZyaZFWlhupVlqpVhqpWhXel+sXHZa+fZbvexzc6x3c6x3e7jgFPQxkqpiwoOn+hbz7pqN1emZmn75AANN+OMNBMcdop+afJCBSAKQPxyozZN1ogyxkxqFB7Hr0t7+FJ+M1VNS8SH9joF9pYL3PGIHQEtRpSpVoZJVppxVpLxZopxVooOMxGoSZGDy1GnzEGnyKHj/9lp97Hd7mOn3UdFtcelCX5f2sdBp8h70/NV/HeAZllZPwUgCzRiCkB0o57soY5k9Q3mBMquw2cLG/lTab86QwKlx62wstrFymrXo172BqPNJKPMOKPMBKPNBCPMOCPNOMPNOG1GjFYz6okgJedWybkVet0q3U7l4QDj4PH/HHJKHHGK+nAgnrSs0sn/63mAD2cWMslKq0NOYnakhbv9U2tLAYgCEN2oJ/+qoO1Xj+WwU+L6vofYUO1RZ0hoVHHZ6+TZ6+Qf97/XakRpNWO0GlFShkXKiJAyLDLH/2cLg4wRwcAgZpjEMB8zgPgXG5f8I/7nCg4l1yHnVul1K/3/dI7/83jgobBC/G6vU+DK3uW8Jz2Ps6LD1SGPN1fx11bxufSf71WOfgUgntbULVgzIqrU+mgrql3ckFtDtw6eijymbrdCt63nQ2So+twq78ut4orEJF6bnKqihScw08piYPgl9X0SmA5s1MgNjakuqJsEMKmZDZhopjQKj/D70j6u612p4ENERBrCBX5U3Mn7cw/9x8qg/FvaiDDe8tV51TkaNQUgXja1mf1rYjDG0gF0gIJr85G+NXwqv0F7xkVEpOHurRzhLT3L2GH3qTMew2x/bRlXcbUa0BasgN6gY8wEUcWX7LHzfKjvIb30RSS0kobFCDNOqxGj3YyRNSJkjf6EA0nDImqYJLAe/u8/sjZKn1v9j/M5vW6VTqfMUaeEow86p2Svk+fK3uVck57D+dGR6pBHTpisLLdxwC/NnaYRUwCiAOQExlvafvWPymE+0bdey94iEnhZI8JUK8s4K8k4M8k4K8V4M8UYM0ncqP3HKBuXo07p4exkB5wi2+0+dtl97LLzVJUG+THl3SrX5x7iisQkXpOciqlzIX6cs2gFRAGIIuQTmRDi1H82Lt8qbOPHxZ36PicigRM3TGZZLcyKtDDTyjIr0sLYBtd8sjAYZSYYZSaY/xjv4H12gW12jvV2D+ur3Wyxeym5Ckrg3+dCtto53pOeS9aIKgBRAKIARIJxg44PaQHCw06JG/rWsLbarTtQRALBwmBmJMvSSDtLosOYF2n19BZbC4MJVooJVooLGAX0p4HeZudYV+1mRaW/Tk1fyFenH6gc5c09y/hgZj7TrXBnrewwE0Qw/bJyNhGIAyW9nQZPa3/1s5X+g+hNcUt2CYsiw0LV4SuqXdzYt5Yup6y7T0R8LW5YnBUdzhOiIzkzOpx0wKpq27hsrPbwYLWL5ZVO1la7Q3umJIrJG1LTeU58fKjv+Vf33MtuO++X5s4BNuhNNXhaAakPC5jQzAaMDVEKXgeX7xS28/3iTr/kERcReYygw+Tc6EieGB3FmdF24oYV4B9Jg7mRVuZGWnlZYjLdboV7yke4u3KYB6udlEO0XauCwxfym9hY7eHtqVkkAjzuj2eCmfJTADJVAYgCEC8aDTRtU6eBQbsZC0VHdzllbuxby4pql+66JhtmxhhpxB/eFz7aTJAx+7PtZIwIWSNCxoj+x4+rhUHKsCi5DmUcCm4VG5ecW6Xo2nQ5ZTrdMsecMkfd/sw7e+08B5witoJNCYjpVpbL42O5KDaajBHOn+VWI8pl8TFcFh9D3rW5v3KEO8oHub9yNDTp028vH2Cj3cMH0wuYHMJznBOsNFSO+KW54/TmUgCiG/O/JoL96RWDbkW1i4/1reOoo22YjQtuYYyZZLKVZpKVfvifE8z0kDLtxA2TOCbZAU6+qrgcdArssQvssvvYbPeysdrLPievsER8IW5YPDnWweXxscwI+f7/R0sZFk+KjeZJsdF0uxXuKB/k1tJ+Ntu9gb/23Xaet/Yu46rUbC6KjQ7VuPvs7KoCEAUg3nyOmvnH2414oDvXxuX7xR18t7BDW67qLGtEmRNpYXakhTlWC3MirZ74QhvBYJyZYpyZ4qzo8If//3Nulc12L+uPH3RdZ3cr8454SosR5Vnx8Tw7MZ5WZT86qVYjynPi43lOfDw77D5+X9rLn8sHyAf4AHvBtbmxby1rq928KTU9NDW9xloKQMJEh9Dr4/8Bn2vWHz8zOpwbM4sC2bGHnCIfPf5iltpLGBaLIm0sjbRzWrSdSVba1y+Jsuuw1u7mwUonyyudbArBF1TxplFmghcmJnJZbExo9/jXcoJ+W/kAvy7tYWfAi8zOirTwvvQ8xoQgs+VuO8+re+71S3P/CFyup1EBiNfcBFzbrD9+WXwMV6fmBK5T764c5pa+9fSqsGBNjbdSnB8dyRnRduZFWokE+GvbAafI3eVD/L1ymHXVHq2gSd21GlFekpjMMxPjQvMlu1FcYGW1i58Vd3F/5Whgn+aUEeHtqVmB35KVd22eeexOvzR3NbBIT6ECEK/5DvDyZv3xlyYm8+rk1MB0Ztl1+HphK78o7dadVSMzrCznx0ZyXnRkKA87AhxxStxZPsQfy/vYEfCvqNJ4CcPi2fHxvDgxKXApdL1ou53jJ8Vd/KV8MLDpfC+NdfC2gGfJesaxOym4th+aehQYoSdPAYjX3A5c3Kw//v9SM3l2QPKJb7Vz3NS3VhPEGhhrJrkk3sGlsY5QLOefinXVbv5Y3s/fygf98uMnHv5RvSTWweuT00OTjdBLdtt5flzcye3lA4HMnjXBSvG+9HymWZlAjt8ru+9hr1PwQ1NdIImKESoA8ZjVwIJm/fEPpOfzxNgoX3egi8tPi7v5VmEbFXSIeLDSRoQLYqO4NNbB/EibHviTyLs2t5b387Pibg7440dQPGScmeLK1ExOi7arM5rsoFPkB8Ud/KG0P3BbLWOGyeuTwSxc+PbeB1lTPeaX5o4H9uppUwDiJXtoYoaEj2cWs9THP4CHnCI3961nlWp7DNoEK8Uz4+N5qg68DjoAvq9ylO8Xd7C+2qMOkccVN0yuSEzixYlJOufhMTvsPr5b3M6d5UOBu7bzoiO5Oj2bbICyqX2kb42fxmoR/R+cZRC0MbU+mjr79/OE887yIT6d30ivW9FddIosDM6LjeTZ8fEsjLSpQ4bAwODs6AjOjo5geaWT/ytuUyAij2l2pIVrU3MZb6XUGR402Urz/vR8nh7v4iv5LWwJUCa8f1QOs6Wnl3en5wbmnd9u+Grb4nA9YQpAvCRF/77Apkn6MADpc6t8Lr+J28sHdAedorhhcXlsDC9MTGSkmVCH1Nhp0f6UxHdXDvPNwjZ26TySHA/4X5CYyKuSU4loM4HnLYkM40stp3N7+SBfzm+mOyAfuQ46Rd7Zu4IrEhN5VXKK77MYtpu+qmOmvZYKQHRDPpLfVkCWVzr5RH49R1TR/NQiXSPCs+LjeF5iAm2GDrvW2/nRkZwbHcGtpQN8u7iNw7pfQ6vDTHJtei7zI63qDB8xMLg01sHZ0RF8t7CdX5X2BCJjlovLj4o7ubdyhOvS83x9QN1nH1C1AjIE2hxee1OANzWzAS9NTvZFEJJ3q3y+sIkvFTaTV+ahAUsbEV6anMx70/M4OzpCZzwaPIGZHsny9Pg4qrhsrPYoRULIXBAbxccyixlnKZOcX8UNkzOiwzk7NoLN1V6OuuVAXNcxt8Kt5f1YGMyLtGL4cGVuh9PHPytH/NLce4C79UQpAPGKucArm9mAVySmEDG8vQy7rNLJdblVrNRB8wGLYPLU+BiuzyzgzOhwYoYOuzZtLAyT06LtXBAbzS67jwNOUZ0ScCYGr01O482pmUT17AXCcDPOZfGxtJoxHqoeC0TaXhuXB6tdrKl2syTa7rsaNHvtAndVfHMIfQVwm54kBSBesQS4oll/3ABenZzq2S8ffW6VLxQ28eXCZvpU0XzAE5/L4mO5PjOfi2MdWvHwkFYzyqXxMYw2E6yuHqOs9ZBAajGiXJ9ZwJPjY3TaI4Dv1zmRFp4UG832AH1MOOAUubV8gFFmgik+2pJ1yCnyl/JBvzR3A/AbPUUKQLziDOA5zfrjCcPipYnJnuyY+ytHeU9uFSv9k+O7+dFsZBg3ZBby1PhYVVP2KAOYHslycWw02+ycVkMCZpKV5n+zS5kZyaozAixrRLk03kGrGWNVtQs7AKshZRz+XjnMRruHhZFhvvgNOeqW+XN5v1+6eBPwMz09CkC84lzg6c3642kjwhWJSZ7qkGNumU/lN/L1wlad9RigEWact6Zm8abUDNpUTdkX0kaES+NjGGHGWRGQCUzYzYm0cHN2CSP8lZlHBv0xwWB2pIUnRkexttpNZ0DOhux1Cvy5vJ+sEfV8IN3tVvh9aZ9funY78EM9OYOjjax1mIc08497acrjAreVD/Da7vv4i9LrDkjMMHlpYjLfbjmbS2Md6hDfTWDgafGxfD57GpOttDrEx86NjuCTmaW0BqjImwzMBCvF51pO40WJSb48yP1Ycm6VT+U3cF1uFYc9vEqb9Nd3cb3kh0ArILV3CXBh8yawFi/ywArINjvHh/oe4lelPZS0L35A5kVauSmzmAtiozyfREAe3zAzxlNiYznsFNlm59QhPvOM+DjenZ6rw+ahnhwZLI22MyfSwoPVLooBWb3f5xT4U3k/LUaUGZGs58KrMg4/L+32S3ceBL6hp2Vw9HYNWETsNnkNpOTafKe4nTf3LGNdtVt3wwDEDYvXJafx6exSJqiacoDG1eTd6blclZqtQnU+8rT4WK5MzcLUmAlwRnQ4X86ewbwA1XzpO74acm1uJXudgqfa5rPsjloBUQDiKU2dQTazqNJd5UO8qudevlPYTlWrHgNyZnQ432o5K1BL/fLfE9qbsou1lccHLo+P5e2p2XoS5T8MN+P8b3apJ3YX1NLySiev7b6Xrxe2Una98Zvt+uvsnL4YKgBRRPzvh7fxNtm9vKP3QT7ct0bVoQcoYVi8IzWbGzOLGGUm1CEBtyQyjM+2nMYYU8XrvBx8XKXgQ07AwuB1yWm8Jz0vUKnQq8erqL+u5z6WVTqb3h7HX7k7tAKiAMRTmjrDaOQ3jMNOiU/lN/CWnmWsVmrdAZtspfl89nQuj49VZ4TIODPFF1pOZ26AtnIExVMVfMgAXRQbzWeypzE6YB+O9jkFrs2t5P251fqQOHBaAVEA4ilN3mdR/88HxePnPF7Vcw+/L+3z25Jp0xjAc+MT+FLLGcqQFFItRpSPZxZzVnS4OsMjzooO5+2pWQo+ZMCmWRm+2HIG8yNtgbu2eypHeH3PffyytKcpleF9Np9QcS4FIOrTf7Hr+OwWXZufFHfxsu57+E5hOyVX5zwGqtWIclNmMW9OzSCqxy7UEobF9ZmFPCk2Wp3RZDOtLO9Lz8dS+CGDeKd/PLOYiwL4HOfcKl/Ib+J1PfdxZ/lQQ/+2z2YVyiSr6E035MMBCA4l1yFew0wSedfm16U9/Ky4i263ohE+RTOsLB/MLKBDZz3k4RevwXvSczGBO8oH1SFNMMZM8tHMIpKG5hAyODHD5Lr0PMZbKb5T2B6469tj5/lI3xp+XmrlTcnpDdk+6rMVEL08FIDohvz3wws7nT5mWkOvdppzq/yytJtfFPfQq8BjUC6NdfD21OyaBoQSDCYG16bngoKQhksbEW7KLGKYGVNnyJAYwCsSU2gzYnwuvymQW5LXVbt5W+9ynhgbxRuS0+t6/sVnvacARAGIbshHurN8iJnJwQcgm+xebi8d4LbyfnrdqkZ0EGKGyf9LztRBc1EQ4sEJ47vScxivmjtSQ8+MjyNjRPh437qmnJ2oN/f43OIf5SM8Jd7ByxJTGGnGwx6AGMf/o4OwCkA8Mqdost+W9nBZbMwpFbXLu1XuKB/k96V9bLZ7NYpD0G7G+HB6IbMjLeoMGVAQck16Lt1uheUeSIMZdC9NTOb86Eh1hNTcRbHRpI0IH+57KLBnJKs4/L60jz+XDnBhbBQvT05hbA3Ti3c5ZT/Oo7VFZJDRm9TWbcAlzW7ESDPO1ak5nBZtP+F/57BTYnm1k3vKR1hW7aTk2hq9IZpspfloZlHgUjRK/eVdm3f0PsgWfQCom6XRdj6WWaQq51JXq6vHeH9uNX0h2EEQweTJ8Q6uSExiXA0Ckd+W9vKZ/EY/dUESKOquVwDiBXcAF3qlMZOsNPMirXSYCUwMupwy+50CW+0cBx09M7We3HwwPZ+0oYVFGZxOp8xbe5fp2ayDEWacr7acSYsq0ksDbKz28O7cSnIh2cZsYLA0OozLY2M5LzaCyCA3g7y1dxnrqz1+uvQskNMdrwCk2cYBm1BxmtB5WnwsV6ZmKZ2nDNlOu4+39y7X+asa/9B9NLOIM1V/RRpos93LNb0rQvcsDzNjPCU2hstiY07prNWvSnv4fH6T3y73NcC3dLefOp3gr60vAqepG8LlRYlJvCU1U9s6pCbazBgzrSx/KR/UycYaeW58As9OjFdHSEMNN+MsjLRxZ+UQlRA9zUXXZk21m1+V9nBX5dDDldXbzBjRx8gIedQp8e3idr+mMj4D+Ao6B3LKNGOqnSXAMlTcMVQPzxuS03lBYqI6Q2rue8Ud/F9hmzpiiCZaab6UPUOpsKVp1la7uS63knzIz1laGIw2E4yxkmSMCFXXZb9TYIfdh+PvAO164EO60xWANMudwBPVDeFgYnBVahZPVZpdqRMXuD73EHdXDqszhjDh+XzL6cyoQV0kkaFYVe3iutwqygHNjhVyBWAWsFtdcSrvZ6mF5wLXqBvCIYrJ+zPzuTjWoc6QujGA06PD+Xv5sAqBDtLzEhN5SmyMOkKarsNMMtXKcFf5kLZWBnFaAMOAX6srFIA0+sb7JaDTjSEQweADmQWcpzoC0gAxw2R+tJU/lw74fYtCw400E3wgPf8x95yLNMMEK0W7GefeyhF1RvAsBH4P7FdXKABplLcBL1E3BJ+JwXXpuTwhNkqdIQ0z3IyDASurXeqMU3BNeg7TrIw6QjxlZqR/O+Cq6jF1RrAYwEzg2+oKBSCNMAz4KUq7G4rg49r0XC6MjVZnSMMtiLSyqnpM9UEG6OzoCF6VnKqOEE9aFB3GUbfEZhUdDZrJwIP0l2OQk86rZCg+gLZehSL4eHd6Dhcp+JAmMTB4V3oOKUPfjE7GwuANyWnqCPG0t6VmcZbq0gTRJ+jfmi8nfVfLYE0F/g9Q2etAT/zgnak5PDmug6zSXFkjStKIcH/lqDrjcTwzPl7Pq/jgt8XgnOgI7qkc4ZiSTATJCOAQcL+64vFpBWTwPgnE1Q3B9prkNC7TZEY84lnxccyJtKgjTiBpWLw0MVkdIb6QMiJ8KL2ArKHvmAFzPdCublAAUg/nAs9WNwTbM+LjeHFikjpCPMPA4O2p2Vgq4fSYrkhMot2MqSPEN8ZbKd6Xnq9nOljagWvVDY9PW7BO3XDgR4A+iwfYedGRXJOeg6EfBfHaL5sZo8etsMHuUWc8QqsR5f3p+USUdld8ZqyVJGNGeUDbK4PkdOBWYK+64rHpTX1qngGsApaoK4JrUWQY78vMw1TwIR716uQ0fel/lOclJpDQIX3xqefEx3OJitsGSRz4B/AZIK3uUAAyWKPpT7f7G2CcuiO4OswkH8jMJ6pHQzwsZVi8PDFFHfFwf0R4Zny8OkJ87W2pWUy0NFcNkAhwJf0fri9UdygAOVUvANYCz1dXBH9Sd0NmIa2GMuiJ9z0tPpZJmqwA8Oz4eDI6yCs+lzQsPpCeT1wreUEzDfgL8BUgq+5QAHIyrcBPjv9HyboDzsDgPel5TNaETnzz8jZ4tYrtETcsnpvQ6ocEw2Qrzf9LzlBHBHGaAW8AVgNnqzt0CP1EzgBuA85XV4TDG5LTeYrS7YrPTLTSLK92ctgphbYPnhIfw4UqEioBMiOSZb9TYJudU2cETxvwcqCXkNcK0QrIf0eobwPupr/QoITAxbEOXpiYqI4QX3plyM+CPCOuY3kSPG9NzaTDTKgjgikOfBr4JSGuF6IA5N9GAn84flMovUxIjLdSvC01Sx0hvrU02s7cSGsor31epJUZlrZUS/CkjAjXpucqG2OwPQt4EDgrjBevLVj95gN30L/1SkIibph8LLOY0frKJD7Xasb4a/lg6K779cnpTLEyugEkkEaZCfLYrKt2qzOCq43+LVl7gJVhunCtgMBl9G+5Uk7LkHlbahbTNHmRADgnOiJ0E/FWI8oTYiM1+BJor05MVXKU4IsD36K/Zkho5uVhD0DeBvyO/oxXEqaoMz6GJ8d06FyCwQBeFLJzTBfGRqtejwRezDC5Lj2PiLZihcGVx+ekLQpAAvxMA9+k/7yHtqGFzEQrzVuTOvchwXJBbBTDQlQd/WJVjZaQmGZleGFikjoiHJ5K/66cyQpAgicN/BZ4te7z8LEwuCY1h7ihL6cSLBFMLo+NDcW1jjWTzI60aNAlNF6enMwEK6WOCIcFwD3AYgUgwTGM/voeT9b9HU4vS07WxEUC6+nxsaHImnNxrEMbUiRUopi8PTVL9314dAB/Bc5TAOJ/Y4A7gXN0X4fTTCvLixOT1RESWCPNBGdHhwf+Oi9S4UEJoUWRYVyirYdh0gbcSv+2LAUgPjUF+Dv9y1oSQnHD0kE+CYWnB7ww3wQrpa0oElr/k5pBqxFVR4RHCvgVcIUCEP9ZSP9eumm6j8PrNcmpmrRIKJwWbafNCO5h9HOiIzTIElotRpRXJ6eqI8IlBvwAeIMCEP+YBfwZ0Hp9iM20sjwnPl4dIaFgYfCk2KjAXt/ZCkAk5C6Pj2WqaliFjQl8GXijAhDvm0H/AR5tmAz5ZOyq9OxQHMwV+ZegpqjNGlHmRVS2ScI+EzV4c2pG6PshbUTCdskG8EX6K6f7XlBHb/rx4EOV5kLu+YmJzLCy6ggJlTmRFsZbKfbY+UBd1xnRdix9TBBhcWQY50ZH8M/KkVBcb8aIcGFsNKdF25lltTDMjD18prPbrbDdzrGh2sNvS3s56BSDHX/2V0236d+W5VtBLMI3Ebjj+D8lxDrMJB9IzyOimh8SQl1OmYeqxwJ1Tc+JT2BGRB8URABmR1r4XWkfDm5grzFtRHhdahrXpedxfmwkE600aSPyH7saEoZFh5lkfqSNp8fH4gAbqj04wQ5Cng1sBNYqAPGGccBd9Ge9CoQ2I8ZYK8k4K0WbEQXDoOjaevMOwHvT85hopdUREkoJw+KP5X2BuqY3pabTogxAIkD/lsReKqyv9gTy+k6PtnNzZjGnR9uJDvBDYsQwWRpt5/zYKLbbfRwK7mqICTwTWAFs9uMFBGktu4X+Oh+L/X4hk6w0r0hMYV6klRFm/L/+98fcMisrXdxWPsD9lU7cAH/9GKxzoiP4SGahOkJCy8Xliu5/0OmUA3E97WaMn7Ser4EVeYRut8LLu/9JPmAfJi+Pj+XK1Kwhpc53gdvLB/hKfgvH3HJQb4ECcDH92V59JSgrIFHg1/i8YmTcsHhVcirvTs9lqpUhdYIDVgnDYrKV4eJYBxfGRrPHybPfKehNfFwEgw9nFtJi6kuphJeBwU67jy12LhDXc3Z0BE8McHYvkcFIGBZ512ZNtTsw1/SM+DiuSg09eYwBTLMyPDU+lorrsMHuDeItEAWedXwOfFQBSKN/Z+EbwHP9/uP60cwizomOOKWHrtWMckmsgxFmnGWVzkDvBR2o5yYmqlKyCOAY8LfyoUBcy7Pi45kVadGgijzKjEgLvy/tpRyAUw/nR0fy7vQcjBpu0IkbJmdEh7MkOoxV1S5ybjVot0AKuBz4EdCnAKRxPgq81a+NH2kmeHd6Dq9KTiUzyJRyBjAzkmV+tJV/Vo4E4iU0WK1GlA9kFhDXwXMRRpgJflLcFYjPEq9MTmX4Y2xJFQm7uGFSwWGVz5NOjDGT3JRdRMyoz9R0tJngsvgYetwKm4O3GtIOPIn+zFgVPzTY77O0NwLv8WPDLQyeG5/AN1rO4rzoyJr8OxdHhnFTZjFxI4jJzQY+ScmGLze4yGNKGRYzA5A1KoLBFCWUEDmh58Un+jpBg4nBe9Lz6l7bI2VEuCo1uyF/qwnOAL6HTxYX/DxTPR/4sR+vYYKV4qbsYi6LjxlwZoeBGmnGGW+muKtyiLAZZyZ5V3qOig6KPMIeJ89an+8Pn2pleVZ8vAZT5ASihknJx6sgT4+P4+nxcQ37e1OsDBfHRrPZ7g1a3ZDZ9J8L+YsCkPqYeLxzffdp79JYBx/JLGS0majb35hspelyy2wK5oGrE/p/qZlMU9FBkf9QxeWO8kFfX8NZsRGcGx2hwRR53EA9w29Ke6n6bNNl1ohyfWZBw3dvpI0Il8Y7iBgma6rHgrR5/XxgPR6vEeLHLVgJ4GfASD81utWI8uHMQt6dnkuiAQ/Zm5IzGGemQvPinWyldfBc5DHMj7T6flVwupXRQIoMYCL/lNgY37X7+YkJTds+ZmLw0sRkPpU9LUhnzP6VnGm+ApDa+iL9+9x8Y2m0na+2nNnQL3hxw+StqZmhefG+Kjm1plkzRIIibUSY6vMJ/GSd/xAZ4GR+IpaPfgvTRsQT2yvnRFr4UvYM5gQn014G+C0wXAFIbbwdeLVfGhszTN6cmsHNmcVNiaxPj7ZzVnQ4QTfDytbsIL9IIJ8Rnx9ED9NqrshQdJgJLvBRvZxnxMcNOgNorbWbMW7JLOXJPlxFOoHJwA/x6HELPwUgFwCf8EtjR5kJPps9jefGJzT1W8Qrk1MD/8J9RXKK1j5EHoeftzDFDUvpd0VOwfMTE33RTgN4anysp9oUM0yuSc/hqtTsIVVh95BLgQ8pABm8YcB3AF/kTJsXaeXz2dOZ7oED0TOtLGcGeBVkopXm7BCs8ogMxQwfJ2cYZyb1gUHkFH/3/VC08/TocMaZSU+27WnxsdyQWRSUtP7vAS5RADI436Q/85XnXR4fyy3ZJbSbMc+06QU++RoyGC9OTNLZD5GTmGZlfHsQfZyV1ACKnKJnNDCl7WBdGuvweIDUzudbTme85fstoCb99UFGe61RXvdm4Nleb6SFweuS03hHajYRj3Xr4siwIDxA/2WkGedCZb4SOam4Yfn2HTDGVAAicqoujI729Nf7uGFxjg9Sa48zU3w6u5Rp/s/ENxr4FnjnS5TXA5B5wCe9PqqtRpSPZxfzosQkT7bPAJ4WG0vQPC8+ISh7NEXqboJPD3Lr/IfIYCb4Jk+Oe/cw9VnR4SQNf5SiazNi3JJdyrxIq99vi6cCb1UAcnIJ4AeApz9/TbBSfKHldBZFhnn6rrsoNjpQW5UyRoTLfbDELOIVfl0BGW7ENHgig/CM2DjP/uqf47PCohkjwscziznD/2dOPw4sUQDy+D4JLPTyKE620tySWUqHD7YIDDfjLPB/9P6wy+JjSfnk64mIF4zz6VYmrYCIDM54K8UcD/7uG8BpkXbf9WfcsPhIZoGv0hw/1mUA38cDH/e9GoA8if6zH541L9LKp7Oneeqw+cn4/KH5j5fX0wO4pUyk3pMRP2pXACIyaF486D3dyvpq7vRIEUzem57HZf6uFTIHuF4ByH9LAV8D7+4XWhwZxscyiz1TPGegzvLZkueJLI22B/JQvUhdAxCfngFp1xYskUF7UmyU5xLjzPf5bgwTg3em53B53NcfQt8JnKsA5D/dBEz36oidGx3BjZlFvjk89UgdZoIJAZi4P1NnP0RO2TAz5rmJyMlYGL5814p4RdaIcpbHzi3MCcB2cAO4KjWLJ/k3E6cJfIP+89YKQIBzgLd4dbQui43hQ5kFxAzTtw/NmRF/H6AaacY5OyArOSKN/sEc5rNtDwo+RIbuEo9tw5rjgyKJA3unGlybnuvnYs+zgfcqAOk/GPMNwJO/OE+JjeGd6Tm+Leb1L35PI/fU2Fgspd4VGZThvgtAIho0kSE6OzaclEeepVYjGqjaPhEMPpiez4JIm18v4VrgtLAHIB+h/2CM55wbHcE70rMDMe31+5eHi1R4UGTQ/HaeQpnuRIYuiumZr/RzApSN81/ihsUNmYVMt7L+jKHg68f/GcoAZC7wdi+OzJLIMN6Xnh+Yr+4jzQQjfJpVZm6kVYfPRYbAbyltFYCI1MZ5Htm6HJTtV4+WNiLcnF3s13O2i4H/F9YA5PNA1GsjMjvSwvWZhb4+8/GY12X58wVwsVY/RIak1Yj6qr1RTA2aSA2cGR3uiSQUM/25SjDg9+sNmUVk/bl19HqgobmFvfB2fxFwoddGYrKV5sbMokB+gfPjF4gIhp+zTYh4QspnP4yGznuJ1ETaiLAkOqzp7ZhopQPdz+PMJO/3566ZFuDGMAUgKeBjXhuFDjPJzZnFtPjsa+HAAxD/7cE8Mzrcd19vRbzGb1mlFH6I1E6zt2FFMRkZgsKiS6PtvDY5zY9NfyXwhLAEIO8HJnmp91OGxUczC323V/pUzLCyvvthf2JAqriLNPv9pgBEJJzOaPJB9LFW0veZRAfqhYmJfqyWbgCfoUHZaJsZgEwHrvJaz1+dmsOkgC8RJg3LV/UAIhiBqeIu0txn319bsExDIYhIrYw2E4xrYgrccQFKvzsQV6ZmMct/W96XAK8LegDyKfprf3jGK5JTQvOlfbzpn0wNCyJtfj3UJeKxAMRfKyCuhkykppZG25s37whZFsuYYfLh9AI/7qj5KNAW1ADkfODpXurtc6MjeFlicmgejHE+ehGcHxupXw2RGvDbwciy62jQRGrotCYGIOPM8KXRH27GuTY9128JNYYD7wpqAOKpg+cTrbQfb5Ahvgj8sRRqHA8ORaQ2z5OfFF1bgyZSQ4sjw5p2DmOclQxlny+JDOMFiQl+a/ZVwLigBSDPBM7zSg9njQgfySz0XXrKoQcg/vgSMd3KMtJM6FdDJIwBCApARGopY0SYEWlOLY5RIf4tf3VyKtOsjJ+anATeE6QAxAQ+7KUefntqdugORoF/vkQ0c7lYRCFIc5W0AiJSc3ObVIy4zYiFts+jmLwnPY+4vwpbv57+hFGBCEBeDizySs8+NT6WC0Ka3nWcmfTFVGRpZBgiEsbwQ1uwROqhGbXA4oYZyMLOp2KSleY1/qoPEqWOiwaNDEBiwAe80qtjzCT/k5wR2gchblhkPL7tLGaYzIu06ddCpEZcn+WVyru279os4nVzm5AaNsyrH4/03PgEzmxyPZZT9CJgqd8DkNcBU73QmxYG16Xnhj4ab/N4LZD5kTa/LVeKeFrRZ1mlbFx63KoGTqSGOswk7Q3+/W8zFYBA/yr0O1KzSfvn3LEBfMjPAYgFvMMrvfnS5GTmNmEJ0muGefyLhLZfidQ4APHhoe5up6yBE6mx2Q0+BzJMKyAPG2HGeVVyqp+a/HRggV8DkJcAntj4NtPK8pIQ1ft4PF7/IrFIAYhITfnxUPcxt6KBE6mxRmfCajOj6vRHeFZ8HNOtrF+aawDv9mMAYgDXeKEH/5WFIBKieh+P+0IwvPtCiGIyPZLRIInUNADxX2G/Lq2AiNTclAanhNUZkEdPvg2uTM30U/25FwEzatsH9fdMYL4Xeu+KxETGWynd+f96IXh4BWR6JEMUnf8QqSU/bsE65ioAEfF7AJIJWa21gZgbaeWy+Bi/NNcC3um3AMQTqx+jzAQvSkzSHf8IXt6TqexXIrXX7fhvO9Mhp6SBE6mxsWaCRAMT8SRCnvTnRN6QnEar4Zvtaa8CxvolALkIONcLvXZlaqYegEcHIB5eAWlWoSSRIPPjasJ+p6CBE6kxA4NJVrphfy+uHQ2PKWtEea1/aoPEgav8EoBc7YUeOzc6grOjI3SnP0oS7wZkcyIKQERqHoD4cAVkv60ARKQepjQyANEH4BN6anwM0yzfnHl9I1CTCVo9A5BpwFOaHq4ZJm9OzdAd/hi8uiKUNSKMNBMaIJEa6/LhCsgBrYCI1MUYMxn6+YYXGBi8PDnFL83NAq/0egDyFmj+mttLEpPpaOBDpgBk6KZYyn4lUg/HfJhRqtetklMxQhF/ByDagvW4zouOZLZ/dn68GYaevqted0SqVhHSULSbMZ4fn6A7+wS8uidTAYhIfXT6NKPUHjuvwRPxcQCiLViPzwBemfDNKshs+s94ezIAeSnQ3uweemlism56H74QGrkvVSQsjrllij4sRAiww+7TAIrUWEcDtzprC9bJnREdzkL/ZAB9s1cDkDc1u2dGmwkuj4/VHe3DF4JWQERqb79d9G3btzs5DaBIjQ0zYyQbNA+IaQvWgLwqOdUvTX0WMKTaFvW4I84Dlja7Z16RnKJCdicNQLzZPxNVLFKk9gGIjw9zb9cKiEhdjDDjDfk7hrp6QBZG2jgt2u6HplrA67wWgPxPs3tlvJXikliH7uSTiGJieuy1kDYiZP1TlEfENw74OgDRCohIPXi5IHFYvSA+0S9NfT0w6AlbrQOQLPCcZvfIqxNTsRRvD0jMY6sgY5WxTKROAYh/t2B1OWVfFlEU8bo2UwGI15webWeqP7aijwae7JUA5Hn0Z8BqmslWmifGRuoOHiCvhWljLAUgIvWw0+fbmDZWezWIIjWmFRBvenZ8vF+a+nKvBCAvb3ZPPD8+EUOrH77VoQKEIjXnBiAAWVft1kCK1FirqS3PXnRpvIM2fwSHzwLamh2AjAUuaOqDZES5KDZad66vAxCtgIjU2iGn6PtifgpARGpPKyDeFMXkaf7I5JoAntvsAORl9J+Kb14YFh/vuTMNcmoalZFDJEyCcIh7o92Dg6vBFKnl7FH1OTzrWfHxRPyRzXVQu59qHYA0NVp8enyc7lifa1UGLJE6BCD+T2Obd20VJBSpsaQCEM9qN2N+OdN8ATC5WQHIYmBBM6/+otho2pXNwffatB9VpOa2BSSN7VptwxKpqXiDvrBr7XJwLvVHSQkDeHGzApAXNvvqn5uYoDs1CAGI9qOK1Nz6gEzcH6x2ajBFahmANGgFpIKjzh6E06Ltfvm4fkWzApBnN/Oq50VameaPnMmeDFu9IoJJyohoUERq6Jhb9nUNkEdaUenSORCRGmrUGZCSqwBkMEwMLvbHKsgiYEqjA5DpwJxmXvWlqno+aF56JbSYESVQFqmxddWewFxLzq2yWfVARGom1qAtWGVsdfYgXeKfOe4zGh2APLuZVxvB5ImxUbpDB8lLXyWS6DCcSO0DkGCdm3iw2qVBFakRt0EriloBGbxpVsYvldGf1egA5FnNvNrzYiNoUeakQangNOzlMxBKByiiAOSkAUhF50BEaqVRYUFZZ0CGxCerIE8EhjUqABkOnKNB8SevfZFQACJS4x9912GjHawtSw9Vj/m+qKJI+OYb2oI1FBfGRvthi3oEuLxRAcgzaWLxwVYjyhnR4bozhzA5UQAiElxr7e7A/fBXcbm/clSDK1ID2oLlDyPNONOsrB+a+sxGBiBNc1FsNDq2PIQXgscOhcVRFXuRWloe0O1K/6wc0eCK1CQAaQxtwRq6c6Ij/NDMy4AB5Q0eyozPAp7UzKu8QIfPhxaAeOyLhKlgUqSmgnpe4r7KEc+t4Ir4cx5gB+rvBNnZ/tjx0wKcVe8AZCnQ1qwrzBpR5kZadUcOgb5IiARXj1thc0AqoD9awbVZqWxYIkOWb1Bg0KcAZMhmRloYbsb90NQL6x2AXNjMqzs7OlxfzIfIa18kVGBMpHZWVLo8leWu1u6uHNYgi9QgmG+EXreizh4iAzjTH6sgwQ5AztTh8xoEIFoBEQmqoJ+T+Hv5EBWt4ooMSb5BGeWUua42fLIN6xwgWa8AJAKc16wrszCU/aomLwRvfZHQVEKkNvozRQU7AOl1q9ynbFgiQwtA0AqInyyJtGN5f/dPnAGU6BhsAHIG0LR8YPMjbWSMiO7EGvyAe4mtLVgiNbG60uW557sebi8d0GCLDEGf05j3RK9WQGoiZVhM80dV9JPukjLr9S+up7O0+lGjF4K3vkgUdEhNpCbCcj7i3spRevRlVWTQjrilhvydnKPntFbmR9pCHYBc0MyrOi3arjuwFi8Ej32RKOgLiciQucA9IamTUcXhzvIhDbrIIHU55Yb8Ha2A1M48f2SAPRNI1zoAMY7/i5siZUSYYqV1BwbwhZDXCojIkK2rdnPYKYXmev9U3q9BFxmkTrcxAUjOrWqTdY0s8McKSBRYUusAZDpNrP8xL9Kq9Lu1CkA8tiSa1xcSkSG7vRyucxEbqz1ssns18CKDcLRBHyscXO1yqJF2M8YYM+mHpp5W6wDk9GZezXwVH6wZz23BQisgIkMR1i1Jvynt0eCLDCIoONagLVgA3TqvFba5cM0DkNPU6cHgtUPoZdfRNiyRIbgvpIey/1o+qDSfIqfooFOkkRujOhsY7ATd7EiLApBGimAw22rRnVcjXiwM1BmivesitXZbSNPSllyHW5WSV+SU7LHzDf17Xa4CkFqZ4o9UvLN5nJIdpxqAGJzkUEk9zYhkiRuW7rwa8eKX0qOuAhCRweh1K6EuzPfb8l5cHXMVGbC9TqGxv+/6wFjDAMQXyZhMYFGtApCZQNP2QM3S6kfN5F3bk3U3jmqJVmRQbi0doIIT2uvfY+f5Z0jSD4vU6plpJG3Bqp2sEWW4GfdDU0+rVQCytJlXMVnpd2v4IiipXSIB4QK/K+8NfT/8uLhLN4PIQAMQp7EBiHY41JZPVkFqFoDMaW4AktEdV6uJvkf3Yh5SACJyylZWu9jd4K+ZXrSu2s1D1WO6IUQGYJuda+jf69IKSBjnxLNrFYDMaG5nawWkVry6F3Ovo0mUyKlSGtp/0yqIyMCCgUZvidIW61DOiWfWKgCZ2awrGGkmyBgR3XE14tW9mI0+FCcShGf5nrLOPvzLfZUj7LD71BEij6MZxTs7tQWrpiaZvghAWoFRtQhApjfrCqZo9aPGLwJvBiAH7AK2MtmIDNhvSnsamsvf61zgB8Ud6giRx7GlCQFIl1PR73sNjfLHIXQ4we6pUwlAOoCmpaHS9qsaByAe3YJVxeWAU9QAiQxA0bX5bUmHzx/tr+VDbG3w/nYRP9lcbXwA4uIqE1YNtZsxIhh+aOrMoQYgM5vZ+vFmSndbLQMQDxcE2q3tEyID8ofyPrpVAfwxJzrfLWxXR4icwAa7pyl/96C2WdeMgcEIf6yCDHkFpKkH0EeZCd1ttQxAPPwVQl8uRU6uisvPi7vVESdwd+UwG6o96giRR9nr5DnSpF0Q2uFQWyP9MTce8gpIkwOQuO60Gjrk4ZdAM5aGRfzmr+WDHNSP+eP6TlGrICKPtqpyrGl/W++sWgcg4VgBmaAoLxh63Sp9btWz7WvG4TgRP3GBnyjd7EndXznKatUFEfkPzayVoxWQ2vLJ7qAJQw1AOprV8qwRIWlYutNqxOt7MA84RXq1r13khO4qH2K7tioOyBfzm3GVeUfkYauaGYDYOgNSSz45AzIMiPsyANH5j1oHIN7/AqFtWCKPzcHl29paNGBb7F5uLR9QR4gAe+x8U7dgawtWbaX9Ux9v9FACkNHNarW2X9WWH5ZA19jdGiiRx/CX8kF2KVPcKfl6YSt5D287FWmUeyrNLVp6yCniaEVSAcgpBCBRoL1ZrR5mxnSX1fIFYHs/AFndxENyIl5VVXrZQelyyvxIZ2ZEuLdytOnvsKOOKqLXSsY/AUjHYAOQ0dC8aic+6mBf8MMKyDq7m7LraLBEHuHPpf3sUx79QflZaZcOwEqo5dwqaz2QlGG/nsOaCcMKSIc6OEgBiPcnMGXXYaOtHP4i/1J0bb6rsx9Deqd8Nr9RHSGhdX/lKFUPbH/ap4PoNROWFRAFIAHhl0NgSp8p8m8/Lu5qWvGwIE3A7iwfUkdIKP2jctgT7djt5DUY4ZsfD3oFpL2ZrU4pBW/N9LlVcj45jHl/k/eqinjFYafET0o6w1ALXyhsolcH0iVk8m6Ve5t8AP3hAERJNMI4P24fbACSbGardQakdvbY/vnysK7aQ5dT1qBJ6H2tsIWSa6sjaqDTKfPNwlZ1hITKXZXDlDxyrlIrILVjNO949qlK+jIA0Ras2tnlowffxeWBqlZBJNzWVbv5a/mgOqKGflfaxxpt8ZQQ+UvJO7Vw9tsFT5xFCUYA4hupwQYgqWa2Oo62YNWKn1ZAoPkpA0WaHYR/obBZP9V16Ndb8hs880VYpJ6OOqWmVj9/tCouB5XNL2xBiD9XQCzD0B1WI35b+lxW6aSCJgkSTr8u7WVjVdng6vIutPN8rbBFHSGBd2v5gOeK/+22tQ0rZCGIPwMQqR2/VVDOu1UeqHRq4CR0Op0y3ypsU0fUNcDbo2QXEmgOLr8v7fXkBwAJUfjh1wDE1P1VEy6uL4uY/aV8QIMnofPZ/Eb6lK2pzu9E+N/8BnrdijpDAuneylFPFuDUQfTQBSCDPgOSbG7nagtWLRxwir6sLn5P5YgmYhIq91WOcrdHcvYH3RGnxOfym9QREki/9eDqB2gFJIQGvQISV3Tnf3594Muuo8mYhEbetfm0KnY31B3lg9yulVYJmH1OgWUe3cK83c4puUYNVHCw/dGTicEGIE39bG4qBKlNAOLjJc/bS5ocSDh8sbCJwx7cMhF0n85vZKcKpEmA/LS4C9ejk9OcW9V7rgby/qkPZQ82AKk0t9WKk2sSgPh4yXNltct3KYRFTtU/K0f4U2m/OqIJiq7NR/rWqOCjBEKnU+bWsrffJdvsnAZqiAr+eV+VBxuAlNXB/rfV7vVt213gd+V9GkQJrG63wqfyG9QRTbTD7uMWjYEEwM9Kuzxf52arApAhK/pnflwZbABSUQf7m4vLDp9vL/hTaZ++TkpgfbJvPV1OWR3RZHeUD2oVSnyt163wO48ePn+k7dryOGR5/yToGfQKSFMDEK2ADN0+p+j7fsy5Vf5aOaTBlMD5Q2kf91SOqCM84nOFjWzy8YqxhNvPi7t9cTZgq56xMM2P/bkCkkcpWIdqe0CWOn9d3KPBlEDZYffxxcJmdYSHlFyH9+VWcdgpqTPEV465ZX5R2u2Ltu61C57fJuZ1eZ0BUYTndduqwQhANtu9nk0rKHKq/nXwWdtMvafTKfOB3Gpt+xRf+XZhu28mpQ4uOx1twxqKo65vPpLoDEhYBemw1w+KOzSgEgifUepXT9ts93Jzfr3yMIov7LHz/LHkr2QtQfk42rQAxD+rtINeAWnqHdKrKthDtj1AAcjq6jHWVI9pUMXXfl/ax20qfud5d5UP6aOH+MLXC1up+ixc3qJzIEPS6Z/EJX2DDUCONLeDtQ93KPKuzX6nEKhr+mFxpwZWfGuL3csXCpvUET7xf4Vt/KmszFjiXaurx/hH5bDv2r3R7tHgDcER/2zBOuzLAOSIApAh2W7nAreF4P7KUdZX9eIS/znmlvlg7iHKOnzpGy7w6b4N3F85qs4Qz6ng8Kn8Bl/+zm+p5qigd+Fg+WgL1qADkKaG1Z2ucuMPRRCL/bjAlwqbtTdbfKWKy4dzazjoFNUZPhy76/vWsLbarc4QT/lBYSe77bxvgyfVAxlKAOKb+fHRwQYgR5rbwVoBGYr1Af3BXFftVu0E8ZXP5jeyWueXfKvk2nwgt9q3kz0Jnr1Onh+X/L0leYN2MwxK0bXJuRW/NNefKyA5t6pUiEN5uAO8x/JrhS3YWgcRH/hJcRd/8FmGGvlv3W6F63IrOaRVLGkyF5db+jb4fjvnRgUgg7LHyftp9nNksAFIH9DUU8xHtQ1rUPrcKnvsQmCvb7ed16ROPO+eyhG+XtiqjgiIA06Rq3of1FY6aaqfFncHYkV1gw6iDy4A8ddK7KADkMf8P24kvegHZ5PdixvwFYJvFrZxTAGqeNT6ag8f7VuLo5W6QDnoFLmmd6W2CEtT7LD7+L/itkBcyy47T17lFk7Zbic8AUhTt2Ht0Z7bQU5+gn9gstet8NW8vi6L9+y0+3hPbpWKqQbUXifPO3Mr/JSLXwKggsONfWsDk0nPxWWT6oGcegDir3nxoM+AAOxQAOI/G6vheKhvK+9nRbVLAy6ecdQp8Z7cKnr9c0hQBvnbdI2CEGmgr+e3si1g2S11ED3Q8+L8UAOQLc1s/S5HAcigHuqQ7K106c8wVFU+cfGAXrfKu3MrtXU0JHbYfVzZu5x9TkGdIXV1d+UwvyjtDtx1Kb31IAIQ/7xvthyfpg06AGnqHhelPTx1h51SqPYn77bz/F9huwZemirvVnlPbiU7lNs+VA44Bd7eu5ztAay7JN75jft43/pAniZbUz0W+POqtXTQKfrp3MxjLmD4ZgXkoFNU5eBTtDGEmSV+XNzFKm3FkiYpujbvy61mvbYThFKnU+YdvQ9q/KXm8q7NB/seCuxh7V63yjZ9tBkwn21Z83cA4uKyV9uwTvGLQviWNF1cPtG3Xhk1pOFKrs17cqtUaDDk+rffrdCZNKnp79rH+tayK+AT9If07hwwnx3a3zrUAGQP0NQNzVu1tH1KVlfC+QN4wCny+fxm3QDS0ODjvbnVCj4E6P9afW3vSn5b2qvOkCH7Un4L/6wcCfx1KgAZOJ8VbxxyAOIATd1gv6mqNG0DVXDtUAdst5b385fyAd0IUnd9bpXrcqtYqS/e8gg2Lp/Jb+SL+c3a2y6D9pPirkAeOn8sq6vH9KQMgAts8dcKyJC3YJ3wX9KwiE/VMgdsbbUbO+SP8v/mN7BZucWljnrdCtfmVmrlQ07oF6XdfLhvDSXVgpFT9LfyQb5WCE+Nqy6nrJILA7DHzpPzzzbzEv07qIYcgGxoaghl50I/qR4oLWVCyXW4PvcQParDIHXQ6ZS5SgeOZQD+Xj7M1bkVHFHVdBmgByud3Ny3PnSrZ5q7nJzPPsZvBuxaBCAPNndCabNTWRIGRF9k+x1winy0by2OAlep6X3Vn3JVqXZloNZXe3hjz/06nC4D+v3+QN9DVEJY10oBSODmd8tO9L841QDkgaZHfvraeFIVHG1Xe4TllU6+WdimjpCaTSTfqqJzMgjdboVre1fyo+JOfRKRE07A35tbRTGkW/ZWVLv0bJysj/yVYGh5rQKQbcDRpgYg2tM/oAmSaqb8px8Vd/LL0h51hAzJv7bSdDlldYYMio3L1wtbuaFvDQWdC5FHTb6vza0K9X1xxClpp8vjOOgU2e+vj181WwFxafI2LBWZOzktYT62L+Y3c3flsDpCBuWXpT06TCw1c2f5EP/T+4Df8vlLndxTOcL7cqv1fgGWVY7qhjiBByudfmquDayuVQDyuNFMI+y28xzWQb7HtdxfN2jDuLjc1Lc2lAUaZShv0P50ql/Ib1I6VampPXaet/Ys4zvF7bq3QuzP5f18KPeQgo9/TTKrmsOciM/OkK0B8rUMQJY3+4qUb//Eiq6trDyPo+Q6vD+3Wul5ZUA6nTJX965QQTmpa4D7ncJ23tW7UlmyQuhHxZ18om+9Mnw+wurqMUraRv6YVgXkAPpgA5Blzb6iFRUFICfyYLUrlJkzTkWvW+FdvSu09UEe15pqN//T+4C2NEpDrKx28Yae+7mjfFCdEQJVHG7Jb+DrIarzMVBl19F79zFss3Mc9ddHiuW1DkB2AoeaO8nW8twJR1vbrwYk51a5RkGInMDvS/u4uneF31724nM9boUb+9by3twqDjtFdUhAHXVKvKN3BX8s7VNnnGguo3nef/HhGdaaByAA/2jmFR1xSux1VC3zsejw1qkFIdf2rmSLghA5ruDafKxvHZ/Kb6CqlURpkvsqR3ldz/38srRHZ0MC5l8rq+t0FvEkcxkFIP818S77KgDpA1bVIwC53QsvaPlP+50Ce1Wb4JT0uBWu6n2QB3Q/hd7Gag9v6nmA28sH1BnS/F9vt8oX8pu4pnclu5SWNBB+VdrD1b0P0qk03ie1w87pTNQjHHCKbLVzfmry34BSPQKQ25ofCR7RHakvBjVRcG3en3tIe69DyqU/xe7beh/Uyqp4zorjZ0O+mN9M3q2qQ3yo263wgdxqPp/fRFUrWgN+L99b0Tzv33Ne322/OulCxWADkM3AjmZe2UPVY3S7Fd2Vj6Cv+INXxeGmvrX8rLhLnREih5wi7+x9kC/kN2nLlXj4/eTyi9JuXtVzL78v7dO2LB9ZVunkDT33809Npk990q0+e5gPz3+cdKEiMoR/+V+A1zbryhxc7q0c4SmxMbozj/9ArVTWiCFxgS8XtrDXKfCW1Awig47PxQ9j/YfSPr5a2EKfviqfUKsRZbgZp8WIkjUjZI0oWSNKixEhY0QBiBkmsePPSszo/2f5eArNEjYVt3+y3OtW6HWr9LoVepx//7+POCV69DFpQDqdMp/Kb+DW8n5en5zG/EibOsWjCq7NVwpb+J1SeA/aikoXfW6VtBEJdT90OWXW+uvM0AFgXT0DkNubGYBA/5KUApB+KytdWp6vkd+W9rKx2sOHMgsYZSbUIQFzwCnwv/mNfqsoWxcWBmOtJJOtNBPNNB1mgpFmglFmnNFmkrjRmCC85NoccIocdkoccoocdIrstPvY4fSx3y6oRsKjrK128/beB1kabeeNyelMszLqFA+5t3KEz+U3cVCZzIakisN9laNcFBsd6n64o3wQx1/vwFvh5A0eagDiQPM+Ey+vdlJ0bRKGFfoH9R/+W57ztE12L//T8wDvz8xncWSYOiQAXFz+UNrPlwubKYSw4nDaiDDTyjIn0so0K8MkK814K+mJlb64YTHJSjPJSj/mJGSXnWeX3ccWO8eGag+b7F59cAEerHTypsoDXBIbzSuTU+nQB5Om2u8U+Hx+k5Lk1HhuE/YA5Nbyfr81eUDnxI2hvv+AJc28yven53NBbFTIJ1bwou5/qGZBHUQweF1yGs9LTBzywyLNs67azefzm0JV92WClWJxZBhzIi3MtlqYYKUwAnIXu7jssvNssHtYX+1hZbWLPXa4EwhEMLg41sGLEpOYYKX00DdQ0bX5aWkXPyruVAXvGksaFj9vfcLD2zvDZrud4/U99/ttSjoOOGnUNNSNdbc2OwC5rXwg9AHIhmqPgo86qeLy5cIW7qsc5Zr0HEbqC6Ov9LgVvlfYEYp6CsPMGAsjbSyNtHN6tJ3RAb5XDYyHV0z+tQ230ynzUPUYD1Y7eaDSyaGQbX+p4vLn8n5uLR/g7OhwXpaYzKxIi14C9e7z0n6+Xdym1Lp1UnBtVlS7OCs6PJTX/6eS71Y/1gwk+Oh/jw/NmcB9zbxSC4Mftp5HuxkL7QP69cJWflTcqTdVnWWNCFemZnFhyJeD/TIx+FVxN98p7gj0Vp3JVpqzoyM4OzqCeZFWrdI9wk67j3sqR7i3cpS11WOhO0ViAKdF23lOfAJnRtsDs/rlBS5wZ/kg3ypsU+2tBnhqfCzvTM0O3XXbuLy4+x9+C24/BFzfiAAEYAswrZlX+4bkdF6YmBjah/PVPfey21b9gka5MDaaNydnMCzEQa+XJwZ/Kx/k/wI6MTAwWBhp4wmxkZwbHaEkCQN0wCnyz8ph/l4+zJoQBiNjzSSXx8fytPhYssezl8ngPmz8tXyQHxd3skPFIRum1Yjy47bziYQsiP5n5QgfyK32W7PnMYAMWLUKQG4Grmnm1U620ny95axQPpg77T5e23Mf0lgZI8Irk1N5Vnwcpr4sesKDlU6+XtgayHMeE6wUF8ZGc2msgzFmUoM9BIedIn8pH+RP5f2hOzeSMCwuiXXwlNgY5mh71oDl3Sq/K+3jl6XdHNZ256a4IbOQs6MjQnXN1+RW+i1b40PAwoH+l2sxczodeKDZV/3FljOYaWVD91B+v7iDbxW26e3UJLMiLbwtNSuU955XrKke49uF7ayodgXqulJGhEtjHVwa62C2Jot1sb7aw63l/fylfIB8yDKjTbBSD99fOtv22LbaOf5Y2sdt5QOqF9RkT4qN5n3peaG53h12H6/vuc9vq7UfAD7SyAAE+iujT2/mVT8zPo4rU7NC91C+sed+tto5vZ2ayMTgsvgYXpGYwggzrg5pkAcqR/lBcScPBawA5wQrxTPj47ksNoakUow3RN61+Wv5IL8q7WF7yN6nBgaLI208MTaK86IjQ32esv9eqHJH+SB/LO9nY7VHD4dHxAyTn7aeH5qihP+b38AfSvv81uy5wPpGByA3Adc286rjhsWPWs8N1f5Wbb/ylrhh8uz4BF6UmEQ25JVb68XF5e/lw/ywuJPNAdpqZWLwxNgonhUfxwJVt26qldUuflXcwz8qRwKfOe2xgpG5kRbOj47kCbGRdIRku1/erXJv5Sh3Vw5zX+UopRDWCfKDq9NzuCwExad73Qov6v6n3+7DVcDiU3vf1MYS+muCNNUbk9N5QYgOo3+tsJUfK/uV52SNCFckJvHM+DhSCkRq9kL+Y2k/vynt5UCADpdHMLkwNoqXJCardoPH7HcK/LK4h9+V91IOaW2HCVaKpZF2lkaHsTgyLFBfn484JZZVOrm7cpjllU4qqH6H1y2JDOMT2SWBv06fbq1/L3BjMwIQgE3AjGZe/WgzwXdbzwnFoWAXl5d038PhkOW695OUYXFZbCwvSExkpLZmDcpuO89vS3v5Q3kfxQB9lUwaFk/VveELXU6Z35b38vPi7lCfAzAxmBXJsvB4ccs5VgvDfXTv5twqK6tdrKh08WC1U5kjfcjA4Aet5wb6nVnF4WXd93DEf8kOZtJ/HKMpAcj19B9AaaoPZRZwfnRk4B/EFdUu3tW7Qm8kH4hicnF8NM+PT2SylVaHnESvW+Gv5UPcVt7P+oDtwY5g8pR4B69KTFUaZ5/pcSv8pLiLX5R2h3ZF5NFGmQnmRFqYaWWZbGWYZKUYbSab/gmw6NpssXvZaPeyqdrLJruHPXYhdFvqguj1yWlckZgU2Ov7bWkvn8lv9FuzlwFnnHpAWTsTgO1AU09NLoy08b/ZpYF/CD/Zt54/lfcj/jIv0spT42N5UnQUCR0wflgVl2WVo9xaPsA95SOB2w5hYPDE2Ehen5wWmn31QXXYKfK94g7+WNqPowntf0kYFhPNFBOtNKPNBKPNBCPNOKPMBB1mgngN3ns2Lt1OhS63zBGnxB4nzx47z16nwF47zyGnqJEJqAlWim+2nB3IfS4VHF7Rfa8fd7a8DvhGMwMQgN8Az2h2TwQ9JW/JdXhB992BrvAcdCkjwkXH6zrMDWkF65LrsLzayd3lw9xTOUKvWwnkdZ4XHcnrktN0xiNgdth9fK2whfsqR9UZpyBmmGSMCBkjStaIkDEi//ExJmVEMI8HGQXXpuw6lHAouFUKrs0xp0K3W1aAEWIfzyxmabQ9cNf1m9JePuu/1Y9uYBxwypU5az3vuRz4fbN74+zoCG7ILAzsw/e38kFu6Furt1BAjDDjD2edWRBpC/QZpk6nzIPVTu6pHOH+ylEKAc42M85M8ebUDM6KDtdNHmAPVjr5fGEzu1QZW6Qhzo+O5EOZBYG6pv7Vj3v8WOjyc8CVg/k/rPVMxwS2AFOa3SOfz54e2OJd7+pdEbiia9KvzYhxZnQ4S6PDWBpp931O/oJrs7p6jAernTxY6WKHnQv8l8u4YXFFYiIvTkwiiqmbOgSquPy2tJdvFbaGrqChSKOZGHy39RxGB6iA5q9Ke/h8fpMfm74AWOOFAATgOk4xFVc9nBUdzkcziwL34O2287ym514tP4fEJCvNksgwFkTamBXJevr8gAvssfOst7tZX+1hXbWbHXYfdoju1vOiI7kyNdNX2YGkdg47RT6d36htWSJ19tLEZF6dnBqIaym4Nq/quZej/lv9uAu4YLD/x/UIQEYCu4Gm/wJ/Lns6cwK2CvKF/CZ+Wdqjt09ItRhRZkayzLJamGplGGclGWemGl4xu9Mps9PpY6f97/9st3P0hvRcUtaI8LrkdJ4WH6ubVLizfIjP5jfSHdBzTSLN1mpE+VHbeYFYZf5mYRs/KO7wY9NfAvzQSwEIxxv0omb3zJnR4dwYoFWQkmvzou5/hHaSJyc23Iwz3kzRYSYYZsZoN2O0GTGGmzEyRpSUYRHDJGZYJA2LyCMe/ZLrUD6edSrvVsm5VXrdCjm3Ss6pctQtccgpcsjp/+cBp6hKwY9wQWwUV6Zm0WpE1RnysC6nzOcKm7irfEidIVIH70nP46LYaF9fwwGnwGt67vNjau8jwHhg0Ms29Spr+hUvBCD3V46yqtrFosiwQDxsfykfVPAhj+moU+KoU2KVuqJhskaUd6Znh6LukJy6YWaMD6Tn89foQT6d3xjqIoYi9fDL0m7fByBfKWzxa12hrw8l+ADqtnZ1J7DSCz30ufymwOxB/21pr944Ih4wJ9LCl1pOV/AhJ3VhbDRfazmT+ZE2dYZIDa2v9vBgpdO37V9Z7eLv5cN+bHoF+NJQ/yX13DjeAzyv2b10zK0wwowz0+dnQdZUu/26R1AkMEwMXp6cwrvTc8lqy5UMUNqIcGm8A9MweKjarSQiIjVy0CnylPgY37XbxuX63EN0uWU/dvv3gW8P/fe0fn4CbPVCT32rsI2cz5e/f17apTeNSBO1mzFuyS7hFYkpga7VIvVhYfCKxBQ+nl1MmxFTh4jUwOrqMVZXj/mu3T8u7mSrnfNjl7vAJ2rzTqxvIx36ixM2VQmHKi6n+7Ry5i67j8/nN+tNI9IkM60sH88uYaqVUWfIkHSYSS6KjWat3c0R/6XdFPGco26JS2IdvmnvbjvPjfm1fj0e8HvgM7X4F9U7f9k3gYNe6LFfFfew06eVar9X3IGrRXuRpnhafCyfbTmNUQEqeiXNNcKM87/ZpTxVaZtFhmxZpZO11W5ftNXF5Zb8Br8ePAe4uVb/onoXD6jQvxLy5Gb3mIPLZruXy+JjMHy0fWKvU+Cz+Y0KP0QaLILB21KzeUVSW66k9iwMzo2OoMWMsrzSqXe8yBB0uWUu9sEqyC+Ke/hDeZ9fu/l24KN+CUAAVgCvAbLN7rkjTomUEWFepNU3o/3l/Ba22L16u4g0UNKw+FBmARf6PMWjeN/sSAtzIq38s3KYisIQkUHZ6xRYEG1jjJn0cBvzfLhvrZ8zs74a2Fmrf1kjSkgWgU96pfe+WdjGLp9sxTroFLmjfEBvFpEGajdj/G92KWdGh6szpCFOj7bzyexShpk6nC4yWJ/Pb6Lq0cl9BYeP5tb6uYjv7cBdtfwXWg1q+KrjkVPTV0EcXLbZfTwl3uH5rVhfLWxho1Y/RBpmkpXmluxSJlppdYY01HAzzhNjI3mg2kmPW1GHiJyibrdCmxljtgfLLnwhv4l/Vo74uXtfAez2YwBSBXLAM7zQi4ecIhkzylwPb8Xaauf4jM5+iDTM7EgLn8wupV1foaVJMkaUC2OjWVHpotOf9QFEmmp9tZunxseSMCzPtOnO8iG+Vtjq5279DfDxWv9LGzlCK4HnA54oHbyy0sVp0eGMNOOeHO0b+tZwwCnqbSLSAPMjbXwss4iMEVFnSFMlDIsLY6NZXT3GYaXpFTklZRwKrs3Z0RGeaM9ep8D7cqup4NusVzbwAqDmJdvNBl/Ee73So1VcbuhbQ68Hl7r/Wj7oy8I6In60MNLGjZlFpBR8iEekjQgfzyxmSWSYOkPkFP2+tI9NHti+XnRtPpx7iD5/F8L+JrC2Hv/iRq9RbQAuBSZ6oVf73Cq77DwXxkZ75jRIyXX4YJ/vb1gRXzgjOpwbMotIemi5XgQgYpg8MTaK9dUerYaLnAIXeKjazVNjY7EMo0ltcLmhby2r/P0xuUD/zqWeIAQg0H8g/XXgjTn/HidPixlljkcOLX2vuJ17/H1QScQXFkeGcUNmIXHDVGeIZ4OQC2KjeKjazSEFISID1u1WsHFZGm1vyt//cn4Lfy7v93s33gD8tl7/8mYEIPuBKcBir/TwikoXi6JtjG5ypeM9dp6b8+v8nCNaxBdmRVq4KbPYUwcVRU4UhDwhNpLllU4dTBc5BWurPcyNtDLWamxtkD+U9vHN4ja/d99u4CX0FxSvi2Z9+rsW6PZKL1dx+GDuIfbY+aa1wcHl5vw6Sq6jt4ZIHU220tyUWURKwYf4RNqI8LHsYqWHFjkFLi439a3lSAOTOdxXOcqn8xuD0H3vAOo6KW7WL3Af/YfSL/VKT5dweKDSycXx0cSbMDH5YXEnt6nooEhddZhJbskuUcE38Z2EYXFudAR3VQ6T1xlBkQHP7dba3Vwc6yBS5/MgK6pdfLDvIar4/kPy3cA19f4jzTyHEaM/Ne8cL/X6/Egbn8guJtrAxaH11R6u6n0wCDetiGeljAifzZ7GZH1FFh/bYffxtt7lSlQiTXiHWowxk4ww46SNCBkj8h/ZAx1cupwyXW6Zo06Zg06BvEcqf58THcH1mQWYdZr2rqke47rcKgr+rXT+LxVgKbAmyAEIwBOAO8FbJckvio3muvTchlRK73YrvLHn/oYuEYqETQSDj2YWcVqTDiSK1NIDlaO8L7da5wWlbhPDCVaamVaWmZEsM6wsE6wUbcaprRy7wAGnwDY7x6ZqL8urnWyq9uI06b59RnwcV6Zm1Xxm99Dx4KPo/+AD4CbgPY26z5rtG8BrvDYCl8XH8M7U7LoGIVUcrutdxYpql954InX0ttQsnhEfp46QwPhlaQ9fyG9SR0hNtJsxTou0c1q0naWRdtrrtE21163wQKWTv5QP8ECls+HByNPj43hbDYOQNdVursutDMLKB8AOYD79xyRCEYC0A+uBUV4biafGx/KO1Ky6BCEu8PG+dTr3IVJnL0xM5A3J6eoICZzP5Tfx69IedYQMykgzzvnRkTwxNor5kdaG7Pp4pE6nzK3l/fyitJtOp3EZ3p4YG8W7U3OGfN53WaWTD/c95JltZrWIz4DfN+qPeSENTAE4ADzXayOxxe6l261wZnRETR9LF/hcfiN/9H+OaBFPWxQZxrvTc+u271ekmU6LtrOyekw1QmTAYsdry7w5NZO3pGZwZnQEo81Ew4MPgKRhMT/SxrMT4xlhxtlp58k14GzTTruPByqdLIkOo8WIDurf8evSHj7Wt45ycM7ufh+4uZF/0Ct5KFcDC/HYgXSAjXYvvW6FM6LDa/J4urh8Nr+J35b26k0oUkftZoyPZ5aQfsQhSZEgMTE4Mzqcv1QOBGULiNTJGDPJy5NTuDY9l0tiHYwxk00JOh57ImowK9LCMxLjSBoW6+0eqnXemtXplvljeT9xTGZGsgP+SOXi8tXCVr5V2BakE1iHgWdS57S7j+alz4IdwFr6t2R5zhNiI7k2NW9IVZMLrs3Nfeu4u3JYb0OROv+gfTK7hAWRNnWGBN7KahfX9K5s2uFe8a4FkTael5jAedERngk4TuaIU+KLhc3cVT7UkL832kzwosQknhQbTfZxPljtsPv4v8K2IM7hngf8otF/1Gt340uB73l1hOZH2vhwZsGgluy22jlu6lvLDrsPEamvNySn88LERHWEhMb3izv4VmGbOkIenq+8KjmFxZFhvr2GO8uH+FR+Q0O2ZQFEMFkcbWOalaXDTGBiUMJmh93Hump3UOdv3wde1ow/7MVw+BfAc7w6UuOtFDdmFjHWTA7ov9/nVvlxcRc/Ke6s+5KiiMDSaDs3Zxbr1IeEiovL1b0rWaWsiqF2erSdlyemMC/SGojr2e8UuD63hi12rwa39g7Qn/XqqAKQfiPoPxMyxqsj1mpEeUlyMhdGR58wVd1Ou487ygf5TWkPvSoYJdIQGSPC11rOZKSZUGdI+GYTTpE39NyvSukhNNPK8vrUdJb4eMXjRLrdCm/vXc5uO6+Brh2X/nMfv2tWA7z6kfBS4E/QwHLkg2BiMNFKMcXKkDqezq3LKbPN7uOAU9DtLdJg703P48LYaHWEhNafyvv5ZN96dURIdJhJXpOcyoWx0YFe9T3gFLmyd1lD0/UG3KeBq5rZAC/fr7cA79A9IiIDcUmsg2vTc9UREnof7lvTsAO80hxxw+SKxCReFJ9EzDBDcc3rqt28o/dBbWcfujXAmfSXwWgay8MddCfwNDy8FUtEvKHViHJDdhEJw1JnSOgtjLTxp/K+INUokEc4JzqCGzILOS86EssIz2m3kWaCmGGxvNqpm2DwisBlQNNrQXj519oG/gq8CojrnhGRE7kqPZu5ATl0KTJUScMiY0S4t3JUnREgw80470nP4xXJKWQGWUDP7+ZGWllrd7Nf29wH63/oP+LQdF5ft9sEvE73i4icyMJIGxfHOtQRIo/wtPjYwGRCErggNoqvtZzJOdERoe4HA3hnavbD527llPwQ+LpXGuOHEVwLjKR/v5qIyMOimNyYWUSrGVVniPzHRM1gTqSVP5T2aSOWjw0347w3PY+XJiYT16Qb6M92mDIi3K8VvlOdSz8TqHgpmPTHPKP/TMg5uocaK26YjDITZIwISSPyX1VCbdel163S61bocSt0OxUq+rmTBnlZYjKvSk5VR4icwFcLW/hJcZc6wocuiI3ibalZgyp+HHQuLm/pWcYm1QcZiD76P+Kv81Kj/HR6aRKwjP46IVJjMcNkmpVhhpVlptXCJCtNh5lg2AnqnJz4pQBHnBIHnAL7nQK77Dxb7F622jm6lD5PamiYGePbLedoKV7kceRdm1f23KP3r4+0mzHenprNuVFNdx7PymoXV/euUEecfFr2YuDHXmuY39InnA/8BYjpnhq6CVaKs6IjOD3SzoJIG/E6p/LrdMqsrXazutrF6uoxttl9uEqnJ4P0ztRsnhofq44QOYlflfbw+fwmdYQPnBcdydXpOf+120Ae2wdzD/GPymF1xIndBLzHiw3zY/62/wd8TvfU4AwzY1wUHc0l8Q5mWNmmtqXXrbCs0sn9laPcXzlKt1vRAMmATLLSfLXlTCwMdYbISdi4vL7nfnbZfeoMj7IweHVyKlckJumtdgp22H28vud+fcx8bLcCl9OfVdaD97z/3A+MA07TvTVw06wMb0hN5+r0HM6KDme42fzMxnHDYoqV4fzYSF6YmMhp0eEkDItDbpGCa2vQ5ISuS89jvJVSR4gMgInBcDPO31Sc0JNGmQluzCwKfDXzemgzY+xw+tip4PrRNgFPocnFBh+PX+/1OHAHcK7uscc308rymuQ0Tou2+2awHVxWV49xe+kAf6scoqhgRB5hXqSVz2T1/UHkVL2ldxkbqz3qCA85//iWq4y2XA3adjvHG3ru1xrIvx2jP2nTBi830q+nN23g18BzgOG61/7bCDPOG5MzeFt6FuOslK8iTQODDjPJubGRPDs+gYlWmgK2Cg8JAO9KzWGMlVRHiJyiYWaMv5YPqiM8MfkyeG1yGm9Jzaz7+csw3Ncb7R72ao4A/Wl2n0P/biGPPwP+VQD+ALwE0F6MRzg/OpJPZJcwN9KK4fMF3ejx7FyXxjo4OzaCsuuwy87j6FtHKM2JtPDa5DR1hMggTLBS3Fs5wlFXGbGaqcNM8rHMIp6kLVc102bEuL18QB3Rf076J/4Iwv2tC7j3eBCi9UvgRYlJXJWeRTSAX1SGm3HOj43k8vhYEobFDruPkmqOhMpVqdk6+yEyBC1GjDsrOgvSLPMirXwiu1jvsRobayW5u3KYrnAH1x8DbvZLY4OQQH8XcBR4WtgfwFckp/Dq5FTfr3qcTNKwWBwdxrPi4xlmxtlh58jrnEjgzbCyvCE1XV8MRYZgopXm75VDHFPWwYa7PD6WD2Tmk9J5j7owMbi3ciSsl/9H4HXgn+0hQflM/tOwP3gvTkziFYkpobrmhGHxnPh4vtN6Dm9LzWKkBzJ7Sf08LzFBwYfIEBnAc+MT1BENnhi/LjmNd6RmE0HnPerlothokuEtTPsz8NeWkKA8CUeAHWG9654QG8lrQrwvPorJM+Lj+G7rOVyVmk27qTqVQdNmxHhidJQ6QqQGLo510GJE1RENkDIsrs8s4EWJSeqMOksaVph/P+pecgAAR5NJREFUJx7wX2Cuzve1GVaWa1Pz9GUYiGDytPhY/q/lHF6ZnEIivF9CAueZ8XHElClGpCbihslT42PVEXU21kzyuezpnBMdoc5okKfGx4TxsvPAegUgzbMsbHdcwrB4T3qeUvg9SsqweHliCt9uOZtLYx0KznwfWBpcrsmSSE09Kz4OU2/HupkfaeNzLaczyUqrMxrc7+PM0KVpfxCoKgBpntCtgPxPcgYTlEnjhIabcd6dnsst2aVMtTLqEJ86PzaKETrfI1JTo8wEZ0dVRqsenhwbwyezS2jVNremeEIsdNuwfDn/DVIAshzCk5N1QaRNX4UHaGGkja+0nMG703P1g+DLH/MOdYJIHVwaG6NOqLHnxifwrvRsIlpdapoLY6MVgCgAaageYFMY7rQIJm9PzdLr7RQYGFwa6+D/Ws/mufEJ2nrgE21GjNOi7eoIkTo4JzZch9Fr+BvzP6kZvDk1I/Cp8L1umpUJ2+4QBSAeEIpzIM9OjNe+0kHKGlHenJrB57KnMVl96HmXxDuw9GMuUhcRTC6IKbtcLfrxuvRcnqf0xp5xXnRkWC61E9iqAERRYN0lDYsXJSbq7TJEsyItfLnlTF6RnKLVEA+7VNuvRPSMefw3+SOZBVwUvm0/nnZ2eDKPLcNHxQcVgPjYc+MTaDNU56IWIhi8IjGFz2RP02F+D5pkpZmm5AEidTU30sqY8GUNqolhZoxbsks5Q4f5PXhft4TlzKdvd/4ELQBZDvQF9S6LGxbPS2iJt9bmRFr4SvZMXpSYpNUQDwnRErpIU50bU52KU9VhJvlUZikzraw6w5OTW4MzwxEY3qUAxBvKwL1BvcuerOq1dRMzTF6XnMans0u1GuKVSZGKd4noWfOgSVaaz2ZPY7x+Kzzt9OAnMKkC/1QA4h13BvEuM+jffiX1NTfSypezZ/CM+Dh1RhMNM2PMiujLokgjLIi0KUX5KQQfn8gsod3UVmivWxJpD/qehmVArwIQ7/hbUH8g9GW+MeKGxdtSs/hQZgEZI6IOaYJzoyOUylKkYROB0GxXGZLpVpb/zS5V8OET7WaMCcHOdunrD+5BDEDuA/JBu6inxFUwqtHOj47kCy2n6yB0E5ylLSEiDX7mFIA8nplWlk9kF2ulyGeWRIYpAFEA0jCBOweSMCyeGFWu9mYYZ6b4bPZ0VZ1vIAODBZE2dYRIAy2ODtOa4wnMj7TxyewSsgo+fGdRcH9LqsA/FIAoKqyrs6LDSRqW3iRNEjdM3pGazbXpuSQ0DnU33cqQ1dY3kYZqMwK/XWVQFkTauDGziJTeSb40L9Ia1Et7EOhRAOI9fwvSxZyvdKSecEmsgy9lz2CKtmTV1aLoMHWCSDOePa08Pqo/hh0PPvThya+Gm3FGmQnNcxWANMx9QCEIFxLF1N5cD5lgpfhc9jSepKq3dbNQkyCRplgcUfD/L2dGh3NTZpF2HwTAnEhLEC/L9zt9ghqAlIC/B+FC5kdatfTrMQnD4r3pebwuOU2ZmmrMABYEd8lcxNN09qrfksgwPpheQMww1RkBMDd4vynlIMxxg/x0/SkQL0JtR/HsRPlFiUm8Lz2PuH6kamaMmdRBT5EmaTdjjDDjoZ+sfjizUO/1AJkRvGr1f8fH9T/CEID8IQgXsTQS+EqevnZBbBSfzCgvfM1+KFR8UKSpplvZUF/7R7XtKoDjmgnaXoU/BuEighyAbAS2+vkCUobFTE3IPG9OpIXPZ09nqg6na/Ij4vePACF9BqdaGT6RXawMfAGUMiJ0mMkgXVIgPrAHfY3R11HiLKsFU2cMfGGUmeAz2dM4VwX0NPkR8fNHgEj4PqRMsFJ8LLNY2z8DLEAFhXcB6xWAKACpq9nBzNwQWEnD4kOZBbwgMVGdMUhaRRJp9kQtXB8BxpkpbtE22uD/tgQnsP5dUC4k6AHIX4G8AhBp3ANl8MbkdP4nOUNrV6coZUQ0CRBpstFmPDTZn0aZCW7OLtZ7JwQmmKmgXMofg3IhQX/LFIC7/Nr4afoa7FvPS0zg3em5RBSGDNjYYO3RFfElAyNo++Uf03Azzi3ZJXQEs0idPMpEKx2EyygRoELbYfjM4ctoMW5YjNaL0dcuiXXwwcwCpXMcaABiKQAR0ceA+ksZEW7MLGKMPnqExjgzGYTPgX8DcgpA/OPXgOu3Rk8yUypyFwDnREdwU2axiklq0iOiZ9EDYobJDZmF2mEQMgnDYoT/P+r+JkhjEoYAZCewwm+NDshyoQALI218MruEVmVYUQAi4odnMaCrkSYG703PY6EqvofSeH//xrgKQPzpl35rsJaGg2WmleXT2dMYpW11JzQ85BWYRbwiqNXQ35yawXnRkRrgkPL57++9wB4FIP7zC781eLSliWrQTLBSfDq7lAlWSp3xGNq0QiTiCUFcrX11cirPjo/X4IaYz8/V/jJo4xGWAGQdsMFPDR6jL+WBNMpM8KnsUiZpi91/ByBKhSnikY8BwXoWnxEfx0sTkzWwYf/99feH3V8rAPEvX62CjNB2lED/uH88s5hxplZC/rNftAIi4o2PAcF5Fs+LjuStqZkaVPHzCsgqYJMCEP/y1fLVMENfg4NsuBnnk9klOnh9XNywiBuWOkLEAzJGFCsAWRiXRIbxvsw8TGWUFGCE4dsPu78M4niEKQBZBmz3Q0Njhqm0rSEw8nghLCUcgIzudxHPMIC0z5/JCVaKD2YWEEV1mKTfMP9u81UAEgC/8kMj27T6EaIgJHG8Gm+4g5CYJgkinhL1cQHVlBHhQ+kF+rAh/yFjRPwYkG4BVisA8b8f+ePlqa0oYTLq4SAkvIkHIoa2SIh4KgDx6fTgX7U+lOhDHosPzzf9MKhjEbYA5H58cJBHS8bhM9pMcHN2SWiTD2gFRMRjv0M+/SjwxtR0zooO1wDKY/Lh+dofBXUswvir7/nB9PPStwzeODPJJzLhrJiue15EHwWG6oLYKJ4Xn6DBkxPK+msF5EH6y0goAAkIzy9n6WtweE2wUtyUXUwyZNvwIrrnRbz1O+SzjwLjzBTvTM3WwMnj8tkW9x8GeSzC+Ku/4XhU6Vn6GhxuM60sH84sDNWk3MbRwIt4SNV1fRUsfSAzX9kj5aTS+OYecQjw9quwBiCejyq1AiJLIsO4Jj0nNNnr/TTZEQmDio8+CrwtNYtpVkaDJicPQPwTpN4F7FEAEjw/AGyvNk4rIAJwUWw0r01O02RHRBr/TLr+eCYviXXwlNgYDZgMiI9WyX4Q9LEI60x3H/B3zwYgqtoqx70oMYnnJYJ/qNIvkx2RsCjj/VXJDjPBW1MzNVgyYAl/fOAtA79QABJcP/TuoCgAkX97U3I6T4qN1mRHRBr3TLq2p9tnYHBNeq7vK7ZLY/nkbOUfgaMKQILrp0DJiw2rajImj/qhvTY9l9Oj7YG9xoJb1UCLeEgRbwcgL0lMYmGkTQMlp8TyR32bH4ZhLMIcgHQBf/JmAKLtKPKfIhh8ID2fyQGt7tvnVnXfi3jmg4BNycPbImdaWV6enKKBklPmgyQ/fcDvFIAEnyejTGUEkseSMiJcn1lAJoBbDlygx9EqiIgXdLtlz7bNwuAd6dlEtFVZBnP/eH8F5BfHgxAFIAH3a6DHa40qeXzpW5pnnJni2vRcjAD++HZ5eNIjEiZdTsWzbXtpYjLTrawGSQY56fX8b+cPwjMW4VY8HoR4St5VACIndnZ0BK9ITg7cdXU7CkBEPPEsevRjwFQrw0uSkzRAMmiOt8/YHgZuVwASHp7bhtWnA7lyEi9LTOHM6PBAXZNWQES84ZgHV0AsDK5Oz/FLFiPxKI/vcP8xEJoJoJ5kuA045KUG5RSAyEkYwLvTcxluxgNzTQecogZWxAP2OwXPtek5iQnM1NYrGSKPr4D8MExjoQCkP9r8iZcapBUQGYhWI8p16bmBqRuzzy5oUEW88Cx6LABpN2O8PDFZAyNDZns3ANkJ3KMAJHy+76XGFF1b50BkQBZHhvGSRDD2RO9zFICIeMFeO++p9rw1OUsFB6UmPLwC8h0IVxE4BSD97gU2ealBR7QdRQboFckpzIm0KAARkZrw0hasM6LDeUJspAZFaqLg3Y+7PwjbWCgA+TdP7b077JQ0IjLAh9jguvQ8kobl6+vodEoUtfIn0lS9boVej2wDjhkmb0vN1KBIzXi0wOYyYIMCkPD6Lh5a/jrsKgCRgRtrJnltcpqvr8EFttt9GkyRJtpq5zzTlhfEJ9JhJjUoUjMFb9ZZ+34Yx0IByCPeu8B9XmnMEa2AyCl6Vnw8p0fbfX0Nm+1eDaRIE22peuMZHGbGuCIxUQMiNeXBVXYb+JECEPFMFHpYZ0DkFBnA21OzSfh4K9YWBSAiTX4GvbEC8vrkNFI6eC415sEzILcBBxSAyI8BT1Rg0gqIDEaHmeCViSn+nfxUFYCINJMXViFnWlkujXVoMKTmelzPFdn8fljHQgHIfzoM3KoARPzseT4u2LXd7qOKo0EUaYKS67DHAyl435yagRGQ+kaiAORx5IFfKQART0WjhxSAyKAfaoOr0rOxfPgDXsFhk1ZBRJpivd3d9EJt50ZHMD/SpsGQuuh2PBWA/BLIhXUsFID8t18B3c1uRK9b4Zhb1mjIoMywsjw7Md6XbV9VPaYBFGmC1ZXmPnsmBq/xeTY/8bYeb82rvh/msVAA8t8KeGRJTClJZShemZhKuxnzYQDSpcETaYKVTX72Lo11MNlKayCkLio45L1zCP0Q/QfQFYCI96LS7XZOIyGDljIsX35NXFvtpuqdkjwioVB2HTbYPU37+zHD5JXJKRoIqZujjqdWP34EVMM8HgpAHttfgL3ND0C0AiJD85TYGOZEWnzV5oJrs6nao8ETaWTgb3dTbmKV6KfHxjHKTGggpG4Oeau8wffDPh4KQB6bgwcKw2gFRIbKAN6SnOm74+jLKp0aPJEGeqBytGl/O2aYvFBFB6XOPFRfbQvwgAIQ8Wx0usPuw9VWFBmi2ZEWLoyN9lWb/1k5ooETaaB7mvjMPS02lhFmXIMgdeWh7KLfBU3uFICc2ApgfzMbUHRtDqgiutTAa5LTiProcd9i9+reF2mQvU6e3U2q/xHF5IrEJA2CNCAA8cxvyh81GgpATmZjsxugcyBSCx1mgmcmxvmqzfdqFUSkIe4uH27a335aXKsfEroAZKNGQwGIDwIQnQOR2nhZYgpZI+qb9moblkiwn7UIhs5+SMPsatIq36PsBZRlRQGI9wMQVYWWWskaEV6QmOCb9q6qdNHlqBinSD0dcUqsb1LWuUtiHcp8JQ1RxeGgN1ZAtPqhAGRg8/9mN2BttVujIDXznPgE2gx/FCe0cflr5aAGTaSObi8fwGnCeVgDeL5WP6RB9tiFptznCkAUgPj2RjnmltnvFDQSUhNJw+L5PloFub10QIMmUucApBnOjY5U1XNpXADi5L3SFAUgCkAGZDvQ9Lxt67QKIjX07Ph436yCbLJ72aFEDCKBe76u0OqHNNAu7/yObNBoKAAZCBvY1vwAROeVpHYShuWrg5/N+kIrEnS3lZqTaX5epJW5kVYNgDTMFu8k9NEKiAKQAVvb7AasqnZpFKSmnhkfR6tPMmL9sbSPsuto0ERqqOTa3F5uzhmr58YnaACksQGINxL69AG7NBoKQAbqwWY3YKfdp2xAUlMJw+KZ8fG+aGu3W+HOyiENmkgN3VY+QK9bafjfHW7GOS82UgMgDZN3q145S/sgoK9pCkAGbFmzG+CiVRCpveckxpM0LF+09RfF3RowkRr6TWlvU/7us+LjiGBoAKRhttg5b+S/8sB8UgGI/wKQpt+7K6vHNBJSUy1GlMtiY3zR1s12r5IxiNTs96SLbU3YEx8zTJ4WH6cBkIb/fnjEco2GApBT0YUHDqKvqHRqJKTmnpeYiOmTr5G/LO3RgInUwK+KzXmWLoiO8s3ZMwmO9d5J5KMVEAUg/rtp9joF9qoeiNRYh5ng3OgIX7T1zvIh9th5DZrIEOyy+/hH5UhT/vbTtfohTbDWGztIeoDNGg0FIKfKE8tm91eOaiSk5p7rk8KEDi4/Ku3UgIkMwfeKO3CbsKt4opVmnlLvSoPtdwocdkpeaMpydABdAcggeGLZTAGI1MPCSBvTrIwv2np76QAHtBIoMih7nQJ/Kzcno9wztfohTbDGO2cHtf1KAcigb5xqsxuxqtpFybU1GlJzz/FJXv4qLj8qKo26yGB8r7AdpwmrH3HD5OJYhwZAmhCAHPNKU+7XaCgAGYxePFAPpOw6PKh0vFIHF8ZGkzEivmjrn0r7OeAUNWgip2C3neeOJhUefGJ0FFmfvF8kWFZWPBGAuMBdGg0FIIP1Ny804u7yYY2E1FzcMLnEJ18oqzh8s7BVgyZyCr5W2ILdpIzyl2j1Q5rggFNgr+OJxCVrAFXTVQAyaH/1QiP+UTlMVeeYpA6eFh/rn4exfJC1qgsiMiCrq8f4Z5MyXw034yyJDtMgSMPd551zs3/TaCgAGYq7gUqzG5Fzq6zyxpKiBMwUK8OcSIsv2uoCXyls8Up1WxFPPytfzjcv++elsQ7f1BqSYFnmnfppf9VoKAAZ0twfj6TjvbuibVhSH0+L+SdTzbpqN//QsyDyuO4oH2BTEytBXxwbrUGQhqvisNIbZ2Yd4O8aEQUggYhi764cbkomEwm+J8RGEjP881r4Yn4zBWWGE3lMebfK15p4Xmq6lWWKT1J8S7CsrBzzym/DauCIRkQBSCACkC6nzIMVZcOS2ksbEc6MDPdNew85Rb5X3KGBE3kM3yxs40gTi7BdGBulQZCmuKvimTPff9NoKACpyT1Nf0repvtL+YBGQ+o0afDXlomfFXex1c5p4EQeYZPdy29Ke5vahicoAJEmcHD5Z9kziw5/0IgoAKmFEnC7Fxry98phitp6InVwTnQEKR/l7Ldx+VR+A662JYo8PAH7VN+Gpm7VnR1pYayZ1GBIw62qHuOYW/ZCU3Ko/ocCkBr6rRcaUXRt7qloW6HUXswwOTc6wldt3lDt4ddN/tor4hU/Le5is93cxfonRbX6Ic1xV9kz26/+SP+Ha1EAUhO/Azyx9HCbtmFJnVzow8w1Xy1sYYfdp8GTUNth9/Ht4vamtsFA26+kOaq4XsoU+luNiAKQWjoM3OeFhjxQ6eSQU9SISM2dHm2nzYj5qs1l1+HmvnVUtRVLQqqCw419aym7zS1WO93KMtpMaECk4e6vHKXL8cT2K5v+FRBRABK8qNbF5c/l/RoNqTkLg/NjI33X7s12L98v7NAASih9q7CNbR5IyHBObIQGQ5riT6V9XmnKP1D6XQUgdfAbrzTkD6X9qgkidXGRTwuI/aC4g3XVbg2ghMqqahc/Le72RFvOiSoAkcY75pa5v3LUK83R9isFIHWxDtjghYYcdoqqCSJ1sSDS6rttWNCfFesjfWvodisaRAmFLqfMjX3rPJEJboQZZ7qV1aBIw91aOuClLbi/0ogoAKmXH3qlIb9T9h+pAwODs6LDfdn2w06JG3JrtDoogfevgPuo441kO+dER2BoWKTBXOCPZc9sv7oP2KJRUQBSL98/fs833T8rRzigw+hSB34NQABWVLv4TmG7BlEC7RuFrayuHvNMe87w8TtD/OuBylF223kvzQ9FAUjdbAXu90JDHFytgkhdnB5tJ+Lj18T3izu5zzt7gkVq6u7KYX5a3OWZ9lgYLIq0aWCk4X5R2u2VplSBn2hEFICEJsr9Y2lf01MvSvCkjAgLIq2+bb+Ly0f71ngiM5BILW2xe7m5b52nNhnOi7SSNiIaHGmoPXae5d45C3s7cFCjogCk3n50PNptum63wh0V3fNSe6dF233d/rxr8/7caq/khhcZsk6nzPtzD1FwbU+1y+/vCvGnn5d2eyIBw3HafqUApCEOA3/xSmN+WdytI7eiScVjOOgUeW9uFSWPTdhETlXJdfhA32oOe/Dc32kRBSDSWMfcMreVD3ilOXmU/UoBSAN92ysN2WrnWF7p1IhITU23MrQaUd9fxya7l4/n13vpS5nIKXGObyncUO3xXNuShsWMiNLvSmP9pLiLonc+LP0C0H5fBSAN83PgkFca8+PiTo2I1JSBwaLosEBcy53lQ3w2v0mDKr7jAp/Ob+SfFW8WV54facNSAl5poG63wm+9lYDnKxoVBSCNVMZDqyArql1ssns1KlJTSyLDAnMtvy3t5Uv5zRpU8ZWvFbbwh9I+z7bPz8kqxJ9+XNzppXNQ64F/aFQUgDQj6nW89FCK1HZy0Rao6/l5aTc/0nMiPvHtwnZ+4qF0u2F4R4i3eXD144ug/b0KQBpvKx46jP738mH2eKcgjwTAJCtFNmDpNb9e2MqvSns0uOJpPy3u4rtFbxfUjBkmsyMtGixpmO8Utntp9SOPsl8pAGkiz+z9c3D5fnGHRkRqxsBgTgC3WHwhv4mfefzLsoTXj4s7+Uphi+fbOcPKEtV0Qhpkl93H7721+vEDoEsjowCkWX4NeOaJ+Ev5ILu1CiI1NC+AAYgLfLmwxfNfmCV8flTcydcKW33R1tmWVj+kcb5U2ELVW7uddPhcAUhTVYEve6UxDi4/0CqI1NDcAB8y/XZhO1/3yWRPgu//Ctt8dT/O0vYraZD7Kkd5oHLUS026B1imkVEA0mxfxEM5oLUKIrU03coGOsnmj4o7+WJ+s+qESNM4uHw2v5Hv+ezj0SzV/5AGqOLyVe9tSfy4RkYBiBd0At/w0o/Z97QKIjWSNSJ0mMlAX+MvSru5PreGkutowKWhSq7Nh3IP8Rtv7W0fwHshylgzpQGUuvtxcSc77T4vNWkj8BuNjAIQr7gFqHilMXeUD7JZdUGkRsJQ6fjuymGuzj1It1vRgEtD9LgVrsmt9GyRwccz3cqo/KDU3W4778XkOp/EQyUYFIDIbuCnXmmMi8s3tLddahWAWOHYarG+2sPbe5ezzylo0KXuE6u39CxjbbXbl+2fYmU0iFL3ecwt+Q2UvbUyfRD4nkZHAYjX3IyHCtIsq3TyYKVToyJDNtlKh2pi+KaeB3z5VVr84b7KUd7au4z9Pg50w/ROkOb4dWkva6rHvNaszwBFjY4CEK9ZDdzmpQZ9pbBFh2tlyCZa4drrnXerfDC3mq8Xtur5kZpx6U968L7canJu1dfXohUQqae9Tt6Luzh68VDWUwUg8mgf8lJjtto5bi8f1KjIkIwxk6ErOPavyeIHcg/R5/PJonghqLW5PvdQIIJaA62ASP1Ucfhobq2XKp7/y6dR4UEFIB52D/AHLzXos/mN7HWUlleG8sIwGGclw/lAV47w/3qXsUVJHWSQNtm9/E/PA9xdORyI6xlhxkkalgZW6uJrha1s8t77thv4lEZHAYjXvR8PnQUpuDYf61uHra0kMgQTQ/zFc7ed5//1LOM7xe3akiUD5gK/LO3hyp7lgfoIpPS7Ui8PVI7yi//f3n3H2VHX+x9/zam7Z/umk4SEToAAISKIUlSKBRTx2lDxXgt477X8rnpRUWzYsF4rAhdFwB9VpDeRTkJCCqmbnk3dzfZy+rT7x5zQTGA32T17Zub9fDzmkTzysMx8vnPOmc98v9/PJ7+tEk/tZ2j2Y0To1cXoagOOA2ZVygl1OQVcYE68SaMj+2StPeDbij0jwQGWWX2stgeYG2vWG2B5TX1ukSsyK7mrsB0nYEnrCfFmTomP1yDLiOp2Cnw1/QL5yqtw2w1cCBQ0SvtPMyCj73IqrE70/89vYamlBF72zcRIlYIALDZ7+OzgwsAsp5GR93hxF5/qX8BCszuQ13dApFqDLCPKxeXHmdWV2ofpSmBAozQy9Opu9HXizYAcU0kntdTq5azkFKr09laGqdct8rgKGgDessYnih2stwc5LtZIyogpKEKvU+Qn2dXclG+lEOA+Zecmp2oTuoyo63ObeaTYXqnPch8HihqlkaEZkPL4BhU2ZdflFPhppkXr2GXYJmsG5J/MN7v49MAC7i/sVDBC7sliB58aWMDTxeDPjGk2VEbSUquXm/NbKvX0LgfSGqWRo9ff5dEL1ANvrqST2u5kiRgGx8W0H0SGLmYY3JrfqkC8ShGH58wuVtv9HBGtpyESV1BCZIud4QeZVdxa2BroWY+X+3j1TGo06ycjoMcp8rX0C2Qrr+QuwGrgYgjJB7tMNANSPlcAFTeveEOulQUBXZ8so6PWiBPFUCD2YpHZw2cGFvD77Hqy6hsSeHnX5ob8Zi4ZeD5Ue+sMoDmS0A0g+83G5YrMSnqcil3d9F+AvsyVgPjWIBXWnBB2b/haxU4npxGSIT941Ovt/muycLmzsI1/G1jAP4rtWugYQC4uDxXb+PjAfG7IbcYK2cvReiNOTI8QMgL+lNvECquvUk/vbuARjdLI0xKs8noBOB+YVEknVcRhmdXH2YnJxAz9oMjr+3uxnT5Xe/FeT861ecbs5GmzgwYjoQ27AbHE7OF7mVXcV9hBvjKXjIy6qdEU5yWn6maQ/fJUsYPf59ZX6ukVgQvwyu+KEhBfc4F1wCcq7cR63SIdToG3JCZolGRIPxrtTl6BGKI+1+Qps4PFVg9ToykmafOuL7VYA/w441W36gl5Aj4jWsPZySm6KWSfbbTTXJ5ZjlW5c8T/A9yskVICEhSb8UryHlVpJ7bJTpMwIhwTa9QoyWt62uxke4A6OpdLp1Pg4WIbG+xBpkSqGR9JKig+sMrq51fZtVyb28guJd4AHBqt44zEJAVC9smAa3Lp4AuVPJPeDnwI0Ad+lKh8xdj4PHAmUHFP+tflNjIxUsXb9MMir0H9Y/bPPLOLeWYXx8Qa+XDVgZwUH69t/RVopdXPrfktzDe7FIxXUfUr2VcWLt9Lr6Stsveefh7o02gpAQmadrya0r+ptBNzgZ9nW5gSqWZWrF4jJUpARvUBt49vpvs4PFrHh6tm8ObEBFUYq4CHo6eKHdya38JGW2X/96ZWCYjso99n1/FCZVeMewi4QyM1uvQUMXYWAWcD0yvtxGxcFlhdnJ6YqLdcskdLzR7W2AMKxAjpdos8aXbwQHEn/a7J9GhKn70y63GK3F3Yzo8yq3m42Eaviiy8phPizcyJq4eUDM99hR38Ob+5kk8xC5yL179NRpF+4caOA1wCLAYqrqZpj1PkG+nl/KpuLim97ZZXiapa2qh97m7Jb+GO/DZOTUzgvORUZscaNScySlxgmdXLvYUdPFvsrOTNsBUnru8AGaYFZje/ya6r9NP8DrBJo1WG5wiFYEx14HVIP6UST67PLdJiDXBGYhJRQ49A8pLnrW5aLM2AjBYHl1Y7w8PFNh4qttHnFpkYqVL/lRGyzc5yd3E7v8is4a+FbWyxM2pxPExz483MVsESGaJ19iDfTC+jWNmftGXAJ1HHcyUgIfE08D5gYiWeXLuTZ7Od5rTERCJ6Dysli8weWrQEqyyyrsVKq5+7Ctt53uqmiMOESJKUlmgNS6dT4JFiO7/NreO63EaWWX0MqlP9PjsxPo6jYw0KhLyuNifHf6eXVvrnzQLeC2zXiJWHfsHGXh64CHiOClyKBV7Fnp9lWri05iilICJjqMUaoMUa4LesY2a0htMSEzk5Pp7Do3UKzl4efJ4zu3my2MEqq08LrEaQZsVlKPpdk68NLqPXqfg9Vd/F25srSkBCZQnwE+AblXqCfy+2My6S5NPVh2i0RGvlK0CrnaE1t5kbcpuZHk3xxvg4Toh5y2LCum8r61oss/pYavaywOxmh3rVjBrH1XeAvLaCa/PN9DI/fA6XAFdqxJSAhNV3gXcAcyv1BG/Jb6HeiPPBqgM1WiGX1dKVirLNzrLNzvJXthHF4MhYPXNiTRwfb+KIaD3VAU1Isq7FGmuAZVYfS6we1lmD2EqOy8LUMnl5DRYO38us9MNewd2rUEyNmhKQ8H6fex+CxUBVpZ7ktbkNxAyDC5LTNWIhlnNtBaFC2bissvpZZfVzU76VCAYHRlPMijUwK1rPEbF6ZkRriPlsQaWFyxY7w2qrn7XWAGvsAbbYWVwlHGPzg6UZENkLB5cfZVazwOz2w+l+HVilUVMCEnargW/hLceqSC5wVXY9gJKQEMuiBMRPDwOtdoZWO8OD7Cx98RtMi6aYEa3hwEgNM6M1TI+mmBypHvPlW1nXos3Js610zludLK12hp12Vkv/KikB0QyI7PEZweXHmdU8Wezww+n+A/i1Rk0JiHh+BpwKnKckRCpV2tFstZ9ZL0tKXq3WiDExUsXESBWTIlU0RxLUG3HviMSpM2LUGfEXq3DVGNG9VshzcMmUZssyrsWgazLomAy6FgOuyYBr0u0U6HAK7HLydDh5Mlre5wt5zYLKHp4Nfp5dw2PFXX443Q68VSfKpJWAyMs+w58CXgAOqOST/H12PUXX4cNVMzRqIdPlFhSEoCaXrkXaTrPJTg/rv2eUkpfd/xuaqwi2flcvIeSVrslt4KFCmx9O1QE+DqUpYRkTamVamTqBC6Hy17lcl9vIbfmtGrEQcXDp0wyIvIoLDLoWg0o+QqGv8suqShk/+1dl13O7f54FfgI8opEbW2pEWLm2lBLEMyr9RBdbPaRdizfEx6lPSAh0O0VuLyjpFAmzaiPGe5JTFYiQc3D5ZXYt9xR2+OWUF+LNfmjp1RjTDEhluwJ43A8nemdhG7/MrsHRu8/A63DyCoJIyPW5mgEJO7u04fzBgm9WMnUDH0Qld5WAyBA+3/ABYLMfTvaBwk6+k15B0dWLhSDbquZuIkpAnKI2ooeYhcMV6ZV+2XAO3ozHx/BWl4gSEBlixn4B4IunvnlmF99IL1OjuiAnIHuonCQi4eICbU5OgQghr8P5cp4xO/102l8FHtLoKQGR4XkBuMQvJ7vU6uULg4tp11KdgCYgmgEREdipBCR0BlyTS9MvsMjs8dNp3wn8XKOnBET2zU34qGFOq53hcwOLWG31a+QCZqM9qCCICDtsJSChGm8ny+cGFrHKX7/ry/H6fWiDqhIQ2Q9fAZ7wy8n2uUW+PLiUR4vtGrmA2OXk6XTUA0REYOMwe8WIf7VYA3xxYInfZr26gPMBrRtWAiL7yQTeD6z1zwk7XJlZzQ35zXr9EACrNKMlIiXr7AEFIQTmmV18Jb3Ub5XPivioiI8SEPGDHuCdQIdfTtgFbsht5vL0cga1OV0JiIgEwnY7S0bf6YF2W34r30mvoOCvimcu8Cl8tGJECYj4xWbgXHxSGWu358wuLhlYyFpLb838apHZrSCIyItPeeu0JyyQCq7NDzOruCa3wY/9vS7H2zcrFUyd0P1rJ7Aeb0mWbxqQZ1yLR812mowEh8XqNIo+ssXOcFO+VYEQkReNjyQ5Id6sQARIp1Pg65llfqt0tdv1wJc1ikpAZHStBnLAWX46aRuX+WYXXW6BObEmYoYm4vzg4WIbS6xeBUJEXpR3Hc5NTlUgAmKF1cel6RfY7s9y638HLsRr4ixKQGSUzQNSwJv9duLr7UGeMjs5KtbAuEhSI1nhrsptoFsVsETkZXrdIucmp1Jt6HHCz1zg9vxWfpJZTdafHe4XAu/GeykrSkCkTP4BTAVO8NuJD7gmDxXacA2YHWvE8M9qslDZbKf5U26TAiEi/+TAaEpLan2s3zX5XmYl9xR24PjzEtbhrQTRFL0SEBkDDwCzgKP9duIusMzqY6XVz/HxJmqMmEazwtyc30KLSm6KyB5kXZtzklMUCB9abvXx1fQLrPdvMYHtwBl4+2JFCYiM0XP8vXhLsQ7y4wW0O3keLO6kxohzeKxecyEVIu/a/DTbQsGv78ZEZFR1OHnOTk6hVi+PfMPB5cZ8Kz/LrPFzKeUO4K2ApueVgMgYs4DbS0nITD9egInLArObJVYPx8QaaYjENapj7K7Cdp41uxQIEdmr+kicY2ONCoQPbLOzXJ5Zzj+Ku/zcILgXOAdYqRFVAiKV8gwPdwBvAWb49SI6nQIPFXcSJ8IRsXoimg8ZE0XX4fvZVeRcFRURkb3b6mR4b3IaUUPf1ZXKBR4o7OQ7mRW0O3k/X0ofcDawWKOqBEQqLwm5HTjVz0mIjctiq4dnzE4OjNYwOVKtkS2ze4o7eLLYoUCIyGvKuTaTIlXajF6h2p0c30mv5K7Cdiw/z3tAfyn5WKRR9Te9qgi2BuBh4KQgXMyb4uP5XOpwJkWqNLJl0OsU+eTAcwz6d32wiJTR1EiKPzWcpBnrCmLhcmd+G3/Ob6bg/5ns3cnHQo2s/2kGJNgKeMuxTgOm+/1itjtZHih6hS4Oj9apgeEo+3V2rSpficiQDbomEzULUjFWWH1cnvb2etj+nvUA6Mbb8/G8RjYY9JoiHFLA30pvDgJhXCTJJ6oO4pzkFKK6jUfc82Y3l6WX+f8nS0TKqt6Ic33DydQbKiAylongjblW/lbYjhuMb/FdpeeX5Rrd4NAMSDiYwG14PUJmBeGCcq7NfLOLJ80OmowEM6I1SkNGSI9T5LLMMm08F5FhK+BQcB3eGB+nYJSZhcu9hR18O72SZVZgevJtxSu126IRVgIi/mQDf8Urz3tcUC5qwDV5yuxgodVNUyTBtGhKich+3SQu30wvZ4udUTBEZJ+stQc5JtbAlKgKh5TLErOHb2dW8EixnWJwejatLSUfmzXCSkDE33Y3KxwPnBikC+t2Cjxe3MXTZgfVRoyDojUYSkWGfXP8MruWZ81OBUNE9ssiq4czE5OpNvSYMapP6NYAP8ys4qZ8K32uGahbCDgLaNMoKwGR4DxnPsBLdbQD9ZTe55o8a3byhNlBgggHRmuIqS79kPwmu5b7CzsVCBHZb3nXZqOT5m2JSaqKNQo22Wl+lV3L1bkN7PJ3T489eRR4N9CjkVYCIsGzAG9a89wg3gcDrsl8s4v7CjtIuxbTozXUGDGN+h7YuPwmu457CzsUDBEZMW1Ojl1OnjcnxmtGeoS02hmuzm3g19l1bHUCuVT2BuBDQE6jHWz6RpBz8Er11gb5ImMYvCUxkXclpjAn3qQfw5Ksa3FFZhXPm90KhoiMivOT0/hc6nAFYj+sswf5S66VeWZnkKsT/hD4JqgAoxIQCYvZwD14G9QDb1KkinOSUzgnMSXUTQ0Xmz38LreerdpwLiKj7KzEZD6fOoKU9oQMmYPLPLOLv+a3scLqC/KlFoHPAn/SqCsBkfAZD9wJnBqem9/guFgjpycmclpiIg0hqVu/zh7kj7mNLDK1vFZEymdypJqv1czimFijgvEasq7Fg8U27spvp80J/EqkbuBfgCc08kpAJLySwDXARWG78AgGc+JNnB6fyMnx8TRHEoG6PhdvxuO2wlaWKPEQkTF86DgzMZmLqw+lKWDfs/trnT3I/YUdPFbcFZY+TOuA80p/ihIQ0T3B14ErgEhYgzAzWsPJ8fGcEGviuHiTb7utdzsFnjI7eaCwk812Wne37FGtEaMpkqCaKLWROCmiVBvekTJi1BoxqowoKSNKcog1K6KGQepl/9lqI0b0VRXpcq6F7boUcCi6Djbuiw9eg65J2rUYcE0GHJNB12LQNRlwTQZdk4LraOB8fs9dWDWT9ySnUhXiZVm9TpFHi+08WGwL23LY+4CPAgP6NCgBEXm5twK3ABPDHog6I87sWAPHxhqZHWvk0FhdRSck7U6OZ4tdPGt2stLqx9F+vtCqMqIcEKlmQiRJUyTBeCNJYyTB+EiSJiPBuEiCZiNJwvDfu4aC6zDgmnQ4eTqdPJ1OofR3788ut0CPU9RNUOEajDgfrDqQ85LTQrM/pN81eabYyRPFXSyz+sL2He0CPwEuA/QWQQmIyB5Nx+uefqJC8ZKUEeWwaD2Hxeo4LFrLYdE6pkVTY1brvt3Js9LqY7nVxwqrj212VoMUIvVGnAOi1RwQKR0v/j0VuKWEw2Xi0OEU2Gln2epk2W5n2WZn2epklJxU3PdqjLMSkzkvOZWZ0ZrAXV+Hk2eh2c0zZidLzV7scL4YGgD+Ffib7nhRAiKv+7sA/AH4uEKxdwkjwrRIiunRFNMiKaZFU0yKVDEukmC8UUVyP98wW7h0OHna7BxtTo7tTo6N1iAb7EEGXUsDEAK1RoyDorXMjNZwSLSWmaW/16q/zT7JuJaXkDhZttpZNtlp1tkDSkwqwNGxBs5ITOK0+ATGRZK+vAYLl9VWPwvMbhaYXbSq2uBy4P3ABt3hogREhuMDeBvUGxWK4asz4tQbcWoMb419nREjQeSflr6YrksBG9N1GHQt+twi/Y637l3C8qVsMCOa4uBoLQdHa19MOsJcMrqcepwi6+1B77C8PzuC12naN5+FY2INvDE+jrnxZg6L1lZsD6eca9Ni9bPC6meF1UeLPUAhHBvJh+JGvDK7mp4XJSCyT2YCfwFOUShERka9EWdWrJ5ZsQaOitZzZKyelGY1Kkq/a7LOGmCV1c9yq4+19oA2wY+BBiPO7Fjji5+Xw6J1VI/BvpG0a7HRHmSDnWaD5f251c6EdVnVa+kCPgncq1CIEhDZXzG8TqXfBNRRSmQYIhgcHK3lqNID1KxoPdOiKQXGZ0wc1loDL77tXmn1k9VSyDF4gDGYHKniwGiKA6M1TI+kGBdJekUXjMQ+l/ntd016nSI9ToFut0iHk2e7nWWnk2O7naVfM9JD8RheSf8dCoUoAZGR9Fa8adWpCoXI3s2M1jAn1sSceDPHxRqp0exG4Di4bLTTvGD2stDsZoXVh6W34WMuikHKiFJjxF8sK/3qkr9px6SIQ951yLgmOdfBUnGm/WEBPwC+h6pciRIQGSXjgeuA9ygUIp7mSILZsUZOiDXzxngzE7R3I3QKrs1Sq5f5ZhcLzW46nYKCImHQitfbY55CIUpApBz30L/j1fWuUTgkbGIYHBdv4pT4eObGmrWkSl7BBdbbgyw0u5lvdrHWUt81CeRt/ifg/wGDCocoAZFymgr8FjhfoZCgSxpRTog1cVpiIm+Kj1cpXBmyDifPs2YXjxTaWG/rWU18bzNehatHFApRAiJj6QPA74AJCoUESb0R56T4OE6Oj+ek+Lh/WksuMlxb7AxPmh38o9DODiengIifWMDvgW8AaYVDlIBIJWgCfgx8RveY+FnKiHFaYgJnJ6YwO9ZQsT0IxN9coMXq56FiG48Vd5FX/wipbMtLv+8LFQpRAiKV6Ay85oWHKRTiny9FgznxJs5KTObU+ATNdEhZZV2Lx4sd3FnYxhZ1z5bKkgeuBH4IFBUOUQIilawG+C7weSChcEilmhGt4fTERM5JTFHXcRlzLrDU7OH+4k6eKXaqyZ2MtYdLv+PrFQpRAiJ+cijeW5MPKBRSKRJGhLclJnF+chqHRusUEKlI7U6eO/Jbub+wE1OtFaS81gKXA7crFKIERPzsZOAXwJsUChkrjUaCdySncH5yGuMjSQVEfKHTKXB7fiv3FXdQdJWIyKjqwWsm+Du8DeciSkAkEPfdvwA/BWYoHFIuh0RreU9yGmcmJpM0IgqI+FKHk+eO/DbuLezQjIiMNBO4Cvg20KdwiBIQCaIa4Ct4zYsaFQ4ZrS+5k+Pj+UDVgRwb020mwbHTyXF9bhOPF3dph4jsLxu4FW+51SaFQ5SASBjUAf8BXAo0KxwyUk6IN/OpqoM5IlavYEhgLbf6+E12HZtttWOQYXOAvwLfAtYoHKIERMKoFvgU8DVgssIh+2pOrInPpA7lcG0sl5Cwcbktv5Ubcpu1LEuGwgRuAb4PrFM4RAmIiLc067PAF4HpCocM1YHRGi6pPpST4uMUDAmlzXaaKzMtbLAHFQzZkwxwI14/j1aFQ5SAiPyzCPA24GLgAkAd4WSPUkaMf6s+mPckpxLV15qEnIXDVdkN3F3YrmDIbuuAPwLX4lW4ElECIjIEhwCXAJ8AJiocstvpiYn8R/VhjFM5XZFXeKy4i59n11BwbQUjnArAXcAfgCcUDlECIrLvIsApwLl4syKHKSTh1Ggk+FLNkZwSH69giOzFaqufy9PL6XdNBSMcssBjeI0D7wb6FRJRAiIy8k4BrgOOVCjC4+T4eL6cOpKmSELBEHkd2+0s/51+gU4nr2AEVwavpP2NeDMfIkpAREZZLd4U80cVimCLYnBx9aFcUDVdX14iw7DNzvKl9BJ6naKCETxrgA8CKxQK8c/vuYj/FYE7gc3A2YBeiwdQo5Hg+3XH8tbEJCUfIsPUEIkzN97Mo8V2LLUtDJIbgfcCqjggSkBExsgy4G/A6WijeqBMj6b4Zd0JHKK+HiL7rDmSYHKkmqfNTgXD/3J4DXwvx+vpIaIERGQMdQHXA5OAExQO/zs8WsfP6k5QlSuREXBQtJYON88GdU33sxa82f6HFApRAiJSOSzgXrQkKyDJxxzqjLiCITJCjok18mChjYI6pvvR7iVXOxQKUQIiUpmW4e0NOR1vRkR8ZHo0xc/qTlDyITLCkkaUmBFhkal+dD6SBj4JfA8tuZIAiCgEEnBrgJPwur+KT9QZcX5UezwNSj5ERsU7EweQMmIKhD+sBt4E/EWhECUgIv6RAy4G/g3vLZJUMAP475pZTI5UKRgioyRlRDkjoVodPvAH4A3ASoVClICI+NP1wGxgnkJRuc5NTlV3c5EymBtrVhAqVxdwPvDveC/RRJSAiPhYK96ekO8CtsJRWeqNOJ+sPliBECmDo2INCkJlegw4HrhboRAlICLBYQHfAU7Fq5QlFeLj1Qdp07lImTRHEhhq61lJTLyXY2ehKleiBEQksOYDc4CbFYqxlzJivCMxRYEQKZMoBilDxTArxFrgZLyXY6qPLEpARAKuH7gQ+ATaoD6m3p6YRLUehkTKquBqJWoFuBFvo/kShUKUgIiEyw3AsXizIjIGTtbGc5Gyyrs2Fq4CMXb6gI8AF6EXYKIERCS0NgOn4a3B1RR4GRnAUbF6BUKknF94dkZBGDuP41VlvEWhECUgIrJ7g/pZwBaFozyaI0ltPhcps022XrqPgTxwKXAmsF3hECUgIvJyj+EtyboGtEZhtGkjrEj5PW92KwjltQxvo/lP0Sy7KAERkb0YAC4B3gFsUzhGTxIlICLlVHQdFls9CkR5mMCVwImlJERECYhCIPK6HgGOQbMho6agnpAiZTXf7CKnCljlsBw4CfhaKRERESUgIkO2ezbkXWjd7ojrdgo4yu1EyuaegvrcjTKLl2Y9liocIkpARPbHQ7w0GyIjJOvatKoij0hZtNoZllu9CsToWcFLsx5FhUNECYjISOjHmw15N6DXiCNkoTbEipTFjfnNmm8cHbtnPdRUUEQJiMioeQDNhoyYvxfbFQSRUdZqZ3iq2KlAjLxVwJvQrIeIEhCRMujDmw05H1XK2i9b7AwrrD4FQmQUXZvbgKv5j5GUB74NnAAsUjhEhka1L0VGxlrgarwp+Dfrs7Vvet0ib09MViBERsE8s4ub8q0KxMh5EngP8FdQKT+R4dAMiMjIyeJ1UT8ReE7hGL6FZjerrH4FQmSEFVyH32fXKxAjowdv5vutQIvCIaIERKQSLANOAT5R+qGSYfhNdp2WiIiMsD/mN9Lu5BSI/eMCNwJHoL5QIkpARCr0h+oG4OjSD5YM0QZ7kAcLbQqEyAhZbvVxZ17ti/bTOuBM4CKgS+EQUQIiUsnaSz9Yb8PbJyJDcHVuA51OQYEQ2U9Z1+anmRbNKu67HPBdYDbwmMIhMjK0UVakPFqB6/A2qb8JiCkke2fisM3J8rbEZAyFQ2Sf/STboupy++4x4Dy0yVxECYiIj1nAE8Df8PqHzFBI9m6Hk6MuEmNWrEHBENkH9xR2cGt+iwKxD18/wKeBrwLqkCoyCrQES6T8VgGn45VvbFU49u6a7EbWWAMKhMgwrbMHuUpVr4arCPwamAXcrnCIjB7NgIiM4TMCXiWVQeBkIKGQvJKDyxKrh7cnJ1Nl6OtKZCi6nAJfSS8l7VoKxtDdB5wL3Iw6mYsoAREJOAt4Fq9i1gTgWNC2h5dLuxarrQHenpxEVKEReU0F1+GyzDK22VkFY2hagI8DVwC9CoeIEhCRMBnE2xvyGF7p3qkKyUs6nDy9bpE3xccrGCJ74eLyg+wqlph6jh6CduArwGcArVUTUQIiEmpbgf8FlgBvBJoVEs96exAMOC7WpGCI7MFV2Q08XFQPndeRBX4BfAiYh5oJiigBEZEXrQOuArYDJwE1Cgkss/qoNqIcrcpYIq9wY34zt6ji1WtxgJvwin/cBajRkIgSEBHZyw/mYrz+IRFgLuofwhKrh4nRKg6N1ukOEQHuLmzn2txGBWLv7gMuwCv6kVY4RJSAiMjrywN/B/5cSkCOD3si8pzZzYHRGmZGNTEk4XZvYQe/ya7TOqI9mwdcBPwI6FQ4RJSAiMjwDQAPATcCqVIiEspePi4wz+zi8FgdU6Mp3RkSSn/Nb+N3OSUfe7AQ+He8RoKtCoeIEhAR2X/9eEsKbgcmAkcRwtK9Di7Pml0cHq3ngGi17goJldvyW7k6t0GBeKXVwH8CXwLWKhwiSkBEZOR1lZKQ+4DJwOFhS0QsXJ4odjAtWs3MaK3uCAlN8nGNko+XWwl8EfgcsErhEFECIiKjrw24BbgTqAWOIURLsxxcnjG7aIokODxWr7tBAu3W/BZtOH/JCuBSvFmPFaikrogSEBEpuw68ZoZ3APV4DQ1DkYi4eBvTY4bB7Fij7gQJ4D3ucm1uIzfmWxUMWAZ8oXQsU+IhogRERMZeZykRuRWow9sjEorP+lKrlwHX5MR4M0b4tsVIQBVdhyuzLdxf2Bn2UDyNt7n8K3j7PUTEp/QLLRJ8k0o/2l8AQtFG/OzEFL5UcwSxcBYJkwDpdYp8K7OcFmsgrCFwgAfwSunO0x0hogRERPylDvgk8GVgetAv9uhYA9+umU1zJKGRF1/aYmf4RnoZ7U4+jJdfAG4Dfgis0d0gogRERPwtAXyklIjMDvKFjo8k+W7NbI7Q5nTxmaVWL99NryDtWmG79C7gKuC3ePvaREQJiIgEzFvwlma9j4B2V08YEf4rdSRnJSZrtMUXHiq28T+ZNVjh2lv9QinxuAnI6i4QUQIiIsF3AHAxXjnL8UG8wAuS0/ls6lAi+tqTCmXj8qfcJm7JbwnLJe/e3/Er4FHdASJKQEQknFLAR/Eaeh0btIs7MT6Oy2qOps6IaaSlonQ7Bb6XWckqqz8Ml9sJXIs347Fdoy+iBEREZLe5eLMiF+I1OAyEqZFqLqs5WvtCpGIst/r4fmYlPU4x6Je6GLgGuBHIaeRFlICIiOxNPfBh4BLghCBcUBSDj1bP5GNVM7UkS8aMC9xV2M7V2fVB3u+xC7geb8ZDLdxFRAmIiAzbicBngA+VEhNfOyrWwGU1RzE5Uq2RlbLqdYpcmV3NIrMniJdnA38H/he4BzA14iKiBERE9lcVcB5wEXAOEPfrhdQZcb6UOpJTExM0qlIWz5ld/DTTQr8buOfyFrzeHdcDrRppEVECIiKjZQrwwVIy4tslWmclJvOF1BFUG1GNqIyKrGtzdW49DxR2BmnBVQ9wB96+jmc0yiKiBEREyu04vApan/bjyU+Lprg0NYujYg0aSRlRy6xefpppCVJX8+eAHwAPAZZGWESGQ6/6RGQk7QLuBfLAmX47+QHX5KFiO71ukdmxRhJGRCMq+yXn2lyT28Cvs+uD1NX8aeAdwEq8Xh4iIkpARGTMPYvXzfgsP578OnuQR4ptNEYSHBKt1WjKPnne7Oay9DIWWYHaaP4U8G4grREWESUgIlJp5pUeUs7248nnXJtnzU7W2gMcE2ukVs0LZYgGXYvf59ZxVW4DGTdQq5MeAc4tvVwQEVECIiIVaT4wgFcpy5d2ODkeLO4kSZQjY/UY2jone+Hi8kChjW+ll7MyeB3NHwbehxoIiogSEBHxgefw9oa8G58WvrBwWWT1sMDs5tBoHeMjSY2qvEKLNcC30yu4v7iTQvC2RTxYSj7yGmkRGQl6lSci5XIx8Ae/f+8YwJmJyXyy+hAmKBEJvV6nyB/zm3io0IYbzG7mDwDvV/IhIiNJMyAiUi6LgQ7gXX5PQjbZae4r7iTn2hwZayCualmhU3Ad7ihs5YrMKlqCt9xqt78BHwAKGnERGUmaARGRcns/cBNeN3XfGxdJ8rGqmbwzeQAxfaUGnovLo8Vd/DG3kU4n0M/lfwY+A5gadRFRAiIiQfA2vLer9UG5oAMi1fxr9cG8NTFRG9UDmXjAfLOLP+c2sdEOfAXaK4Gvly5bREQJiIgExlzgfmBSkC7q4GgtF1UfxJvj45WIBMRCs5s/5zez1hoIQ571FeAXGnURUQIiIkF1EF55z8OCdmEzozVcWDWTMxITieir1pdP4s+b3fwl38qq4O7xeLkC8AngVo2+iCgBEZGgm4Q3EzI3iBc3LZriw1UzeHtiEnG0Wb3yEw+Xp4qd3JzfwgZ7MCyXnQYuAP6uO0BElICISFjUArcD7wjqBTZHErw3OY1zk1NpMOIa8QpTcB3+UWzn1vxWdjihavTdhleZ7gXdBSKiBEREwiYBXAd8LMgXmTQinJWYwvuS05gRrdGoj7FOJ8/dhR08UNjJgBu6gk+r8RqEtupOEBElICISZl8Efk4I+hQdG2vk3ORUTk1M0PKsMnKBFVYfdxe280yxEzucxZ4eBD4C9OuOEBElICIi3lKsm4HGMFxsgxHnnOQU3pk4gOnRlEZ/lPQ4RR4ptvFgoS1sy6xe7dfAfwGO7goRUQIiIvKSw4B7gCPDdNFHxOo5MzGZtyYm0mgkdBfsJxOHhWY3jxTaWWB2YYW7tUUeuAS4QXeGiCgBERHZs3rgL8C5YbvwKAYnxsdxemIiJ8fHU2fEdDcMkY3LUrOXx4u7eMbsJONaCgrsAN4HPK9QiIgSEBGR13sWhx8AXw1rAGIYHB9v4i3xCZwSn0BzRDMjr1ZwbRZbvTxndvFssZP+8G0ofy3z8crstisUIqIERERk6P4VuAqoCveXtsERsTreEGvmDfFxzIrVEw3pV3mnk+d5s4f5ZhdLrB4KrrY07MF1wH/iNRoUEVECIiIyTEfhdWo+RqHw1Bgx5sSaOD7exOxYIwdFawLbeb3PLbLM7GOp1ctSszfsG8lfTw6voty1CoWIKAEREdk/1cCPgS8oFP8sZUQ5KtbA0bEGZkUbOCRaS5MPl2xZuGyy07RY/ayxBlhjD7DdzoZ7C/nQrQY+BKxUKERECYiIyMi5CPgdXhd1eQ3NkQSHRus4JFrLwdFapkZTTIlUV8TGdheXdidPq51hy8uOVidDUUuq9sWNwGcBTQ+JiBIQEZFRcARwC3C8QjF89UacA6LVHBCppimSoNlI0BRJ0GgkaI4kqDFiJIkSNyKkjOhe95rkXPufyttarkPatUqHSdq1GHQtup0CHU6eXU6eDqdAl1PAUjuKkTCAV2L3FoVCREREZHRVAb/Ca3CtY5SPpBFRHCrveB44RF8FIiIiIuV1AbBLD6M6QnSYwI8A1WUWERERGSNNwNV6MNURgmMlcKI+8iIiIiKV4d14nZ/1oKojiLMePwaS+piLiIiIVJZGNBuiQ7MeIiIiIlJm7wK26+FVB5r1EBEREZEyGQdcB9h6mNXhs2MBMEcfYRERERF/mgvM10OtDh8c3cAXgag+tiIiIiL+ZuB1UVfJXh2VeNjADcB4fVRFREREgqUJr4GhpYdeHRVyPAkcq4+miIiISLAdDzyjh18dY3jsAC7Em50TERERkZA4E3hBD8M6yngM4FW3qtfHT0RERCScIsAHgPV6ONYxike6lHg06SMnIiIiIgBx4GLUTV3HyB5FvOaYU/QRExEREZE9SeGVQlXFLB37W9nqNuAQfaREREREZChqS4nIVj1M6xjGkccrqXukPkIiIiIisi/ieD1EVujhWsdrHH14JZ4P0EdGREREREbKW4B79bCt42XHZryZshp9PERERERktJwI3Iy33EYP4eE85gEfAWL6OIiIiIhIuTTiVc5argfy0CyzuhqvkaWIiIiIyJiaW3o4zehBPXDHolKimdJtLiIiIiKVpgn4ArBED+6+PnYAPwOO0C0tIiIiIn4xA2+D8jN6oPfF0YVXQvc8tLdDRERERHxuppIRJR0iImFlKAQiImPqSOC9wNl4pX0TCklZrQAeAe4HnsLrWi4iIkpARERCIQWcApxZOuYqJCOuG3gMeBR4ENimkIiIKAERERHPQcA5wGmlxGSGQjJsfcBzwLN4Mx2L0SyHiIgSEBERGZLJeI0P5wJvLh3VCssrbColG4vx9tgsBRyFRURECYiIiOy/BDAHOA44unQcA0wKwbWngRZgJbAarwHkQrwZDxERUQIiIiJlNK6UiBxV+vMgvOVbBwK1PrqOIl4Pjq3A5lLCsaqUcLTiVa4SERElICIiUsGaS4nIgXjlgKcDE0r/3lT6c/ffk6Pw/+8AvUBP6dj9925geynZ2FpKMNrR8ikRESUgIiISGjWlZCRe+vvuEsG1pX8DqAeipb/3vyxh6OOl/hp9pX/rQUukRERERERERERERERERERERERERERE9tX/AWeYnh74oq+fAAAAJXRFWHRkYXRlOmNyZWF0ZQAyMDIzLTAzLTE0VDE3OjA3OjM0KzAwOjAwvUUVeAAAACV0RVh0ZGF0ZTptb2RpZnkAMjAyMy0wMy0xNFQxNzowNzozNCswMDowMMwYrcQAAAAASUVORK5CYII=;" vertex="1" parent="vH8yIlECoYQ3EJ_WlOSH-20">
          <mxGeometry x="113.13" y="51.349999999999994" width="33.74" height="42.65" as="geometry" />
        </mxCell>
        <mxCell id="vH8yIlECoYQ3EJ_WlOSH-50" value="" style="shape=image;verticalLabelPosition=bottom;labelBackgroundColor=default;verticalAlign=top;aspect=fixed;imageAspect=0;image=data:image/svg+xml,PHN2ZyB4bWxucz0iaHR0cDovL3d3dy53My5vcmcvMjAwMC9zdmciIHdpZHRoPSI0OCIgdmlld0JveD0iMCA5NiA5NjAgOTYwIiBoZWlnaHQ9IjQ4Ij48cGF0aCBkPSJNMTQwIDgxNnEtMjQgMC00Mi0xOHQtMTgtNDJWMzk2cTAtMjQgMTgtNDJ0NDItMThoNjgwcTI0IDAgNDIgMTh0MTggNDJ2MzYwcTAgMjQtMTggNDJ0LTQyIDE4SDE0MFptMC02MGg2ODBWMzk2SDE0MHYzNjBabTE1MC00Nmg2MFY2MDZoMTA0di02MEgzNTBWNDQyaC02MHYxMDRIMTg2djYwaDEwNHYxMDRabTMwMy0xOHExOCAwIDMxLjUtMTMuNVQ2MzggNjQ3cTAtMTgtMTMuNS0zMS41VDU5MyA2MDJxLTE4IDAtMzEuNSAxMy41VDU0OCA2NDdxMCAxOCAxMy41IDMxLjVUNTkzIDY5MlptOTAtMTQzcTE4IDAgMzEuNS0xMy41VDcyOCA1MDRxMC0xOC0xMy41LTMxLjVUNjgzIDQ1OXEtMTggMC0zMS41IDEzLjVUNjM4IDUwNHEwIDE4IDEzLjUgMzEuNVQ2ODMgNTQ5Wk0xNDAgNzU2VjM5NnYzNjBaIi8+PC9zdmc+;" vertex="1" parent="vH8yIlECoYQ3EJ_WlOSH-20">
          <mxGeometry x="111.50499999999988" y="234" width="37" height="37" as="geometry" />
        </mxCell>
        <mxCell id="vH8yIlECoYQ3EJ_WlOSH-14" value="" style="group" vertex="1" connectable="0" parent="1">
          <mxGeometry x="970" y="159" width="150" height="60" as="geometry" />
        </mxCell>
        <mxCell id="vH8yIlECoYQ3EJ_WlOSH-11" value="" style="rounded=1;whiteSpace=wrap;html=1;" vertex="1" parent="vH8yIlECoYQ3EJ_WlOSH-14">
          <mxGeometry width="140" height="60" as="geometry" />
        </mxCell>
        <mxCell id="vH8yIlECoYQ3EJ_WlOSH-12" value="API" style="text;html=1;strokeColor=none;fillColor=none;align=center;verticalAlign=middle;whiteSpace=wrap;rounded=0;direction=east;" vertex="1" parent="vH8yIlECoYQ3EJ_WlOSH-14">
          <mxGeometry x="100" y="15" width="40" height="30" as="geometry" />
        </mxCell>
        <mxCell id="vH8yIlECoYQ3EJ_WlOSH-2" value="" style="shape=image;verticalLabelPosition=bottom;labelBackgroundColor=default;verticalAlign=top;aspect=fixed;imageAspect=0;image=data:image/svg+xml,PHN2ZyB4bWxucz0iaHR0cDovL3d3dy53My5vcmcvMjAwMC9zdmciIHdpZHRoPSI0OCIgdmlld0JveD0iMCA5NiA5NjAgOTYwIiBoZWlnaHQ9IjQ4Ij48cGF0aCBkPSJNNDA3IDczMXEyMyAyMyA2Ni41IDIxLjVUNTM3IDcyMGwyMTYtMzM5LTMzNSAyMTlxLTMwIDIwLTMyIDY0dDIxIDY3Wm03MS00NzRxNTcgMCAxMTkgMTguNVQ3MTYgMzM5bC01MiAzN3EtNDUtMzAtOTYuNS00NC41VDQ3Ny45NzggMzE3cS0xNDAuNDcyIDAtMjM5LjIyNSAxMDAuMjE1UTE0MCA1MTcuNDMxIDE0MCA2NTkuOTgzIDE0MCA3MDUgMTUyLjUgNzUxcTEyLjUgNDYgMzUuNSA4NWg1NzlxMjItMzYgMzUtODR0MTMtOTRxMC00Mi0xMi41LTkwLjVUNzU4IDQ3OGwzOS01MnEzOCA1NiA1NyAxMTIuNVQ4NzUgNjUycTIgNjAtMTIgMTEzdC00MSA5OHEtMTIgMjMtMjUuNSAyOHQtMzMuNSA1SDE5MnEtMTcgMC0zMy41LTguNVQxMzQgODYzcS0yNi00OC00MC05Ny41VDgwIDY2MHEwLTgzIDMxLjUtMTU2LjV0ODUuNS0xMjhRMjUxIDMyMSAzMjMuNjggMjg5VDQ3OCAyNTdabS05IDMzMVoiLz48L3N2Zz4=;flipH=1;imageBackground=none;" vertex="1" parent="1">
          <mxGeometry x="993.0049999999999" y="43" width="34" height="34" as="geometry" />
        </mxCell>
        <mxCell id="vH8yIlECoYQ3EJ_WlOSH-3" value="" style="rounded=1;whiteSpace=wrap;html=1;" vertex="1" parent="1">
          <mxGeometry x="950.0049999999999" y="159" width="120" height="60" as="geometry" />
        </mxCell>
        <mxCell id="vH8yIlECoYQ3EJ_WlOSH-6" value="" style="shape=image;verticalLabelPosition=bottom;labelBackgroundColor=default;verticalAlign=top;aspect=fixed;imageAspect=0;image=data:image/svg+xml,PHN2ZyB4bWxucz0iaHR0cDovL3d3dy53My5vcmcvMjAwMC9zdmciIHdpZHRoPSI0OCIgdmlld0JveD0iMCA5NiA5NjAgOTYwIiBoZWlnaHQ9IjQ4Ij48cGF0aCBkPSJNMTQwIDgxNnEtMjQgMC00Mi0xOHQtMTgtNDJWMzk2cTAtMjQgMTgtNDJ0NDItMThoNjgwcTI0IDAgNDIgMTh0MTggNDJ2MzYwcTAgMjQtMTggNDJ0LTQyIDE4SDE0MFptMC02MGg2ODBWMzk2SDE0MHYzNjBabTE1MC00Nmg2MFY2MDZoMTA0di02MEgzNTBWNDQyaC02MHYxMDRIMTg2djYwaDEwNHYxMDRabTMwMy0xOHExOCAwIDMxLjUtMTMuNVQ2MzggNjQ3cTAtMTgtMTMuNS0zMS41VDU5MyA2MDJxLTE4IDAtMzEuNSAxMy41VDU0OCA2NDdxMCAxOCAxMy41IDMxLjVUNTkzIDY5MlptOTAtMTQzcTE4IDAgMzEuNS0xMy41VDcyOCA1MDRxMC0xOC0xMy41LTMxLjVUNjgzIDQ1OXEtMTggMC0zMS41IDEzLjVUNjM4IDUwNHEwIDE4IDEzLjUgMzEuNVQ2ODMgNTQ5Wk0xNDAgNzU2VjM5NnYzNjBaIi8+PC9zdmc+;" vertex="1" parent="1">
          <mxGeometry x="991.5049999999999" y="182" width="37" height="37" as="geometry" />
        </mxCell>
        <mxCell id="vH8yIlECoYQ3EJ_WlOSH-23" style="edgeStyle=orthogonalEdgeStyle;rounded=0;orthogonalLoop=1;jettySize=auto;html=1;" edge="1" parent="1" source="vH8yIlECoYQ3EJ_WlOSH-7" target="vH8yIlECoYQ3EJ_WlOSH-1">
          <mxGeometry relative="1" as="geometry" />
        </mxCell>
        <mxCell id="vH8yIlECoYQ3EJ_WlOSH-7" value="SunFounder" style="text;html=1;strokeColor=none;fillColor=none;align=center;verticalAlign=middle;whiteSpace=wrap;rounded=0;" vertex="1" parent="1">
          <mxGeometry x="980.0049999999999" y="159" width="60" height="30" as="geometry" />
        </mxCell>
        <mxCell id="vH8yIlECoYQ3EJ_WlOSH-16" value="" style="shape=image;verticalLabelPosition=bottom;labelBackgroundColor=default;verticalAlign=top;aspect=fixed;imageAspect=0;image=data:image/svg+xml,PHN2ZyB4bWxucz0iaHR0cDovL3d3dy53My5vcmcvMjAwMC9zdmciIHdpZHRoPSI0OCIgdmlld0JveD0iMCA5NiA5NjAgOTYwIiBoZWlnaHQ9IjQ4Ij48cGF0aCBkPSJNNDgwIDU3NXEtNjYgMC0xMDgtNDJ0LTQyLTEwOHEwLTY2IDQyLTEwOHQxMDgtNDJxNjYgMCAxMDggNDJ0NDIgMTA4cTAgNjYtNDIgMTA4dC0xMDggNDJaTTE2MCA4OTZ2LTk0cTAtMzggMTktNjV0NDktNDFxNjctMzAgMTI4LjUtNDVUNDgwIDYzNnE2MiAwIDEyMyAxNS41dDEyNy45MjEgNDQuNjk0cTMxLjMwMSAxNC4xMjYgNTAuMTkgNDAuOTY2UTgwMCA3NjQgODAwIDgwMnY5NEgxNjBabTYwLTYwaDUyMHYtMzRxMC0xNi05LjUtMzAuNVQ3MDcgNzUwcS02NC0zMS0xMTctNDIuNVQ0ODAgNjk2cS01NyAwLTExMSAxMS41VDI1MiA3NTBxLTE0IDctMjMgMjEuNXQtOSAzMC41djM0Wm0yNjAtMzIxcTM5IDAgNjQuNS0yNS41VDU3MCA0MjVxMC0zOS0yNS41LTY0LjVUNDgwIDMzNXEtMzkgMC02NC41IDI1LjVUMzkwIDQyNXEwIDM5IDI1LjUgNjQuNVQ0ODAgNTE1Wm0wLTkwWm0wIDQxMVoiLz48L3N2Zz4=;" vertex="1" parent="1">
          <mxGeometry x="1430" y="50" width="48" height="48" as="geometry" />
        </mxCell>
        <mxCell id="vH8yIlECoYQ3EJ_WlOSH-22" style="edgeStyle=orthogonalEdgeStyle;rounded=0;orthogonalLoop=1;jettySize=auto;html=1;entryX=1;entryY=0.5;entryDx=0;entryDy=0;" edge="1" parent="1" source="vH8yIlECoYQ3EJ_WlOSH-5" target="vH8yIlECoYQ3EJ_WlOSH-12">
          <mxGeometry relative="1" as="geometry">
            <Array as="points">
              <mxPoint x="1010" y="230" />
              <mxPoint x="1130" y="230" />
              <mxPoint x="1130" y="189" />
            </Array>
          </mxGeometry>
        </mxCell>
        <mxCell id="vH8yIlECoYQ3EJ_WlOSH-32" style="edgeStyle=orthogonalEdgeStyle;rounded=0;orthogonalLoop=1;jettySize=auto;html=1;entryX=1;entryY=0;entryDx=0;entryDy=0;" edge="1" parent="1" source="vH8yIlECoYQ3EJ_WlOSH-28" target="vH8yIlECoYQ3EJ_WlOSH-12">
          <mxGeometry relative="1" as="geometry">
            <Array as="points">
              <mxPoint x="1180" y="174" />
              <mxPoint x="1180" y="174" />
            </Array>
          </mxGeometry>
        </mxCell>
        <mxCell id="vH8yIlECoYQ3EJ_WlOSH-37" style="edgeStyle=orthogonalEdgeStyle;rounded=0;orthogonalLoop=1;jettySize=auto;html=1;" edge="1" parent="1" source="vH8yIlECoYQ3EJ_WlOSH-28">
          <mxGeometry relative="1" as="geometry">
            <mxPoint x="1110" y="270" as="targetPoint" />
            <Array as="points">
              <mxPoint x="1280" y="174" />
              <mxPoint x="1280" y="270" />
            </Array>
          </mxGeometry>
        </mxCell>
        <mxCell id="vH8yIlECoYQ3EJ_WlOSH-28" value="" style="rounded=1;whiteSpace=wrap;html=1;" vertex="1" parent="1">
          <mxGeometry x="1394" y="144" width="120" height="60" as="geometry" />
        </mxCell>
        <mxCell id="vH8yIlECoYQ3EJ_WlOSH-29" value="" style="shape=image;verticalLabelPosition=bottom;labelBackgroundColor=default;verticalAlign=top;aspect=fixed;imageAspect=0;image=data:image/svg+xml,PHN2ZyB4bWxucz0iaHR0cDovL3d3dy53My5vcmcvMjAwMC9zdmciIHdpZHRoPSI0OCIgdmlld0JveD0iMCA5NiA5NjAgOTYwIiBoZWlnaHQ9IjQ4Ij48cGF0aCBkPSJNMzM0IDkzNnYtNjBoODZWNzc2SDE0MHEtMjQgMC00Mi0xOHQtMTgtNDJWMjc2cTAtMjQgMTgtNDJ0NDItMThoNjgwcTI0IDAgNDIgMTh0MTggNDJ2NDQwcTAgMjQtMTggNDJ0LTQyIDE4SDU0MHYxMDBoODZ2NjBIMzM0Wk0xNDAgNzE2aDY4MFYyNzZIMTQwdjQ0MFptMCAwVjI3NnY0NDBaIi8+PC9zdmc+;" vertex="1" parent="1">
          <mxGeometry x="1440" y="173.5" width="30.5" height="30.5" as="geometry" />
        </mxCell>
        <mxCell id="vH8yIlECoYQ3EJ_WlOSH-30" value="Custom" style="text;html=1;strokeColor=none;fillColor=none;align=center;verticalAlign=middle;whiteSpace=wrap;rounded=0;" vertex="1" parent="1">
          <mxGeometry x="1424" y="144" width="60" height="30" as="geometry" />
        </mxCell>
        <mxCell id="vH8yIlECoYQ3EJ_WlOSH-42" value="" style="shape=image;verticalLabelPosition=bottom;labelBackgroundColor=default;verticalAlign=top;aspect=fixed;imageAspect=0;image=data:image/png,iVBORw0KGgoAAAANSUhEUgAAAQAAAAEACAYAAABccqhmAAAABHNCSVQICAgIfAhkiAAAAAlwSFlzAAAF6AAABegB0iYb4wAAABl0RVh0U29mdHdhcmUAd3d3Lmlua3NjYXBlLm9yZ5vuPBoAACAASURBVHic7Z133FXVlfe/6+EBIghRsBBsGDRiodhIomJsGV/R14yjftSYgYkt6lhiiy0wrzWaIJYYW+xjiRPLaBQ1VkQxVhA09ogNNSqogEpd7x/7PHh5uPeefdo9596zvp/P+SjP2eV379573XN2WUtUlVZARNqAbYBhwFBgCDAIeBeYBrwQXI+q6pcN1jYQ2CrQ1KGNCl3TgMmq+mbGOvoDIzrp6AlM55vv52lVfTFjHasGOoZW6OgDvMg338ezqvpcljqq6CpsH8oMVW36C/gB8AygHte7wL4N0tUXuARY5KFrUZC2bwY6egBnAF95fkc3A2tmoKMbcALwhaeOCcAGZe5DmX/uvAUkbLR+wLXAEs+Gq7wmAkMy0tUFOAKYFUPXrCBvl5S07Bd02Kg65gGnAt1T0rEr8FoMHQuAcUDvMvWhho2hvAUkaLi1gQ9iNFrnzrVjyroEuCWhLg3KkIRaxqWg42Gga0Idx6ag46W0jUBR+1BDx1HeAmI2XC/cO1nSTqXAbGBQitrGpqRLgbEJdByQoo7LE+jYBVicko4JpPdkVNg+1NCxlLeAGA3XJegIaXVuBd4EVklB257Ee5SsdS0B9oyhYwQwP+Xv6OgYOgYBn6Ws4/xW7kMNH095C4jReKek3HAd110Jda0FzM1A11xgrQg6egMfZ6BjEbBlBB1twCsZtdUerdiH8rjaaCJERICDMip+12CZLC4/wy2ppU3PoGxf9gBWyUBHF9xrhS8/AjbIQAfAIXEzFrwPNZymMgC4tfR1PdIpbm37JuBJ3ONwGG3AT+NLY3/PdP8E/hJc/0y5bHCz/j7MBu4HbsOtEviwt4i0e6b11TwXeAT4H9xjtA87BXsJ4lDkPtR48n4Eifjodhnhj2FvASM65VsXmOSRd2pMXcM8yl6EmyDsWpGvK3AafpNkwzx0rIbfnoOLgB4V+QS39OizT2Ckh47u+L3730KnfQ84A+azfHp4K/Wh3MZU3gIiNt6nIV/+fGBwjby9gBkeDbh+DF3neJR7dp38v/XIf46HjkM9yrmpTv6jPPJf66HjXz3KeRxoq5F/d4/8j7ZSH8rrarZXgJVD7v9JVadXu6Gqc4BzU6ijGmGPowuA0+vcHwssTFiHb5pT69z7PfBhg3SMUdUl1W6o6l3A0ynUUY2i9qFcaDYDULXDVBDWacLu+9RRjUUh96ep6te1bgb3Xk5Yh0+aT1T1rTo6FHi2AToUt+22HmFt5aOjGkXtQ7nQagbg2wnv+9RRjcUp1Ns7YR0+aXp6TOKFaU1DhxD+edPQUY2i9qFcaDYDoCH3d0p436eOaoT9Gq0nIuvUuikiA4ABCevwSbMCbha8lo6Vgc0boAPqtIWIdAW2TaGOahS1D+VCsxmAsGWi7UWk6jKMiGyE25Nej4XAOzF0heUR4PLguGlnXW3AVSnU4ZvmYhHpXuPehbiTg43Qca6I9K1xbwxQ02BGqKMaRe1D+ZD3LGTEGdyTCJ+BXYg7+to/yPNt3AaW2R55/zemrn5BvT4z38OB9uAaDkz2/Ez9PHR0x28JbTqwHe54rgAb4/YlhOVTPE+/Aa97lPU2bsa/R5BnPeA6Tx27t1Ifym1M5S0gYuOtQbSDJZ8SbW9+7C2mwJ0R6vkyuHzT3xlBxx8ilDsf/7P5CjwXQcfJEcpdRLQzAx8B7a3Wh/K4muoVQFXfBx6KkKUP7hfOh0+BuyOL+gafx/gOVgiuLMq+JkLabri17SzKvg7/ibou+E2udfDfqhprDqDgfajhNJUBCDib+BNA9fiNqoatxddjAjA1LTEVTA3K9kJVnwUezEDHu8CNEXTMJJrB8OVznOekJBS1DzWevB9BYj7GHYL/I5nPdXVKutYA3ktR13vAGjF0rIRzoJGWjs+BTWLo6IbzmpOWjtScbxS1DzV8LOUtIEEDpuHtRnEHURJ5vOmkaxgwJwVdc/DY/19Hxzok93bTMeh2SqCjD/BqSm01ugx9qKHjKG8BCRqvDefLLUnDPQWsnIG2kQmNwBw8Dt146NicZL4BvgZGpaBjPdzSWFwdi4GTy9SHGjaO8haQQiNuB0yJ2GgzgdEk9LkXoqsf7uSZz+m8jmshcCmweoo6egO/wd8jsOJmvW8CBqSoYwXcElxUD0H3UuNwTqv3oYaMn7wFpNSAbTgnD5+ENNoC4ExgxQZq2xC4x6ND/S8ZusDGeSzyWWN/DNgiQx19gQs8DOM0Erx6tFIfyvKS4MO3BCLyJ2CfOkneVtUBDZKzFBHZBneWvB5bqpvBz1LHmoQ7/9hbVW/NWEcX3D6IbnWSnaCq47LUUY2i9qGsaMZlwGZkxZTSJKUoOrpSf/A3SkfpMQNgGCXGDIBhlBgzAIZRYswAGEaJMQNgGCXGDIBhlBgzAIZRYswAGEaJMQNgGCXGDIBhlBgzAIZRYnwjvbYKfUTkgoRlKO5AzURVfS4FTUZCRGRd4Me4cORdEha3aXJFzUPZDEAv4Oi0ChORK4HDNKaDSiM5InIULrhqrVgHRh3sFSAZB+GCWBg5ICK74IKZ2OCPiRmA5BxXLeKP0RBOyFtAs9NqHTduwMgk9ATWzaFeAwbnUGcefSwzWs0AvJpTvVGCaxjpkcf3nlcfy4RWMwATyCc0c+v4VTPCaKrIP2G0lAEIfOqdk0PVvqGjjObmQZyn55ah5ZYBVfVUEZkCHIYL0tEzYZFtOB92RvOxmOQhwBbhoizdCoxX1TyeMDOj5QwAQODVNhXPtiKyL3BzGmUZDediVf1l3iKKTEu9AhiGEQ0zAIZRYswAGEaJMQNgGCXGDIBhlBgzAIZRYswAGEaJMQNgGCXGDIBhlBgzAIZRYswAGEaJacmzADmwhYisVOf+EI8yholkfqhwbY80g0Rku4x1dPNIM8BDh/2AJURU7Sh7PewwUFNzoR0Gqo9Z0HC+l7cAIzbriogd5a6DPQHUQETWAS4BRuatxUjEi8Ahqvpk3kKKiD0BdEJEuojIsTgnEDb4m59NgMdF5A8i0jtvMUXDngAqEJFNgSuBzfLWYmTCTOAIVb0jbyFFwQxAgIhsBkwEVsxbi5E5o1X1+rxFFAEzAICIDACeBPrlq8RoEAuBkar6YN5C8qb0BkBE+gBPAIPy1mI0lDnACFV9IW8heVJqAyAi3wIeALaJmPVDXAyC14D3gE9Tlmb40QtYExgA7IyLDhyFmcAPVfWdlHU1DWU3AFcBB0TI8jfgeGCylvmLKygiMggXrPWnEbJNBzZV1ZYK+eVLaQ2AiAzEhXnyiSc/HxgLnFfWjtJMiMgewKXA6p5Z9lPVP2UoqbCUeR/ACfgN/qdxvxC/tcHfHATLfBsDvoP6pAzlFJpSPgGIyHeAtwiPK/8CMFxVF2SvysgCEbka+LlH0pGqem/WeopGWZ8AjiF88C/ErRfb4G9ujgHe9Uh3ctZCikjpDEBwbPdQj6Snl32JqBVQ1c+BAz2SjhCRrbPWUzRKZwCAEYTHlX+GfKIMGxmgqg/gJgXDKN3ZjzIagPU90oxR1aRRZY1iMQYXLbgePn2jpSijAQg73/8F8EgjhBiNQ1U/BSaFJCud7wczAMvzkE38tSxhs/zrSwP8shWJMhqAsMe8txuiwsiDsLbtAfRvhJCiUCoDICI9gDVCkn3QCC1GLvi0baleA0K9AotIG7ADbn91P2AJoMF/ZwI3qOoTWYpMkVWBsEe8LxohxMgFn7ZdLXMVKSEi6wOjgMG4H/OOay5wO3Cnqn5Vr4yaBiA4WHEQsB/1H4sOFZHXgeuAq1W1yL+gpXq/M2JR6D4iIj2B/YHRwFZ1ku4NzBGR24FrVHVitURVXwFEZH9gCnAcfu9E6wNnAtNEJOrRWsMwPBCRNXG+Ky6n/uDvoBfOUDwqIucGT/PLsMwfxHEWcAPwrRgaVwEeEpFRMfIahlEDEdkCdzBtaMwifgXcISLLuLxb+goQLH/8GdgzrsiAbsB1IrKuqp6WsKymRkR64eZONgfMI2005uMOY92mqqVemRGRkbix2SNhUbsDk0VkB1X9BABVJTgReABuci+tawnuJB1FuXCeY8J0H5pSXZvhlp3S/E7LeM0B9kmpTYZ51Ldv3v20k+beOA9UaX6nV3SU3wYQ+Es/m3QRYHzKZTYFgauxm/CLxWfUZ0XgGhGJ6u6rVTgVf8cmvhwYuMBfOgcwNoNKALYWkb0zKLfo7ER0/3RGbVYgmuu2lkBEvgscnUHRbcBFAO0ishpwlGfGj4DncZ50NsNN+oVxbrB0UQR89KbBpg2qp0wMblA9Pwqe4IrA/oT7rQCYB0wFPsZ9TwM98mwjIv8HnDfVsHeGRbjTVO0V7ybdgXEeeZvtSjwHgDtKnPfnaLXr0QbNATTbdTewWqfPuQ8wyyPvf7XjZ1nPUdUzKv+gqvOB44NlhV94lGEYRrpMAfZQ1YWVf1TVW0RkHvCXkPyD24AhIYm+BE6vc/9EnDUxDKOxjOk8+DtQ1buBx0PyD2nHRU+txxStczxWVT8XkTcooTOFhJR6bbsK38HtITH8ecrjfr2duQPbcb/w9QhznwUWUDMyqjogbw1FQkT+Bnw/bx1NRi/gk5D79VjYhouMUo+Ng5WCqojIejjrbRhGY9mh1o1g3/+PQvK/7GMAugB/qFPJH0PyG4aRDWeJSN8a944lfC/KdB8DALCXiNwnIhsHB4bagp1EjwHb+es1DCNFVgeeFZGRItINQET6i8jFwG898k9vxy0lzAL6hCTeObg+wz0V+MwNAEzGzy97I+gPPBSSxlY0ys1xuMjPReBI4PCQNAOAe4AFIjIb/x29CjzcrqpzRWQMNR7zq7CSZ7qOSn6pqq9EyJMZIvK1T7LMhRhFZmaB+uspOMceq3ok70a07fw3qOpzHWcBLscdvUybG1X1mQzKNYyWR11Uo19nUPQc3P4ddxhIXdRb3/MAvnxJSeOtGUaKXEn6P85naOC6b6lDEFV9TESOxh3h9QmbXY8vcGe430tYTmkRkZ2BPUKSHaN1nD6KyAjcgZK8maqql+UtohlR1SUisifuPT+NE6bXABd0/GMZp6CqepGIvIaLq/7tmBXMAHZT1ZfiKjQAd6Iw7IzFSUA9r68be5TRCO4EzADERFXfFJEfArcB28csZglwoqqOq/zjck4CVfU+4IfAGzEqeRznBcgGv2GkiKrOxq3CXRkj+xfA7p0HP9TwCqyqLwMbAT/BWZ35dQqfB1wLbKuqI1T14xgCDcMIQVUXqurBwIbAudQPdKLARNwS/Fqqek+1RDXjAgSnjO4C7hKRlYG9cFt+KwODvA/crqpzo38cwzDiECxTniQip+KeCoZQJTCIqs4IKys0MlBQ4Wxsy69hFIpg9W4CCTYulSo2oGEYy2IGwDBKjNcrgNG0zAc+b0A9vbAfk6bEDEALo6rX4DZ+ZIqIvIK5QW9KzGobRokxA2AYJcYMgGGUGK85ABHZCHeopB8uSMji4L/vAzep6ruZKTQMoypBTM+9cRuB2oOrC+4k7q3AJA0ihdSipgEQkVVwoa1H4cJb1+JsEXkYtx349nqn0wzDSEbgh3MnYDTutOgKNZIeCcwQkf8GrlfVqmd7qr4CiMh2wCvAhdQf/B1l7ATcALwgIt8LSW8YRgyCX/x7gftxP861Bn8HA3Ah/V4WkcOqJVjOAIjIwcBfgVreRuuxPvA3EanprtgwjOiIyACcf81/iZG9HbhERH4vIss89S9jAERkPHAF0DWeTABWBu4XkaI4AjWMpkZEtsRF+dk4YVFHABMqo3UvNQAi8hPgmIQVdNAOXCYitjnEMBIgIt1xDnpqBueJyI+p8DPYVlHJ+JQq6KAdFz7cMIz4HA18N+UyjxGRgfDNE8CxGVQCsJuI7JhBuYbR8ojI6sCpGRS99Ae/XURWAk7xzLgYeA231rgefhuJxgfORotAv7wFGIVno2AVrAgcAvT2TPs+8DHOW1B3j/S7i8g27cBm+EX3vRo4TlU/AxCRVYFLgT1D8g0BHvEo3zCKwJjgahaeB0Z1+OEMZvmPA04nPNz6tm3AYI9KrlDVAzsGP4CqfqyqewF3xNNtGEZC/oHzxbnUCa+qLlLVc4FDPfIP9jEAC4Dj69wPi11mGEY2nKyq86rdCI6CTwnJ72UAXlDVObVuquqHwNshZRiGkT6PJ7y/gZ0GNIwS0wZMD0kzVERqhgIXkX7AOqmqMgzDh20S3n/VxwB0wwUhqMXvQ/IbhpENZ4tIj2o3RGQULrxcPab7GACAw0TkchFZGi9QRFYRkZtxAUMMw2g8A4FHAn8dgFsGFJHj8YvFOL0dt444l/C9AIcABwbBQ6NsBJqG285YBPoBN+ctwig0ZwAP5y0i4BBgv5A0w4GXRCTqRiCAx9pV9TMRORs42yNDl6CCKByrqo9GzJMJwZFKw6jH3wvUX18GdsVvN+AaweXLXar6eMcv+HjcpoK0uVtVH8qgXMNoeVT1I+CsDIqejzv/4x7hVXXpH1JkEfU3EBmGEc6FpP/jfL6qvgkV7/CqeidwfkoVLAIOVdVXUyrPMEpJ8OO8L/DPlIp8ADiz4x/LTOKp6rG4iYeFCSqYDeysqlclKMMwjABVfQb4PvBSWNoQLgZGVm4fXm4WX1X/iPM79mmMCl4HfqCqRZlFNYyWQFVnAFvh/HVGZRFwuKoeqaqLKm9UXcYLZkEH4VwLPxVS+BLgQeBnwFBVfS2GQMMwQlDVL4BdgJ2Bm4AwF/xvAqcBg1T10moJasYFUNVPcI8MF4vI+rj1yH64Aa/Bf2digUEMo2Go6hLcU8BfKwKDDMb9mHdcc3ExOv4WVp5XZCBVfR3nYMAwjIIQPBEkmmuz04CGUWLMABhGiTEDYBglxmsOwCgsb4tI3eivKXCTqprbtxbFDEBz4+syOglVz5sbrYG9AhhGiTEDYBglxusVQET64Dz/dN4I9D5uw8HczBQahlEVEemC2xU4hOU3At2hqm+FlVHTAAQBQ/8vbovvLtSOMnKJiPwZuFpVJ0X6BIZhREZEBgH/AYwCvlMj2Xki8gRwA/A/qjqrWqKqrwAiMhh4Ffgz8BPqhxjqGYh5TEQmBSHDDMNIGRHpKiJ/BF4GTqT24O9ga1z4vndEZI9qCZYzACKyK/AE8Vx9bwM8LSIbx8hrGEYNRGRl4H7goBjZewK3iciJnW8s8woQRPEdT7LJwQHAZBHZR1XvS1BO2ZkCXJ63COBJjzR/on7k5akpaSklIjIQuAfYIEkxwDnB68MhqroQKgyAiGwLXJBEaAW9cRZnA1V9L6UyS4Wq3o+z+IVHVf9f3hpaFRFpA24j2eCv5D+AvwO/g+CXPphNvCilCjroAfwm5TINo2wcBAxNucwxIvId+OZR/xcZVAKwv4hsmUG5htHyBIF4zgxNGJ1eBNG+2kVkRVwwBF8+w8UHqBkvsAIBLhCRAyNLzIb+Hmmy3ltvFJv+wXtyETgS8F1VW4Dzx7m6Z/qficiF7bj4YX08MtwPHId7fxDcE8PvcUsN9dgKt2zRLEjeAoxcOS+4moUZwH8CD6rqAhHpD5wCHE79vizADu04d0Jh3Kqqe1f8W4EpwcThQ8B2MYQbhpGMj4AtVHWpA19VnQkcISIzCCb66jC4jXADsBhnYZYj8E92sLdcwzDS5NTKwd+J8bjNfPXwMgAvqWrNoASq+gbwQUgZhmGkT033+8GP88SQ/Bu2E37ee46HEDsMFJHgEc34hrBtrcbyhI3NsPtd24EXcROBtdhURLqp6oJqN4OlivVCKjKWJ85Wa8Oo5Pu4HYL17tfjzTZgWkiiHsDYOvfPxWbODSMPzhCRrtVuiMhuuLM59ZjWBkz3qOgkERkjIpVbh7uLyDjcJiLDMBrPpsAdIrJa5R9FZB/geo/809txh04WAlUtSUAXXGCQ/xSR54N/bwas4lHJWxQnqMgqhC+NpMG88CRGRL5sUD2XER4Or1HsD+wUkmZX4B8iMhX4GDepP9Cz/KdQVYBxuLX9LK69VZUiXLiTimF6D02hnt0y/D7Lep2bQrsM86hn37z7aYXe7wJfZ/R9TlLVpWcBTsdtKkibJ1T1zxmUW3QeJHwN1vDnK+DqvEU0GlX9B3BhBkUvAY6C4DBQEGPslJQrUeDYlMtsClT1a+CnwDt5a2kB5gI/V9WyGtSzSP/H+SpVnQLLOgS5BhgJ7JlSJaep6tMpldV0qOrzIrIJzhBsTmN8+LcS84EXgNtU9e28xeSFqn4hIgfg3POlEaNhOhU/9ksNgKqqiOyNO36Y5GlgAXCwqvrMQrY0qjqHYnj1MZoYVZ0gIj8C7iLZhqm7gP21wov3Mq6/1HEqzhPw1zEq+ATY0Qa/YaSLqj4LDMc9FcXht8Ae2smFf1Xff6p6I26N8TxgpkfhrwO/Boao6uMxBRqGUQd17vW2xu29meyRZQ5wHbCdqp6o7nzAMtSMC6CqrwDHi8ivgB1w77KdA4PMBG5Q1Scifpa80LwFGIWn0H1EVecBVwBXiMj6uNgAg1k+MMjtwJ2q+lW98kIjAwVW48HganY+xjVwva3LNlnXuvi0bc2Tr0VDVV8HxiQpo1SxAVX1S1w4s3rYqbTWxadtX8tcRYEolQEIeD3k/joNUWHkQVjbfonfnFfLUEYDEGbhdxSReqHQjOZll5D7r2uwB7csmAFYnt7A9o0QYjQOEekLjAhJVqrHfyinAQh7BQB3ztordLrRNJyBO8VaD5++0VKU0QBMItxV0pbASQ3QYjQAEfkxcJhH0glZaykapTMAqvoZ7sx3GGNFJItoSUYDCVzWXeWRdFIT7WdJjdIZgIDzcYdN6tEVuM4mBJue84G1PNKVMo5lKQ2Aqn4AXOuRdCgwSUQ2zFaRkTYi0ldEbgZ+7pH8BVW9N2tNRaSUBiDgd7igJ2EMx0VB+lUQRdkoOCKyB/ASsK9nlnMylFNoSmsAVPVN3EEJH7rjvB8/LiJbi4h5QS4gIjJIRG7E7YP3DZI5HXfWvpRIyfY9LIOIfAt4gHD3yZ35EDdj/BrwHlArPJORLb2ANXG+HncGNoiYfybwQ1UtreemUhsAABHpAzwBFCUktNEY5gAjVDXu+fqWoLSvAB2o6izcFtEP89ZiNIyFwL+VffCDGQAAVHUGzr+6xTgsBwepaiscb0+MGYAAVX0e2BZ4Pm8tRmbMxP3ym8u6ADMAFQSukocDx2HRfVqJJcAlwIaqekfeYopE6ScBayEi6+A6zci8tRiJeBE4RFWfzFtIEbEngBqo6tuquivwX3lrMWJzF7CZDf7amAEIp3RnxFuIt1R1Yd4iioydeU+Hg4E36twfjttJWI9jgKmpKarO2oTvfjwXuC9jHd2A+0PSXEf4eY2/Uj+qtRGCGYB0eFZVaw7eYMdhGFNV9dH0JFXV4bPZ6ZUG6PD5PmaE6RCR5fzcG9GwVwDDKDFmAAyjxJgBMIwSYwbAMEqMGQDDKDFmAAyjxJgBMIwSYwbAMEqMGQDDKDFmAAyjxJgBMIwS05JnAURkL1wsuGFAz4TFmZFsXo4QkUMTlrEIF2PgVmC8qvrEkmgaWs4AiMhZwCl56zAKQRfCIwKH0R13mnM48C8isrOqtswhpJb6dRORLcgnqq+5VSoHOwFJnygKRUsZAJz7rjw+k0UKKg+75S0gTVrNAESNDJMWc3Kqt+zk8b3n1ccyodUMQB7BO+cBb+VQr+Hi+jWalgoQ22oGIA/Oa6VJoSbjd3kLaHbMACTjSuCMvEWUFVW9FzgamJ+3lmal5ZYBQ5gDXJ2wDAXeBSaq6nPJJRlJUNWLROQvwI9x7+dJH9F3Ab6XWFiTUDYDMEtVf5m3CCNdVPUt4Io0yhKRfpTIANgrgGGUGDMAhlFizAAYRokxA2AYJcYMgGGUGDMAhlFizAAYRokxA2AYJcYMgGGUGDMAhlFizAAYRokxA9AY5qaUJilF0bEQWFAAHaWnJQyAiLSJyEE4n2316C8iZ4rIio3QBSAiGwIneyT9tYhk5m1GRNYCzvJIelTgWzErHX2B8wg/tTdKRMLaMzWK3IcyRVWb+gK2A6bgjun6XjOB0YBkqKsfcBnOrbSvroXApcDqKeroDfwG+CqCjiXATcCAFHWsgHPY+lnEtroXGFzGPtSQ8ZO3gASN1gZcG7HROl9PAStnoG0kzvdAXF1zgJEp6Ngc+DiBjq+BUSnoWA94J4GOxcDJZepDDRtHeQtI0HjjEjZcx/UI0DVFXcMSDv5KIzAsgY51gA9S0LEA2CmBjj7Aqym11egy9KGGjqO8BcRsuENSariO6+qUdK0BvJeirveANWLoWAkXzSYtHZ8Dm8TQ0Q2YmKKOBcCOrdyHGj6W8hYQo+G2w70rp9l4ChyXUFc70d8jfa4pQHtELQ9koOMdIj7qAn/MQMdnwHdbsQ/lMp7yFhCj8f6aQcMp8AkJHuOA3TPSpcDuEXRskaGOIyLo6E+0CdAo17hW7EN5XE21DCgiawA7RsgyC9cwPvQlWdSXAyOk/Sq4sij75xHSLiBacI0oZY/G30HnYtxrhi//LiKx/FkWvA81nKYyAMC/E655EXAm7t25L7AybgB95lH+6DiiAkeSIz2SPgF8H7c01zv4/yc98o0M6gjT0R3Yz6O8F4HtgV7At4FNgLs98m0mIkM80gEc4JHmHeAnQG9VXQlYH7jeI99q+H3f1ShkH8qNvB9BIj66/Z3wx7Cf1si7EW5Zq17eBUDfGLqO99B1H9BWJW8b8JBH/uM9dOzlUc40oHuN/Nd75A99/Aa28Sjng1rfNXC6R/5bW6kP5XU12xPAwJD7j6jqTdVuqOrfgfEh+bsCa8fQFZZHgV9olQhCwd98HvF9dPmkOUJVawXSOBr4skE6TlTVT2vcOwN4O4U6qlHUPpQLzWYAwqLwPpjwvk8d1Qh7H31DVWt2aFWdAcxIWIdPmq+AyXV0zAbCgp2koQPqtIWqLgQeS6GOahS1D+VCsxmAsl19AwAAAyhJREFUML1hE0k+E01xvpOwyS6fer9IWIdPmnmquigkTZjWNHQo4Z83DR3VKGofyoWmERoQpnd4wvs+dVQj7NdoiIh8q9bN4N6GCevwSbOKiKxbR4fglhGz1iHAliFpwtoq7hNAUftQLjSN0IDZIff3FZHB1W6ISC/gxBTqqMbHIfe7AWPr3D8d9+6YpA7fNPVOBB6JO8TUCB1niEjV/iciuxM+0HzqqEZR+1A+5D0LGXEG9zLCZ3DfAkZ0yrcuMMkj79SYuoZ5lL0IZwS6VuTrCpyGWwcPyx96LgC3POaz+eYioEdFPgGOwO/EYOghJaA7fqf+bqHTjDluGXOWR97DW6kP5Tam8hYQsfG29mgAxR1nnQbciJv0Clu66bhCl9rqaHvRs46PgLuC6yPPPC9G0HGfZ5mzgrS34n9S7xM8tyXjQqf7lDkHeDgwBm945lkIrNpqfSiXMZW3gIiNJ8A/PBsi6rUY6J9A28kZ6VIiHIXFbUTJSselEXRsn6GOe1uxD+VxNdUcgLoWvDKj4u9R1ZkJ8t8AzEtLTAXzgrJ9uQP3S502i4GrI6SfiDsGnAWxQ4EXvA81nrwtUAwL3gWYQLqW+01glRS07Yl7dExL1xJgzxg6RgDzU/6Ojo6hYxDRPQCFXee3ch9q+HjKW0DMBuyFez9Lo+FmA4NS1DY2xU41NoGOA1LUcXkCHbvgN8npc00AurR6H2roWMpbQIIGXJvkHm9SczBRoUtwE1pJO9UtJPQ3Rzoebx4m4RFX4NgUdLyEOzTU8n2ooeMobwEJG7AfzqdbnMfuicCQjHR1wS2r+Sxndb5mBXnT+qXbD3g3ho55wKnUODgUQ8euwGsxB9i4tAd/0ftQw8ZQ3gJSasQfAM94Ntq7wL4N0tUXuAS/tflFQdrUT5IBPXAHbHw9A98MrJmBjm7ACbhtwD46JgAblLkPZX1J8OGbnmBX2Ta4TTlDgSG4Sah3ce96LwTXo6oaduItbW0Dga0CTR3aqNA1DZisqm9mrKM/boKwUkdPYDrffD9Pq+qLGetYNdAxtEJHH9xeio7v41lVDTuYlLauwvahrPj/Ugc7rqZCGP4AAAAASUVORK5CYII=;" vertex="1" parent="1">
          <mxGeometry x="1214" y="460" width="53.01" height="53.01" as="geometry" />
        </mxCell>
        <mxCell id="vH8yIlECoYQ3EJ_WlOSH-43" value="" style="shape=image;verticalLabelPosition=bottom;labelBackgroundColor=default;verticalAlign=top;aspect=fixed;imageAspect=0;image=data:image/svg+xml,PHN2ZyB4bWxucz0iaHR0cDovL3d3dy53My5vcmcvMjAwMC9zdmciIHdpZHRoPSI0OCIgdmlld0JveD0iMCA5NiA5NjAgOTYwIiBoZWlnaHQ9IjQ4Ij48cGF0aCBkPSJNNDA3IDczMXEyMyAyMyA2Ni41IDIxLjVUNTM3IDcyMGwyMTYtMzM5LTMzNSAyMTlxLTMwIDIwLTMyIDY0dDIxIDY3Wm03MS00NzRxNTcgMCAxMTkgMTguNVQ3MTYgMzM5bC01MiAzN3EtNDUtMzAtOTYuNS00NC41VDQ3Ny45NzggMzE3cS0xNDAuNDcyIDAtMjM5LjIyNSAxMDAuMjE1UTE0MCA1MTcuNDMxIDE0MCA2NTkuOTgzIDE0MCA3MDUgMTUyLjUgNzUxcTEyLjUgNDYgMzUuNSA4NWg1NzlxMjItMzYgMzUtODR0MTMtOTRxMC00Mi0xMi41LTkwLjVUNzU4IDQ3OGwzOS01MnEzOCA1NiA1NyAxMTIuNVQ4NzUgNjUycTIgNjAtMTIgMTEzdC00MSA5OHEtMTIgMjMtMjUuNSAyOHQtMzMuNSA1SDE5MnEtMTcgMC0zMy41LTguNVQxMzQgODYzcS0yNi00OC00MC05Ny41VDgwIDY2MHEwLTgzIDMxLjUtMTU2LjV0ODUuNS0xMjhRMjUxIDMyMSAzMjMuNjggMjg5VDQ3OCAyNTdabS05IDMzMVoiLz48L3N2Zz4=;flipH=0;imageBackground=none;" vertex="1" parent="1">
          <mxGeometry x="1223.505" y="411" width="34" height="34" as="geometry" />
        </mxCell>
        <mxCell id="vH8yIlECoYQ3EJ_WlOSH-51" style="edgeStyle=orthogonalEdgeStyle;rounded=0;orthogonalLoop=1;jettySize=auto;html=1;entryX=0.5;entryY=1;entryDx=0;entryDy=0;" edge="1" parent="1" source="vH8yIlECoYQ3EJ_WlOSH-44" target="vH8yIlECoYQ3EJ_WlOSH-42">
          <mxGeometry relative="1" as="geometry" />
        </mxCell>
        <mxCell id="vH8yIlECoYQ3EJ_WlOSH-44" value="" style="rounded=1;whiteSpace=wrap;html=1;" vertex="1" parent="1">
          <mxGeometry x="1180.5049999999999" y="550" width="120" height="60" as="geometry" />
        </mxCell>
        <mxCell id="vH8yIlECoYQ3EJ_WlOSH-45" value="" style="shape=image;verticalLabelPosition=bottom;labelBackgroundColor=default;verticalAlign=top;aspect=fixed;imageAspect=0;image=data:image/svg+xml,PHN2ZyB4bWxucz0iaHR0cDovL3d3dy53My5vcmcvMjAwMC9zdmciIHdpZHRoPSI0OCIgdmlld0JveD0iMCA5NiA5NjAgOTYwIiBoZWlnaHQ9IjQ4Ij48cGF0aCBkPSJNMzg1IDkzNnEtNTEgMC04Ni41LTM4VDI1OCA4MTJxLTU5LTUtOTguNS00OS41VDEyMCA2NTRxMC0yMiA1LjUtNDIuNVQxNDIgNTcycS0xMS0xOC0xNi41LTM4dC01LjUtNDNxMC02MCA0MS41LTEwM3Q5OC41LTUwcTItNTEgMzguNS04Ni41VDM4NiAyMTZxMjkgMCA1MS41IDEwLjVUNDgwIDI1N3EyMC0yMCA0Mi0zMC41dDUxLTEwLjVxNTAgMCA4NiAzNS41dDM5IDg2LjVxNTggNSAxMDAgNDguNVQ4NDAgNDkxcTAgMjMtNiA0My41VDgxNyA1NzNxMTEgMjAgMTcgNDJ0NiA0M3EwIDY0LTM5LjUgMTA2LjVUNzAyIDgxMnEtNSA0OC00MSA4NnQtODYgMzhxLTMwIDAtNTItMTB0LTQzLTMwcS0yMSAyMC00MyAzMHQtNTIgMTBabTEyNS02MDB2NDgwcTAgMjUgMTkuNSA0Mi41VDU3NiA4NzZxMjYgMCA0NS0yM3QyMS00N3EtMjMtOC00My0yMS41VDU2NSA3NTFxLTgtMTEtNi0yMi41dDEzLTE5LjVxMTEtOCAyMi41LTZ0MTkuNSAxM3ExMyAxOCAzMiAyNy41dDQyIDkuNXEzOCAwIDY1LTI2dDI3LTY5cTAtOS0yLTE4LjV0LTQtMTkuNXEtMTggMTMtMzkuNSAxOS41VDY5MCA2NDZxLTEzIDAtMjEuNS04LjVUNjYwIDYxNnEwLTEzIDguNS0yMS41VDY5MCA1ODZxMzggMCA2NC0yOHQyNi02N3EwLTM4LTI4LTY1dC02NC0yOXEtMTAgMjQtMjguNSA0Mi41VDYxNyA0NjdxLTEyIDUtMjMtLjVUNTc5IDQ0OXEtNC0xMiAxLTIzLjV0MTctMTUuNXExOC02IDI5LjUtMjR0MTEuNS00MXEwLTI5LTE5LTQ5dC00NS0yMHEtMjYgMC00NSAxNy41VDUxMCAzMzZabS02MCA0ODBWMzM2cTAtMjUtMTguNS00Mi41VDM4NiAyNzZxLTI2IDAtNDUuNSAyMFQzMjEgMzQ1cTAgMjMgMTEgNDAuNXQyOSAyMy41cTEyIDQgMTcuNSAxNS41VDM4MCA0NDdxLTUgMTItMTYuNSAxOHQtMjMuNSAxcS0yNC04LTQyLTI2LjVUMjcwIDM5N3EtMzUgMy02Mi41IDI5LjVUMTgwIDQ5MXEwIDM5IDI2IDY3dDY0IDI4cTEzIDAgMjEuNSA4LjVUMzAwIDYxNnEwIDEzLTguNSAyMS41VDI3MCA2NDZxLTIzIDAtNDQuNS03VDE4NiA2MjBxLTMgOC00LjUgMTd0LTEuNSAxOHEwIDQzIDI2LjUgNzAuNVQyNzEgNzUzcTIyIDAgNDEuNS0xMHQzMi41LTI3cTgtMTAgMjAtMTIuNXQyMiA1LjVxMTAgOCAxMi41IDIwdC01LjUgMjJxLTE0IDIwLTMzLjUgMzMuNVQzMTggODA2cTIgMjQgMjEgNDd0NDYgMjNxMjcgMCA0Ni0xNy41dDE5LTQyLjVabTMwLTI0MFoiLz48L3N2Zz4=;" vertex="1" parent="1">
          <mxGeometry x="1225.0049999999999" y="577" width="31" height="31" as="geometry" />
        </mxCell>
        <mxCell id="vH8yIlECoYQ3EJ_WlOSH-46" value="Custom" style="text;html=1;strokeColor=none;fillColor=none;align=center;verticalAlign=middle;whiteSpace=wrap;rounded=0;" vertex="1" parent="1">
          <mxGeometry x="1210.5049999999999" y="552" width="60" height="30" as="geometry" />
        </mxCell>
        <mxCell id="vH8yIlECoYQ3EJ_WlOSH-48" value="API" style="text;html=1;strokeColor=none;fillColor=none;align=center;verticalAlign=middle;whiteSpace=wrap;rounded=0;" vertex="1" parent="1">
          <mxGeometry x="1300.5" y="565" width="39.5" height="30" as="geometry" />
        </mxCell>
        <mxCell id="vH8yIlECoYQ3EJ_WlOSH-53" style="edgeStyle=orthogonalEdgeStyle;rounded=0;orthogonalLoop=1;jettySize=auto;html=1;entryX=1;entryY=0.5;entryDx=0;entryDy=0;" edge="1" parent="1" source="vH8yIlECoYQ3EJ_WlOSH-5" target="vH8yIlECoYQ3EJ_WlOSH-48">
          <mxGeometry relative="1" as="geometry">
            <Array as="points">
              <mxPoint x="1010" y="360" />
              <mxPoint x="1400" y="360" />
              <mxPoint x="1400" y="580" />
            </Array>
          </mxGeometry>
        </mxCell>
        <mxCell id="vH8yIlECoYQ3EJ_WlOSH-54" value="" style="rounded=0;whiteSpace=wrap;html=1;fillColor=none;" vertex="1" parent="1">
          <mxGeometry x="1130" y="400" width="230.51" height="248" as="geometry" />
        </mxCell>
      </root>
    </mxGraphModel>
  </diagram>
</mxfile>
